<?xml version="1.0" encoding="UTF-8" standalone="no" ?>
<!DOCTYPE svg PUBLIC "-//W3C//DTD SVG 1.1//EN" "http://www.w3.org/Graphics/SVG/1.1/DTD/svg11.dtd">
<svg xmlns="http://www.w3.org/2000/svg" xmlns:xlink="http://www.w3.org/1999/xlink" version="1.1" width="205" height="80" viewBox="0 0 205 80" xml:space="preserve">
<desc>Created with Fabric.js 3.6.3</desc>
<defs>
</defs>
<g transform="matrix(0.51 0 0 0.51 102.31 40.12)"  >
<g style=""   >
		<g transform="matrix(1 0 0 1 134.17 12.72)" id="path0"  >
<path style="stroke: none; stroke-width: 1; stroke-dasharray: none; stroke-linecap: butt; stroke-dashoffset: 0; stroke-linejoin: miter; stroke-miterlimit: 4; fill: rgb(4,120,196); fill-rule: evenodd; opacity: 1;"  transform=" translate(-334.17, -88.48)" d="M 287.507 36 C 287.511 36.137 287.585 37.037 287.671 38 C 288.019 41.889 288.517 47.669 289.072 54.25 C 289.385 57.966 289.786 62.521 290.004 64.833 C 290.207 66.984 290.593 71.514 290.821 74.417 C 290.915 75.608 291.069 77.296 291.164 78.167 C 291.259 79.037 291.414 80.762 291.509 82 C 291.604 83.237 291.788 85.525 291.919 87.083 C 292.049 88.642 292.232 90.854 292.326 92 C 292.42 93.146 292.572 94.833 292.664 95.75 C 292.756 96.667 292.945 98.767 293.083 100.417 C 293.221 102.067 293.41 104.204 293.503 105.167 C 293.595 106.129 293.749 107.892 293.845 109.083 C 293.94 110.275 294.126 112.487 294.259 114 C 294.392 115.513 294.611 118.063 294.746 119.667 C 295.743 131.515 295.636 130.618 296.064 130.722 C 296.778 130.895 298.29 131.318 299.75 131.752 C 301.178 132.177 301.883 132.375 303.874 132.907 C 304.356 133.036 306.063 133.512 307.667 133.964 C 309.271 134.416 312.121 135.211 314 135.731 C 315.879 136.25 317.792 136.781 318.25 136.911 C 318.708 137.041 319.496 137.265 320 137.408 C 320.504 137.551 321.854 137.939 323 138.271 C 324.146 138.602 325.458 138.974 325.917 139.097 C 326.375 139.22 327.162 139.433 327.667 139.571 C 328.171 139.708 328.996 139.931 329.5 140.067 C 330.004 140.202 330.829 140.434 331.333 140.583 C 334.347 141.473 333.805 141.509 338.833 140.086 C 340.346 139.658 341.883 139.236 342.25 139.15 C 342.617 139.063 343.104 138.927 343.333 138.848 C 343.563 138.769 344.238 138.575 344.833 138.417 C 345.429 138.259 346.067 138.07 346.25 137.996 C 346.433 137.922 346.921 137.776 347.333 137.672 C 348.068 137.486 348.827 137.281 350.667 136.773 C 351.171 136.633 351.996 136.41 352.5 136.277 C 353.004 136.143 354.579 135.697 356 135.285 C 357.421 134.873 359.596 134.26 360.833 133.923 C 362.071 133.586 363.308 133.243 363.583 133.161 C 363.858 133.078 364.496 132.9 365 132.765 C 366.399 132.389 367.78 132.001 369.25 131.569 C 369.983 131.354 371.052 131.046 371.624 130.886 C 372.826 130.548 372.759 130.707 372.913 127.833 C 372.965 126.871 373.079 125.446 373.167 124.667 C 373.255 123.888 373.441 121.862 373.581 120.167 C 373.722 118.471 373.913 116.296 374.007 115.333 C 374.101 114.371 374.248 112.721 374.333 111.667 C 374.561 108.845 375.288 100.293 375.751 95 C 375.891 93.396 376.114 90.771 376.246 89.167 C 376.379 87.563 376.567 85.425 376.665 84.417 C 376.879 82.197 377.254 77.945 377.582 74 C 377.937 69.734 378.287 65.643 378.581 62.333 C 378.96 58.066 379.295 54.057 379.487 51.5 C 379.58 50.262 379.732 48.538 379.826 47.667 C 379.92 46.796 380.114 44.658 380.257 42.917 C 380.4 41.175 380.589 39.203 380.675 38.535 C 380.762 37.867 380.833 36.967 380.833 36.535 L 380.833 35.75 L 334.167 35.75 C 292.793 35.75 287.501 35.778 287.507 36 M 371.5 44.074 C 371.5 44.219 370.529 55.24 369.494 66.833 C 369.003 72.333 368.903 73.466 368.409 79.083 C 368.272 80.642 367.939 84.392 367.668 87.417 C 367.397 90.442 367.059 94.267 366.917 95.917 C 366.776 97.567 366.511 100.567 366.329 102.583 C 366.148 104.6 365.887 107.525 365.751 109.083 C 365.615 110.642 365.423 112.779 365.326 113.833 C 365.228 114.888 364.971 117.753 364.754 120.202 C 364.304 125.29 364.413 124.9 363.378 125.155 C 362.633 125.339 359.013 126.317 341.481 131.073 C 337.574 132.133 334.33 133 334.272 133 C 334.214 133 334.167 130.232 334.167 126.849 L 334.167 120.698 L 333.292 120.439 C 332.81 120.297 331.404 119.907 330.167 119.573 C 328.929 119.239 327.692 118.899 327.417 118.817 C 326.694 118.602 321.818 117.256 319.959 116.759 C 311.174 114.41 310.169 114.087 310.159 113.605 C 310.155 113.41 310.08 112.462 309.992 111.5 C 309.904 110.537 309.723 108.475 309.589 106.917 C 309.074 100.884 308.835 98.214 308.73 97.292 L 308.62 96.333 L 314.545 96.333 L 320.471 96.333 L 320.574 96.958 C 320.631 97.302 320.783 99.337 320.91 101.48 C 321.038 103.622 321.204 105.434 321.28 105.506 C 321.355 105.577 323.517 106.21 326.083 106.911 C 328.65 107.612 330.975 108.254 331.25 108.337 C 332.639 108.759 334.067 109.167 334.153 109.167 C 334.206 109.167 334.23 104.967 334.206 99.833 L 334.161 90.5 L 321.164 90.5 C 308.9 90.5 308.166 90.484 308.159 90.208 C 308.154 90.048 308.081 89.167 307.996 88.25 C 307.911 87.333 307.724 85.233 307.58 83.583 C 307.436 81.933 307.275 80.095 307.223 79.498 L 307.128 78.413 L 318.397 72.783 C 324.595 69.686 329.667 67.099 329.667 67.034 C 329.667 66.97 324.389 66.937 317.938 66.962 L 306.21 67.007 L 306.098 66.462 C 306.037 66.162 305.874 64.529 305.736 62.833 C 305.599 61.137 305.418 58.962 305.335 58 C 305.252 57.038 305.18 56.044 305.175 55.792 L 305.167 55.333 L 319.708 55.333 L 334.25 55.333 L 334.204 49.667 L 334.158 44 L 352.829 44 C 363.098 44 371.5 44.033 371.5 44.074" stroke-linecap="round" />
</g>
		<g transform="matrix(1 0 0 1 -5.5 -37.19)" id="path1"  >
<path style="stroke: none; stroke-width: 1; stroke-dasharray: none; stroke-linecap: butt; stroke-dashoffset: 0; stroke-linejoin: miter; stroke-miterlimit: 4; fill: rgb(4,4,4); fill-rule: evenodd; opacity: 1;"  transform=" translate(-194.5, -38.57)" d="M 28 18.917 L 28 27.667 L 30.917 27.667 L 33.833 27.667 L 33.833 24.917 L 33.833 22.167 L 36.75 22.167 L 39.667 22.167 L 39.667 24.917 L 39.667 27.667 L 42.583 27.667 L 45.5 27.667 L 45.5 18.917 L 45.5 10.167 L 42.583 10.167 L 39.667 10.167 L 39.667 13.25 L 39.667 16.333 L 36.708 16.334 L 33.75 16.334 L 33.799 13.25 L 33.848 10.167 L 30.924 10.167 L 28 10.167 L 28 18.917 M 47.833 13.083 L 47.833 16 L 50.417 16 L 53 16 L 53 21.833 L 53 27.667 L 55.917 27.667 L 58.833 27.667 L 58.833 21.833 L 58.833 16 L 61.667 16 L 64.5 16 L 64.5 13.083 L 64.5 10.167 L 56.167 10.167 L 47.833 10.167 L 47.833 13.083 M 66.833 18.917 L 66.833 27.667 L 69.75 27.667 L 72.667 27.667 L 72.667 23.552 L 72.667 19.437 L 74.585 22.51 C 75.64 24.2 76.562 25.603 76.634 25.627 C 76.706 25.652 77.624 24.252 78.674 22.517 L 80.583 19.362 L 80.628 23.514 L 80.672 27.667 L 83.586 27.667 L 86.5 27.667 L 86.5 18.917 L 86.5 10.167 L 83.591 10.167 L 80.683 10.167 L 80.203 10.875 C 79.939 11.265 79.1 12.633 78.338 13.917 C 77.576 15.2 76.867 16.344 76.761 16.46 C 76.612 16.623 76.128 15.943 74.599 13.418 L 72.63 10.167 L 69.731 10.167 L 66.833 10.167 L 66.833 18.917 M 88.833 18.917 L 88.833 27.667 L 95.837 27.667 L 102.841 27.667 L 102.796 24.792 L 102.75 21.917 L 98.708 21.872 L 94.667 21.827 L 94.667 15.997 L 94.667 10.167 L 91.75 10.167 L 88.833 10.167 L 88.833 18.917 M 192.333 16.583 L 192.333 23 L 188.5 23 L 184.667 23 L 184.667 25.333 L 184.667 27.667 L 190.917 27.667 L 197.167 27.667 L 197.167 18.917 L 197.167 10.167 L 194.75 10.167 L 192.333 10.167 L 192.333 16.583 M 199.5 15.583 L 199.5 21 L 205.333 21 L 211.167 21 L 211.167 22 L 211.167 23 L 205.333 23 L 199.5 23 L 199.5 25.333 L 199.5 27.667 L 207.75 27.667 L 216 27.667 L 216 22.25 L 216 16.833 L 210.167 16.833 L 204.333 16.833 L 204.333 15.917 L 204.333 15 L 210.167 15 L 216 15 L 216 12.583 L 216 10.167 L 207.75 10.167 L 199.5 10.167 L 199.5 15.583 M 306.333 18.917 L 306.333 27.667 L 314.667 27.667 L 323 27.667 L 323 25.333 L 323 23 L 317.167 23 L 311.333 23 L 311.333 19 L 311.333 15 L 317.167 15 L 323 15 L 323 12.583 L 323 10.167 L 314.667 10.167 L 306.333 10.167 L 306.333 18.917 M 325.333 15.583 L 325.333 21 L 331.25 21 L 337.167 21 L 337.167 22 L 337.167 23 L 331.25 23 L 325.333 23 L 325.333 25.333 L 325.333 27.667 L 333.667 27.667 L 342 27.667 L 342 22.25 L 342 16.833 L 336.083 16.833 L 330.167 16.833 L 330.167 15.917 L 330.167 15 L 336.083 15 L 342 15 L 342 12.583 L 342 10.167 L 333.667 10.167 L 325.333 10.167 L 325.333 15.583 M 344.333 15.583 L 344.333 21 L 350.25 21 L 356.167 21 L 356.167 22 L 356.167 23 L 350.25 23 L 344.333 23 L 344.333 25.333 L 344.333 27.667 L 352.667 27.667 L 361 27.667 L 361 22.25 L 361 16.833 L 355.083 16.833 L 349.167 16.833 L 349.167 15.917 L 349.167 15 L 355.083 15 L 361 15 L 361 12.583 L 361 10.167 L 352.667 10.167 L 344.333 10.167 L 344.333 15.583 M 311.971 66.958 C 315.209 66.984 320.459 66.984 323.637 66.958 C 326.816 66.933 324.167 66.912 317.75 66.912 C 311.333 66.912 308.733 66.933 311.971 66.958" stroke-linecap="round" />
</g>
		<g transform="matrix(1 0 0 1 -134.19 12.67)" id="path2"  >
<path style="stroke: none; stroke-width: 1; stroke-dasharray: none; stroke-linecap: butt; stroke-dashoffset: 0; stroke-linejoin: miter; stroke-miterlimit: 4; fill: rgb(232,50,4); fill-rule: evenodd; opacity: 1;"  transform=" translate(-65.81, -88.43)" d="M 19.226 36.708 C 19.285 37.281 19.45 39.063 19.593 40.667 C 19.737 42.271 19.922 44.333 20.005 45.25 C 20.169 47.063 20.511 51.034 20.908 55.75 C 21.047 57.4 21.278 60.1 21.422 61.75 C 21.566 63.4 21.789 65.987 21.918 67.5 C 22.661 76.223 23.034 80.498 23.333 83.75 C 23.417 84.667 23.605 86.804 23.749 88.5 C 24.066 92.22 24.428 96.454 24.749 100.167 C 24.879 101.679 25.099 104.267 25.238 105.917 C 25.377 107.567 25.607 110.229 25.749 111.833 C 25.891 113.438 26.115 116.025 26.248 117.583 C 26.381 119.142 26.569 121.279 26.667 122.333 C 26.764 123.388 26.948 125.563 27.075 127.167 C 27.359 130.739 27.29 130.566 28.552 130.909 C 29.119 131.064 30.221 131.376 31 131.604 C 31.779 131.832 32.811 132.125 33.293 132.256 C 34.227 132.509 35.762 132.94 36.583 133.179 C 37.127 133.337 39.04 133.869 40.5 134.267 C 41.004 134.405 42.017 134.695 42.75 134.911 C 43.483 135.127 44.496 135.415 45 135.552 C 45.504 135.688 46.329 135.918 46.833 136.063 C 47.337 136.208 49.137 136.71 50.833 137.18 C 55.508 138.474 56.666 138.798 57.667 139.088 C 58.171 139.234 58.996 139.465 59.5 139.6 C 60.004 139.735 60.792 139.95 61.25 140.076 C 66.362 141.491 65.737 141.448 68.667 140.583 C 69.171 140.434 69.958 140.211 70.417 140.086 C 71.74 139.727 73.007 139.381 74.042 139.096 C 74.569 138.952 75.394 138.728 75.875 138.6 C 76.356 138.471 77.237 138.217 77.833 138.035 C 78.429 137.853 79.104 137.652 79.333 137.588 C 79.926 137.424 81.44 137.012 82.417 136.749 C 83.217 136.534 86.937 135.49 92.583 133.896 C 94.05 133.482 95.662 133.033 96.167 132.899 C 97.959 132.421 98.769 132.193 100.25 131.752 C 101.717 131.315 103.228 130.893 103.94 130.721 C 104.379 130.615 104.442 130.273 104.762 126.292 C 105.142 121.562 105.472 117.634 105.751 114.5 C 105.894 112.896 106.121 110.271 106.256 108.667 C 106.39 107.063 106.577 104.925 106.67 103.917 C 106.764 102.908 106.952 100.79 107.087 99.208 C 107.223 97.627 107.45 95.002 107.592 93.375 C 108.033 88.318 108.324 84.866 108.571 81.75 C 108.702 80.1 108.853 78.45 108.907 78.083 C 108.96 77.717 109.082 76.404 109.176 75.167 C 109.435 71.782 109.798 67.474 109.998 65.417 C 110.271 62.595 110.848 55.963 111.418 49.083 C 111.649 46.293 112.015 42.099 112.327 38.667 C 112.414 37.704 112.489 36.635 112.493 36.292 L 112.5 35.667 L 65.81 35.667 L 19.12 35.667 L 19.226 36.708 M 94.826 56.125 C 94.822 56.56 94.748 57.704 94.662 58.667 C 94.441 61.138 94.008 66.376 94.003 66.625 C 94.001 66.791 89.516 66.833 72.143 66.833 L 50.285 66.833 L 50.401 69.458 C 50.465 70.902 50.584 72.758 50.666 73.583 C 50.748 74.408 50.864 75.965 50.924 77.042 L 51.033 79 L 71.957 79 L 92.881 79 L 92.767 80.292 C 92.641 81.712 92.299 85.636 91.925 89.958 C 91.792 91.494 91.569 94.1 91.43 95.75 C 91.291 97.4 91.06 100.1 90.916 101.75 C 90.594 105.452 90.213 109.864 90.083 111.417 C 89.877 113.86 89.853 113.952 89.367 114.146 C 88.989 114.298 83.223 115.912 80 116.769 C 78.936 117.052 78.386 117.203 74.667 118.236 C 73.154 118.656 71.354 119.153 70.667 119.341 C 68.103 120.042 67.563 120.191 66.75 120.423 C 66.155 120.593 65.75 120.616 65.333 120.504 C 65.012 120.418 64.319 120.231 63.792 120.087 C 63.266 119.944 62.441 119.721 61.959 119.592 C 59.877 119.035 56.844 118.198 55 117.672 C 53.336 117.198 50.901 116.521 49.209 116.063 C 46.452 115.317 46.401 115.303 43.709 114.563 C 41.774 114.031 41.892 114.149 41.779 112.614 C 41.679 111.253 41.331 107.132 41.01 103.5 C 40.917 102.446 40.761 100.683 40.664 99.583 C 40.566 98.483 40.459 97.302 40.426 96.958 L 40.365 96.333 L 46.328 96.333 L 52.291 96.333 L 52.411 98.792 C 52.477 100.144 52.619 102.22 52.725 103.406 L 52.92 105.562 L 53.751 105.794 C 54.209 105.921 54.977 106.132 55.458 106.263 C 57.091 106.705 58.164 106.999 59.042 107.243 C 59.523 107.377 60.592 107.674 61.417 107.902 C 62.242 108.131 63.596 108.508 64.427 108.74 C 65.672 109.088 66.037 109.13 66.51 108.985 C 66.825 108.888 67.458 108.708 67.917 108.587 C 68.375 108.465 69.837 108.055 71.167 107.675 C 73.796 106.923 76.791 106.107 78.039 105.803 C 78.983 105.573 78.915 105.833 79.169 101.5 C 79.269 99.804 79.457 96.767 79.587 94.75 C 79.717 92.733 79.826 90.952 79.828 90.792 C 79.833 90.515 78.772 90.5 59.845 90.5 L 39.857 90.5 L 39.768 89.625 C 39.719 89.144 39.596 87.737 39.493 86.5 C 39.391 85.262 39.201 83.012 39.07 81.5 C 38.94 79.987 38.721 77.4 38.585 75.75 C 38.448 74.1 38.22 71.438 38.078 69.833 C 37.789 66.571 37.438 62.464 37.18 59.333 C 37.086 58.188 36.966 56.819 36.913 56.292 L 36.817 55.333 L 65.825 55.333 L 94.833 55.333 L 94.826 56.125" stroke-linecap="round" />
</g>
		<g transform="matrix(1 0 0 1 0 12.79)" id="path3"  >
<path style="stroke: none; stroke-width: 1; stroke-dasharray: none; stroke-linecap: butt; stroke-dashoffset: 0; stroke-linejoin: miter; stroke-miterlimit: 4; fill: rgb(228,188,4); fill-rule: evenodd; opacity: 1;"  transform=" translate(-200, -88.55)" d="M 153.395 36.458 C 153.453 36.802 153.615 38.469 153.755 40.162 C 153.894 41.855 154.038 43.43 154.073 43.662 C 154.109 43.894 154.191 44.904 154.254 45.908 C 154.318 46.911 154.395 47.924 154.427 48.158 C 154.458 48.392 154.564 49.633 154.662 50.917 C 154.856 53.447 154.96 54.593 155.077 55.5 C 155.119 55.821 155.195 56.758 155.248 57.583 C 155.3 58.408 155.378 59.346 155.42 59.667 C 155.463 59.987 155.612 61.637 155.751 63.333 C 155.889 65.029 156.077 67.242 156.169 68.25 C 156.674 73.832 157.283 80.953 157.585 84.811 C 157.724 86.586 157.866 88.086 157.9 88.144 C 157.935 88.202 158.016 89.112 158.08 90.167 C 158.145 91.221 158.226 92.308 158.261 92.583 C 158.296 92.858 158.363 93.533 158.411 94.083 C 158.459 94.633 158.547 95.608 158.606 96.25 C 158.666 96.892 158.732 97.642 158.753 97.917 C 158.775 98.192 158.883 99.579 158.993 101 C 159.104 102.421 159.218 103.771 159.246 104 C 159.275 104.229 159.347 105.017 159.407 105.75 C 159.467 106.483 159.55 107.39 159.592 107.765 C 159.634 108.14 159.784 109.79 159.925 111.432 C 160.065 113.073 160.251 115.242 160.338 116.25 C 160.425 117.258 160.527 118.458 160.564 118.917 C 160.753 121.238 161.017 124.334 161.082 125 C 161.122 125.412 161.239 126.8 161.342 128.083 C 161.566 130.887 161.188 130.488 164.5 131.416 C 167.493 132.254 167.344 132.213 168.667 132.563 C 169.171 132.697 170.258 133.005 171.083 133.249 C 171.908 133.493 172.977 133.797 173.459 133.926 C 175.43 134.453 176.153 134.655 177.583 135.079 C 178.408 135.324 179.871 135.739 180.833 136.002 C 184.034 136.875 186.24 137.486 187.167 137.755 C 187.671 137.901 188.458 138.122 188.917 138.246 C 189.608 138.433 191.347 138.924 195.75 140.176 C 196.025 140.255 196.662 140.43 197.167 140.566 C 197.671 140.702 198.515 140.933 199.042 141.079 C 200.075 141.364 199.919 141.386 202.833 140.558 C 203.704 140.31 204.619 140.064 205.167 139.929 C 205.976 139.729 211.589 138.157 212 138.015 C 212.229 137.936 212.904 137.742 213.5 137.584 C 214.836 137.23 215.673 136.997 218.333 136.239 C 219.479 135.913 220.589 135.611 220.8 135.568 C 221.01 135.525 221.498 135.386 221.883 135.258 C 222.268 135.13 224.008 134.641 225.75 134.172 C 227.492 133.702 229.104 133.255 229.333 133.178 C 229.563 133.101 230.237 132.909 230.833 132.752 C 231.429 132.595 232.517 132.291 233.25 132.076 C 233.983 131.861 235.033 131.56 235.583 131.409 C 237.22 130.958 238.413 130.613 238.465 130.576 C 238.492 130.557 238.586 129.726 238.673 128.729 C 238.76 127.732 238.869 126.542 238.914 126.083 C 238.96 125.625 239.076 124.275 239.174 123.083 C 239.443 119.785 239.787 115.742 240.082 112.417 C 240.653 105.957 241.161 100.068 241.245 98.917 C 241.279 98.458 241.389 97.183 241.489 96.083 C 241.697 93.805 241.763 93.047 241.998 90.25 C 242.09 89.15 242.203 87.912 242.249 87.5 C 242.295 87.087 242.406 85.813 242.497 84.667 C 242.587 83.521 242.772 81.308 242.909 79.75 C 243.046 78.192 243.272 75.529 243.412 73.833 C 243.553 72.137 243.701 70.563 243.741 70.333 C 243.782 70.104 243.862 69.092 243.919 68.083 C 243.976 67.075 244.05 66.063 244.083 65.833 C 244.16 65.307 244.291 63.823 244.424 62 C 244.48 61.221 244.554 60.396 244.589 60.167 C 244.623 59.938 244.731 58.811 244.829 57.663 C 244.926 56.516 245.039 55.316 245.08 54.997 C 245.12 54.678 245.201 53.592 245.259 52.583 C 245.317 51.575 245.395 50.563 245.432 50.333 C 245.506 49.873 245.595 48.908 245.839 45.917 C 246.025 43.636 246.439 38.836 246.604 37.042 L 246.715 35.833 L 200.002 35.833 L 153.29 35.833 L 153.395 36.458 M 237.353 44.542 C 237.364 44.84 237.358 45.157 237.34 45.247 C 237.245 45.725 236.663 52.604 236.699 52.824 C 236.723 52.967 236.692 53.163 236.63 53.261 C 236.569 53.358 236.474 54.221 236.419 55.177 C 236.365 56.134 236.217 57.967 236.091 59.25 C 235.965 60.533 235.861 61.771 235.86 62 C 235.859 62.229 235.781 63.054 235.686 63.833 C 235.591 64.612 235.471 65.887 235.419 66.667 C 235.367 67.446 235.251 68.758 235.16 69.583 C 235.07 70.408 234.955 71.721 234.905 72.5 C 234.855 73.279 234.672 75.379 234.498 77.167 C 234.324 78.954 234.144 80.979 234.098 81.667 C 234.053 82.354 233.907 84.079 233.775 85.5 C 233.643 86.921 233.525 88.233 233.514 88.417 C 233.502 88.6 233.463 89.215 233.428 89.783 C 233.392 90.352 233.321 90.885 233.269 90.969 C 233.218 91.052 233.138 91.862 233.093 92.768 C 233.047 93.675 232.935 95.017 232.844 95.75 C 232.752 96.483 232.639 97.721 232.591 98.5 C 232.544 99.279 232.432 100.554 232.344 101.333 C 232.255 102.112 232.14 103.388 232.087 104.167 C 232.035 104.946 231.921 106.296 231.833 107.167 C 231.649 109.006 230.886 117.666 230.747 119.5 C 230.695 120.188 230.561 121.683 230.451 122.824 L 230.249 124.898 L 227.75 125.567 C 226.375 125.935 225.213 126.276 225.167 126.326 C 225.121 126.376 224.95 126.427 224.787 126.441 C 224.263 126.483 220.418 127.563 220.367 127.683 C 220.34 127.746 220.171 127.76 219.992 127.713 C 219.806 127.664 219.667 127.711 219.667 127.824 C 219.667 127.931 219.608 127.983 219.536 127.939 C 219.413 127.863 215.383 128.865 214.833 129.107 C 214.696 129.168 214.508 129.227 214.417 129.239 C 214.06 129.283 213.075 129.544 212.924 129.634 C 212.837 129.686 212.565 129.75 212.32 129.777 C 212.075 129.804 211.659 129.913 211.395 130.019 C 211.132 130.125 210.72 130.237 210.479 130.269 C 210.238 130.3 209.825 130.413 209.562 130.519 C 209.299 130.625 208.886 130.737 208.645 130.769 C 208.405 130.8 207.992 130.913 207.729 131.019 C 207.465 131.125 207.025 131.24 206.75 131.275 C 206.475 131.31 206.226 131.409 206.198 131.494 C 206.169 131.578 206.045 131.61 205.923 131.563 C 205.8 131.516 205.65 131.559 205.589 131.658 C 205.527 131.757 205.421 131.804 205.352 131.761 C 205.283 131.719 204.145 131.98 202.823 132.342 C 201.5 132.704 200.287 133 200.126 133 C 199.848 133 199.833 130.82 199.833 88.5 L 199.833 44 L 218.583 44 L 237.333 44 L 237.353 44.542 M 196.5 88.003 L 196.5 120.673 L 196.042 120.566 C 195.79 120.507 194.101 120.056 192.29 119.563 C 190.479 119.071 188.716 118.596 188.373 118.508 C 187.327 118.24 185.994 117.879 184.333 117.414 C 183.463 117.17 182.675 116.954 182.583 116.933 C 182.492 116.913 182.004 116.773 181.5 116.623 C 180.996 116.473 179.421 116.041 178 115.663 C 173.06 114.351 172.057 114.079 171.25 113.833 C 170.975 113.749 170.263 113.56 169.669 113.411 C 169.074 113.263 168.532 113.054 168.463 112.946 C 168.295 112.682 168.298 102.708 168.465 102.605 C 168.538 102.56 169.269 102.714 170.09 102.948 C 170.912 103.182 171.958 103.473 172.417 103.594 C 173.31 103.83 174.785 104.234 176 104.574 C 179.266 105.488 186.104 107.333 186.228 107.333 C 186.286 107.333 186.333 95.633 186.333 81.333 L 186.333 55.333 L 191.417 55.333 L 196.5 55.333 L 196.5 88.003" stroke-linecap="round" />
</g>
		<g transform="matrix(1 0 0 1 2.87 8.62)" id="path4"  >
<path style="stroke: none; stroke-width: 1; stroke-dasharray: none; stroke-linecap: butt; stroke-dashoffset: 0; stroke-linejoin: miter; stroke-miterlimit: 4; fill: rgb(251,219,4); fill-rule: evenodd; opacity: 1;"  transform=" translate(-202.87, -84.37)" d="M 176.888 35.792 C 189.706 35.815 210.631 35.815 223.388 35.792 C 236.146 35.768 225.658 35.749 200.083 35.749 C 174.508 35.749 164.071 35.768 176.888 35.792 M 200 88.5 C 200 122.934 200.045 133 200.199 133 C 200.38 133 205.545 131.609 224 126.591 L 230.25 124.892 L 230.372 123.571 C 230.438 122.844 230.646 120.487 230.834 118.333 C 231.021 116.179 231.397 111.904 231.67 108.833 C 231.942 105.763 232.279 101.938 232.418 100.333 C 232.558 98.729 232.746 96.629 232.836 95.667 C 233.048 93.393 233.7 86.062 235.25 68.5 C 235.941 60.663 236.693 52.204 236.92 49.703 C 237.147 47.202 237.333 44.896 237.333 44.578 L 237.333 44 L 218.667 44 L 200 44 L 200 88.5 M 196.415 88 C 196.415 106.013 196.435 113.381 196.458 104.375 C 196.482 95.369 196.482 80.631 196.458 71.625 C 196.435 62.619 196.415 69.987 196.415 88 M 232.589 56.792 C 232.527 57.594 232.401 59 232.31 59.917 C 232.12 61.839 231.851 64.82 231.841 65.125 C 231.835 65.289 229.918 65.333 222.833 65.333 L 213.833 65.333 L 213.833 74.417 C 213.833 81.574 213.878 83.499 214.042 83.497 C 214.156 83.495 214.737 83.417 215.333 83.324 C 215.929 83.231 217.129 83.049 218 82.919 C 218.871 82.788 220.352 82.566 221.292 82.424 C 222.231 82.283 223.731 82.059 224.625 81.928 C 228.041 81.427 229.602 81.185 230.112 81.076 L 230.64 80.964 L 230.57 81.607 C 230.531 81.961 230.425 83.15 230.333 84.25 C 230.242 85.35 230.092 87.037 230 88 C 229.909 88.962 229.796 90.2 229.749 90.75 C 229.605 92.457 229.338 95.223 229.251 95.919 C 229.206 96.284 229.088 97.483 228.99 98.583 C 228.893 99.683 228.704 101.802 228.572 103.292 C 228.439 104.781 228.213 107.256 228.07 108.792 C 227.926 110.327 227.768 112.121 227.72 112.779 C 227.638 113.884 227.598 113.986 227.191 114.135 C 226.377 114.433 224.964 114.833 224.729 114.833 C 224.6 114.833 224.365 114.905 224.206 114.993 C 224.047 115.081 223.579 115.225 223.167 115.312 C 222.754 115.4 220.767 115.935 218.75 116.502 C 213.027 118.11 212.373 118.292 210.377 118.836 C 206.035 120.02 204.721 120.374 204.208 120.499 L 203.667 120.632 L 203.667 115.413 L 203.667 110.194 L 204.875 109.84 C 205.54 109.645 206.346 109.419 206.667 109.336 C 206.987 109.254 207.625 109.078 208.083 108.946 C 208.542 108.814 209.142 108.648 209.417 108.577 C 210.052 108.413 209.84 108.472 212.667 107.665 C 213.996 107.286 215.897 106.763 216.892 106.504 C 219.247 105.89 218.911 106.723 219.581 99.833 C 219.71 98.504 219.899 96.742 220 95.917 C 220.101 95.092 220.22 94.048 220.266 93.597 C 220.311 93.147 220.394 92.704 220.449 92.614 C 220.514 92.509 220.285 92.491 219.817 92.564 C 219.414 92.626 218.371 92.786 217.5 92.917 C 216.629 93.049 215.242 93.266 214.417 93.401 C 213.592 93.535 212.129 93.768 211.167 93.919 C 210.204 94.069 208.967 94.264 208.417 94.352 C 207.867 94.439 206.742 94.617 205.917 94.747 C 205.092 94.876 204.248 95.032 204.042 95.094 L 203.667 95.206 L 203.667 75.269 L 203.667 55.333 L 218.185 55.333 L 232.703 55.333 L 232.589 56.792 M 168.407 107.75 C 168.407 110.592 168.43 111.778 168.458 110.385 C 168.486 108.993 168.486 106.668 168.458 105.219 C 168.43 103.769 168.408 104.908 168.407 107.75" stroke-linecap="round" />
</g>
		<g transform="matrix(1 0 0 1 138.51 8.62)" id="path5"  >
<path style="stroke: none; stroke-width: 1; stroke-dasharray: none; stroke-linecap: butt; stroke-dashoffset: 0; stroke-linejoin: miter; stroke-miterlimit: 4; fill: rgb(4,164,222); fill-rule: evenodd; opacity: 1;"  transform=" translate(-338.51, -84.37)" d="M 310.958 35.792 C 323.723 35.815 344.61 35.815 357.375 35.792 C 370.14 35.768 359.696 35.749 334.167 35.749 C 308.637 35.749 298.194 35.768 310.958 35.792 M 334.206 49.625 L 334.25 55.25 L 348.801 55.293 C 356.804 55.316 363.318 55.391 363.277 55.459 C 363.236 55.527 363.159 56.146 363.105 56.833 C 362.881 59.705 362.658 62.287 362.588 62.833 C 362.547 63.154 362.463 64.215 362.401 65.191 L 362.288 66.965 L 350.559 72.835 C 344.107 76.064 338.788 78.772 338.738 78.853 C 338.686 78.937 343.431 79 349.907 79 C 358.806 79 361.166 79.044 361.162 79.208 C 361.152 79.604 360.202 90.802 360.098 91.75 C 360.057 92.117 359.976 92.979 359.916 93.667 C 359.857 94.354 359.777 95.179 359.74 95.5 C 359.702 95.821 359.59 97.096 359.492 98.333 C 359.393 99.571 359.205 101.783 359.073 103.25 C 358.942 104.717 358.719 107.304 358.579 109 C 358.439 110.696 358.271 112.53 358.204 113.076 L 358.083 114.069 L 357.333 114.301 C 356.921 114.429 356.208 114.632 355.75 114.753 C 355.292 114.874 354.467 115.099 353.917 115.253 C 353.367 115.408 352.542 115.633 352.083 115.755 C 351.625 115.877 350.387 116.215 349.333 116.507 C 348.279 116.799 347.004 117.147 346.5 117.28 C 345.996 117.413 345.358 117.587 345.083 117.667 C 344.808 117.748 344.246 117.899 343.833 118.004 C 343.421 118.109 342.933 118.257 342.75 118.334 C 342.567 118.41 342.079 118.555 341.667 118.655 C 341.254 118.756 340.504 118.956 340 119.099 C 339.496 119.242 338.708 119.46 338.25 119.583 C 337.792 119.706 336.967 119.93 336.417 120.08 C 335.867 120.231 335.135 120.427 334.792 120.517 L 334.167 120.68 L 334.167 126.84 C 334.167 130.228 334.214 133 334.272 133 C 334.33 133 337.574 132.133 341.481 131.073 C 359.013 126.317 362.633 125.339 363.378 125.155 C 364.413 124.9 364.304 125.29 364.754 120.202 C 364.971 117.753 365.228 114.888 365.326 113.833 C 365.423 112.779 365.615 110.642 365.751 109.083 C 365.887 107.525 366.148 104.6 366.329 102.583 C 366.511 100.567 366.776 97.567 366.917 95.917 C 367.059 94.267 367.397 90.442 367.668 87.417 C 367.939 84.392 368.272 80.642 368.409 79.083 C 368.903 73.466 369.003 72.333 369.494 66.833 C 370.529 55.24 371.5 44.219 371.5 44.074 C 371.5 44.033 363.099 44 352.831 44 L 334.162 44 L 334.206 49.625 M 334.167 99.722 C 334.167 104.794 334.208 108.986 334.259 109.037 C 334.31 109.088 335.004 108.945 335.801 108.718 C 336.598 108.491 337.475 108.245 337.75 108.171 C 338.025 108.097 338.662 107.918 339.167 107.774 C 341.48 107.114 344.858 106.182 345.94 105.906 L 347.13 105.602 L 347.229 104.509 C 347.389 102.742 347.501 101.241 347.673 98.583 C 347.761 97.208 347.906 95.108 347.994 93.917 C 348.082 92.725 348.157 91.469 348.16 91.125 L 348.167 90.5 L 341.167 90.5 L 334.167 90.5 L 334.167 99.722" stroke-linecap="round" />
</g>
		<g transform="matrix(1 0 0 1 -0.05 12.74)" id="path6"  >
<path style="stroke: none; stroke-width: 1; stroke-dasharray: none; stroke-linecap: butt; stroke-dashoffset: 0; stroke-linejoin: miter; stroke-miterlimit: 4; fill: rgb(220,182,4); fill-rule: evenodd; opacity: 1;"  transform=" translate(-199.95, -88.5)" d="M 199.915 88.5 C 199.915 113.021 199.935 123.052 199.958 110.792 C 199.982 98.531 199.982 78.469 199.958 66.208 C 199.935 53.948 199.915 63.979 199.915 88.5" stroke-linecap="round" />
</g>
		<g transform="matrix(1 0 0 1 -200 -75.76)" id="path7"  >
<path style="stroke: none; stroke-width: 1; stroke-dasharray: none; stroke-linecap: butt; stroke-dashoffset: 0; stroke-linejoin: miter; stroke-miterlimit: 4; fill: rgb(228,180,4); fill-rule: evenodd; opacity: 1;"  transform=" translate(0, 0)" d="" stroke-linecap="round" />
</g>
		<g transform="matrix(1 0 0 1 -200 -75.76)" id="path8"  >
<path style="stroke: none; stroke-width: 1; stroke-dasharray: none; stroke-linecap: butt; stroke-dashoffset: 0; stroke-linejoin: miter; stroke-miterlimit: 4; fill: rgb(184,112,120); fill-rule: evenodd; opacity: 1;"  transform=" translate(0, 0)" d="" stroke-linecap="round" />
</g>
</g>
</g>
</svg>