<?xml version="1.0" encoding="UTF-8" standalone="no" ?>
<!DOCTYPE svg PUBLIC "-//W3C//DTD SVG 1.1//EN" "http://www.w3.org/Graphics/SVG/1.1/DTD/svg11.dtd">
<svg xmlns="http://www.w3.org/2000/svg" xmlns:xlink="http://www.w3.org/1999/xlink" version="1.1" width="205" height="100" viewBox="0 0 205 100" xml:space="preserve">
<desc>Created with Fabric.js 3.6.3</desc>
<defs>
</defs>
<g transform="matrix(0.63 0 0 0.63 103.24 50.37)"  >
<g style=""   >
		<g transform="matrix(1 0 0 1 -112.1 -1.03)" id="path0"  >
<path style="stroke: none; stroke-width: 1; stroke-dasharray: none; stroke-linecap: butt; stroke-dashoffset: 0; stroke-linejoin: miter; stroke-miterlimit: 4; fill: rgb(251,193,37); fill-rule: evenodd; opacity: 1;"  transform=" translate(-87.9, -101.47)" d="M 69.43 61.459 C 69.376 61.546 69.694 61.583 70.135 61.54 C 70.577 61.498 70.938 61.427 70.938 61.383 C 70.938 61.23 69.527 61.302 69.43 61.459 M 70.22 61.71 C 69.657 61.792 69.134 61.825 69.059 61.784 C 68.984 61.743 68.803 61.98 68.657 62.311 C 68.51 62.642 68.311 62.863 68.214 62.803 C 68.117 62.743 68.16 62.9 68.309 63.152 C 68.482 63.445 68.504 63.639 68.37 63.688 C 68.254 63.731 68.195 64.134 68.238 64.584 C 68.281 65.034 68.227 65.402 68.118 65.402 C 68.009 65.402 67.964 65.633 68.017 65.915 C 68.078 66.229 68.021 66.427 67.872 66.427 C 67.738 66.427 67.651 66.635 67.68 66.889 C 67.708 67.142 67.663 67.644 67.579 68.003 C 67.495 68.362 67.418 68.939 67.408 69.284 C 67.398 69.63 67.334 69.913 67.266 69.913 C 67.198 69.913 67.175 70.328 67.215 70.835 C 67.264 71.446 67.208 71.758 67.049 71.758 C 66.916 71.758 66.828 71.966 66.853 72.219 C 66.878 72.473 66.845 72.819 66.781 72.988 C 66.597 73.468 66.438 74.586 66.299 76.371 C 66.228 77.273 66.107 78.057 66.029 78.114 C 65.862 78.234 65.191 82.633 65.195 83.586 C 65.196 83.946 65.096 84.303 64.972 84.38 C 64.843 84.459 64.797 84.774 64.864 85.109 C 64.929 85.434 64.905 85.7 64.812 85.7 C 64.633 85.7 64.09 89.064 64.183 89.595 C 64.213 89.764 64.166 90.065 64.079 90.264 C 63.986 90.476 64.026 90.751 64.174 90.93 C 64.375 91.172 64.375 91.235 64.174 91.235 C 64.009 91.235 63.952 91.45 64.011 91.85 C 64.061 92.189 64.013 92.465 63.906 92.465 C 63.799 92.465 63.766 92.739 63.832 93.073 C 63.9 93.41 63.858 93.739 63.739 93.812 C 63.621 93.886 63.578 94.161 63.644 94.425 C 63.725 94.746 63.656 94.965 63.435 95.089 C 63.149 95.248 63.142 95.337 63.382 95.741 C 63.594 96.099 63.601 96.231 63.411 96.3 C 63.254 96.357 63.207 96.61 63.283 96.99 C 63.363 97.389 63.32 97.591 63.156 97.591 C 62.989 97.591 62.953 97.788 63.045 98.206 C 63.13 98.593 63.098 98.821 62.958 98.821 C 62.837 98.821 62.737 99.006 62.737 99.231 C 62.737 99.457 62.844 99.641 62.974 99.641 C 63.118 99.641 63.08 99.785 62.879 100.008 C 62.678 100.229 62.594 100.553 62.666 100.828 C 62.753 101.158 62.695 101.281 62.453 101.281 C 62.086 101.281 61.999 101.616 62.336 101.729 C 62.606 101.819 62.175 104.807 61.864 105.002 C 61.748 105.076 61.711 105.289 61.783 105.477 C 62.019 106.09 62.284 105.612 62.432 104.306 C 62.513 103.601 62.696 102.655 62.84 102.204 C 62.984 101.753 63.101 101.246 63.1 101.076 C 63.098 100.907 63.302 99.385 63.552 97.693 L 64.007 94.618 L 71.974 86.622 C 78.702 79.869 79.909 78.571 79.735 78.268 C 79.621 78.07 79.607 77.909 79.703 77.909 C 79.798 77.909 79.993 78.231 80.135 78.624 C 80.278 79.018 80.508 79.456 80.646 79.598 C 80.785 79.74 81.088 80.226 81.32 80.677 C 82.175 82.338 82.465 81.996 86.18 74.937 C 87.119 73.153 88.572 72.835 89.306 74.253 C 89.489 74.608 89.719 74.998 89.818 75.122 C 89.917 75.245 90.631 76.591 91.406 78.114 C 92.181 79.636 93.14 81.481 93.538 82.214 C 93.936 82.947 94.639 84.269 95.1 85.151 C 95.561 86.033 96.121 87.002 96.345 87.304 L 96.75 87.852 L 93.429 91.232 C 91.602 93.09 90.512 94.243 91.006 93.794 C 93.525 91.504 97.844 86.906 96.967 87.448 C 96.775 87.567 96.739 87.515 96.836 87.26 C 96.91 87.067 96.894 86.956 96.799 87.015 C 96.704 87.073 96.517 86.755 96.383 86.308 C 96.249 85.861 96.045 85.495 95.93 85.495 C 95.816 85.495 95.779 85.402 95.848 85.29 C 95.918 85.177 95.877 85.085 95.758 85.085 C 95.638 85.085 95.541 84.96 95.541 84.809 C 95.541 84.657 95.356 84.366 95.131 84.162 C 94.905 83.958 94.721 83.701 94.721 83.592 C 94.721 83.482 94.445 82.851 94.109 82.188 C 93.772 81.526 93.565 80.983 93.647 80.981 C 93.73 80.979 93.701 80.91 93.583 80.827 C 93.154 80.526 92.475 79.384 92.05 78.249 C 91.811 77.611 91.52 77.089 91.404 77.089 C 91.287 77.089 91.244 76.95 91.309 76.781 C 91.374 76.612 91.338 76.474 91.229 76.474 C 91.12 76.474 91.03 76.393 91.03 76.294 C 91.03 76.195 90.881 75.756 90.699 75.32 C 90.516 74.883 90.401 74.49 90.442 74.447 C 90.484 74.403 90.312 74.292 90.06 74.198 C 89.733 74.078 89.64 73.924 89.734 73.662 C 89.806 73.461 89.792 73.362 89.703 73.442 C 89.614 73.523 89.346 73.483 89.107 73.353 C 88.868 73.223 88.35 73.046 87.955 72.96 L 87.237 72.802 L 87.955 72.864 C 88.35 72.898 88.834 72.996 89.031 73.081 C 89.604 73.33 89.446 72.875 88.868 72.611 C 88.224 72.318 87.408 72.303 87.235 72.582 C 87.164 72.696 87.031 72.743 86.939 72.687 C 86.848 72.63 86.658 72.859 86.519 73.196 C 86.379 73.533 86.19 73.808 86.098 73.808 C 86.006 73.808 85.814 74.131 85.672 74.526 C 85.529 74.921 85.323 75.243 85.214 75.243 C 85.105 75.243 85.067 75.295 85.13 75.357 C 85.292 75.52 84.103 77.909 83.86 77.909 C 83.748 77.909 83.599 78.139 83.529 78.421 C 83.458 78.703 83.321 78.934 83.224 78.934 C 83.127 78.934 83.1 79.072 83.165 79.241 C 83.23 79.411 83.176 79.549 83.044 79.549 C 82.913 79.549 82.862 79.641 82.932 79.754 C 83.002 79.867 82.961 79.959 82.842 79.959 C 82.723 79.959 82.485 80.259 82.314 80.625 C 82.143 80.992 82.048 81.13 82.102 80.933 C 82.157 80.736 82.112 80.574 82.003 80.574 C 81.894 80.574 81.804 80.433 81.804 80.26 C 81.804 80.087 81.666 79.893 81.498 79.829 C 81.329 79.764 81.24 79.633 81.299 79.537 C 81.487 79.233 81.157 78.319 80.859 78.319 C 80.702 78.319 80.574 78.178 80.574 78.005 C 80.574 77.832 80.436 77.638 80.267 77.573 C 80.097 77.508 79.959 77.355 79.959 77.234 C 79.959 76.965 79.119 75.181 78.925 75.038 C 78.722 74.889 78.114 73.661 78.114 73.4 C 78.114 73.277 77.951 73.002 77.753 72.789 C 77.555 72.576 77.076 71.772 76.689 71.003 C 76.302 70.234 75.832 69.375 75.643 69.093 C 75.455 68.811 75.142 68.096 74.948 67.504 C 74.754 66.912 74.511 66.427 74.407 66.427 C 74.303 66.427 74.218 66.284 74.218 66.108 C 74.218 65.932 74.143 65.835 74.051 65.892 C 73.797 66.049 73.174 64.87 73.316 64.5 C 73.391 64.305 73.31 64.125 73.112 64.05 C 72.931 63.98 72.783 63.76 72.783 63.56 C 72.783 63.361 72.643 63.081 72.471 62.938 C 72.299 62.795 72.207 62.629 72.268 62.569 C 72.388 62.448 71.552 61.491 71.364 61.534 C 71.299 61.549 70.784 61.629 70.22 61.71 M 107.125 78.519 C 106.899 78.615 96.016 89.404 82.94 102.494 C 69.865 115.584 59.072 126.294 58.958 126.294 C 58.843 126.294 59.439 125.579 60.282 124.706 C 61.791 123.142 61.793 123.137 60.436 124.438 C 58.741 126.063 58.784 126.121 59.369 123.014 C 59.634 121.604 59.909 120.036 59.979 119.528 C 60.05 119.021 60.284 117.559 60.5 116.279 C 60.965 113.519 60.95 113.788 60.636 113.788 C 60.462 113.789 60.367 114.198 60.342 115.049 C 60.322 115.742 60.204 116.372 60.079 116.449 C 59.955 116.525 59.912 116.744 59.985 116.933 C 60.058 117.123 60.023 117.393 59.908 117.532 C 59.792 117.672 59.693 118.016 59.687 118.298 C 59.681 118.58 59.622 119.134 59.555 119.528 C 59.488 119.923 59.437 120.454 59.443 120.707 C 59.448 120.961 59.381 121.169 59.295 121.169 C 59.209 121.169 59.174 121.538 59.217 121.989 C 59.261 122.454 59.205 122.809 59.088 122.809 C 58.975 122.809 58.813 123.385 58.729 124.09 C 58.645 124.795 58.553 125.569 58.525 125.811 C 58.485 126.146 58.663 126.336 59.272 126.611 C 59.712 126.809 60.072 127.03 60.072 127.1 C 60.072 127.171 60.325 127.337 60.636 127.469 C 61.658 127.905 63.021 128.742 63.185 129.035 C 63.274 129.194 63.598 129.387 63.905 129.464 C 64.211 129.541 64.682 129.823 64.95 130.092 C 65.219 130.36 65.753 130.684 66.138 130.811 C 66.523 130.938 66.838 131.124 66.838 131.224 C 66.838 131.325 66.979 131.352 67.153 131.286 C 67.326 131.219 67.626 131.307 67.819 131.481 C 68.012 131.655 68.424 131.861 68.734 131.939 C 69.044 132.016 69.298 132.154 69.298 132.246 C 69.298 132.338 69.598 132.517 69.964 132.644 C 70.331 132.771 71.461 133.376 72.476 133.989 C 73.491 134.602 74.713 135.286 75.192 135.51 C 75.671 135.733 76.064 136.011 76.064 136.128 C 76.064 136.245 76.133 136.326 76.217 136.308 C 76.487 136.251 77.185 136.607 77.355 136.889 C 77.445 137.038 77.699 137.16 77.919 137.16 C 78.139 137.16 78.319 137.253 78.319 137.365 C 78.319 137.478 78.46 137.57 78.633 137.57 C 78.805 137.57 79 137.709 79.065 137.878 C 79.13 138.047 79.344 138.186 79.541 138.186 C 79.738 138.186 80.15 138.418 80.456 138.701 C 80.762 138.985 81.087 139.171 81.179 139.114 C 81.271 139.058 81.579 139.194 81.864 139.418 C 82.148 139.642 82.475 139.826 82.589 139.826 C 82.704 139.826 83.562 140.218 84.497 140.697 C 87.007 141.984 88.697 141.957 91.338 140.585 C 92.353 140.058 93.298 139.625 93.439 139.624 C 93.58 139.622 93.696 139.528 93.696 139.416 C 93.696 139.303 93.926 139.211 94.208 139.211 C 94.49 139.211 94.721 139.126 94.721 139.022 C 94.721 138.918 94.997 138.772 95.336 138.698 C 95.692 138.62 95.951 138.431 95.951 138.25 C 95.951 138.056 96.068 137.982 96.258 138.055 C 96.427 138.12 96.566 138.078 96.566 137.962 C 96.566 137.846 96.648 137.802 96.749 137.865 C 96.85 137.927 96.988 137.834 97.055 137.659 C 97.123 137.483 97.265 137.393 97.372 137.459 C 97.479 137.525 97.661 137.416 97.777 137.216 C 97.893 137.016 97.991 136.926 97.995 137.015 C 97.998 137.104 98.203 136.988 98.45 136.758 C 98.697 136.528 99.019 136.34 99.167 136.34 C 99.315 136.34 99.436 136.248 99.436 136.135 C 99.436 136.023 99.519 135.93 99.62 135.93 C 99.721 135.93 100.39 135.575 101.107 135.14 C 101.823 134.706 103.516 133.766 104.869 133.053 C 106.222 132.339 107.606 131.588 107.945 131.383 C 108.283 131.179 108.721 131.011 108.919 131.011 C 109.116 131.01 109.277 130.928 109.277 130.829 C 109.277 130.65 109.948 130.358 110.465 130.312 C 110.61 130.299 110.815 130.151 110.919 129.983 C 111.023 129.815 111.18 129.669 111.269 129.66 C 111.721 129.612 112.516 129.159 112.618 128.892 C 112.683 128.725 113.018 128.526 113.364 128.45 C 113.71 128.374 113.993 128.242 113.993 128.158 C 113.993 128.073 114.649 127.644 115.451 127.204 C 116.805 126.462 117.653 125.498 117.111 125.317 C 117.007 125.283 116.968 125.018 117.024 124.728 C 117.085 124.407 117.013 124.13 116.84 124.02 C 116.683 123.921 116.658 123.839 116.783 123.837 C 116.915 123.835 116.97 123.619 116.914 123.324 C 116.86 123.043 116.735 122.864 116.635 122.926 C 116.535 122.988 116.453 122.94 116.453 122.821 C 116.453 122.701 116.533 122.604 116.63 122.604 C 116.727 122.604 116.762 122.374 116.709 122.094 C 116.655 121.813 116.53 121.634 116.43 121.696 C 116.33 121.757 116.248 121.664 116.248 121.488 C 116.248 121.312 116.332 121.169 116.434 121.169 C 116.536 121.169 116.572 120.985 116.513 120.761 C 116.454 120.537 116.325 120.404 116.225 120.465 C 115.97 120.623 115.999 120.414 116.299 119.929 C 116.508 119.592 116.503 119.483 116.27 119.338 C 116.102 119.234 116.031 118.982 116.097 118.73 C 116.159 118.493 116.129 118.249 116.031 118.188 C 115.932 118.127 115.909 117.79 115.979 117.438 C 116.066 117.004 116.036 116.843 115.884 116.937 C 115.562 117.136 115.352 116.689 115.618 116.369 C 115.785 116.167 115.762 116.031 115.528 115.836 C 115.355 115.693 115.26 115.427 115.316 115.245 C 115.373 115.064 115.334 114.78 115.23 114.615 C 115.11 114.423 115.125 114.213 115.273 114.035 C 115.445 113.827 115.442 113.718 115.261 113.607 C 115.128 113.524 114.967 113.001 114.904 112.443 C 114.841 111.886 114.617 110.692 114.405 109.79 C 114.194 108.888 113.961 107.596 113.888 106.92 C 113.815 106.243 113.613 104.951 113.438 104.049 C 112.916 101.357 112.893 101.047 113.199 100.828 C 113.423 100.669 113.413 100.649 113.149 100.732 C 112.875 100.819 112.796 100.602 112.691 99.47 C 112.621 98.719 112.424 97.569 112.253 96.915 C 111.896 95.547 111.851 94.516 112.148 94.516 C 112.26 94.516 112.353 94.414 112.353 94.289 C 112.353 94.164 112.214 94.115 112.045 94.18 C 111.839 94.259 111.738 94.171 111.738 93.911 C 111.738 93.699 111.853 93.481 111.994 93.429 C 112.179 93.359 112.153 93.255 111.899 93.053 C 111.557 92.781 111.287 91.349 111.295 89.851 C 111.297 89.485 111.213 89.185 111.108 89.185 C 111.003 89.185 110.917 89.047 110.917 88.877 C 110.917 88.708 110.994 88.57 111.088 88.57 C 111.182 88.57 111.259 88.432 111.259 88.262 C 111.259 88.093 111.136 87.955 110.986 87.955 C 110.835 87.955 110.712 87.811 110.712 87.635 C 110.712 87.459 110.805 87.373 110.917 87.442 C 111.03 87.512 111.123 87.435 111.123 87.271 C 111.123 87.108 110.974 86.917 110.792 86.847 C 110.593 86.77 110.5 86.569 110.56 86.341 C 110.614 86.133 110.574 85.811 110.47 85.626 C 110.33 85.375 110.366 85.29 110.614 85.29 C 110.917 85.29 110.917 85.26 110.625 84.967 C 110.287 84.63 110.228 84.415 110.296 83.775 C 110.319 83.562 110.214 83.308 110.064 83.211 C 109.889 83.099 109.864 82.978 109.995 82.881 C 110.344 82.619 110.34 81.802 109.991 81.937 C 109.8 82.01 109.687 81.93 109.687 81.724 C 109.687 81.542 109.764 81.394 109.858 81.394 C 109.952 81.394 110.029 81.256 110.029 81.087 C 110.029 80.917 109.904 80.779 109.752 80.779 C 109.563 80.779 109.513 80.625 109.596 80.297 C 109.854 79.266 108.187 78.067 107.125 78.519 M 61.753 106.459 C 61.562 106.69 61.552 106.82 61.716 106.922 C 62.019 107.109 62.174 106.931 62.089 106.494 C 62.026 106.173 61.993 106.17 61.753 106.459 M 61.445 107.589 C 61.153 107.654 61.125 107.732 61.314 107.959 C 61.45 108.123 61.486 108.402 61.397 108.608 C 61.311 108.807 61.261 109.176 61.286 109.428 C 61.31 109.679 61.258 110.002 61.17 110.145 C 61.082 110.288 61.036 110.658 61.069 110.969 C 61.101 111.279 61.034 111.533 60.92 111.533 C 60.806 111.533 60.73 111.786 60.751 112.096 C 60.775 112.444 60.694 112.641 60.54 112.611 C 60.397 112.583 60.341 112.691 60.409 112.868 C 60.737 113.724 61.037 113.011 61.461 110.368 C 61.708 108.825 61.889 107.55 61.863 107.535 C 61.836 107.52 61.648 107.544 61.445 107.589 M 67.449 117.427 L 65.3 119.631 L 67.504 117.482 C 69.551 115.486 69.801 115.223 69.653 115.223 C 69.623 115.223 68.631 116.215 67.449 117.427" stroke-linecap="round" />
</g>
		<g transform="matrix(1 0 0 1 -115.52 2.96)" id="path1"  >
<path style="stroke: none; stroke-width: 1; stroke-dasharray: none; stroke-linecap: butt; stroke-dashoffset: 0; stroke-linejoin: miter; stroke-miterlimit: 4; fill: rgb(244,134,12); fill-rule: evenodd; opacity: 1;"  transform=" translate(-84.48, -105.46)" d="M 67.046 69.452 C 67.044 69.705 67.135 69.913 67.248 69.913 C 67.504 69.913 67.504 69.695 67.248 69.298 C 67.087 69.049 67.048 69.079 67.046 69.452 M 87.063 73.631 C 86.854 73.753 86.459 74.327 86.186 74.907 C 85.912 75.487 85.424 76.422 85.1 76.986 C 84.776 77.55 84.318 78.38 84.081 78.831 C 82.578 81.692 82.03 82.058 81.32 80.677 C 81.088 80.226 80.785 79.74 80.646 79.598 C 80.508 79.456 80.278 79.018 80.135 78.624 C 79.993 78.231 79.798 77.909 79.703 77.909 C 79.607 77.909 79.621 78.07 79.735 78.268 C 79.909 78.571 78.702 79.869 71.974 86.622 L 64.007 94.618 L 63.552 97.693 C 63.302 99.385 63.101 100.907 63.105 101.076 C 63.11 101.246 63.025 101.62 62.916 101.909 C 62.808 102.199 62.603 103.167 62.462 104.062 C 62.295 105.114 62.117 105.671 61.958 105.638 C 61.823 105.61 61.712 105.771 61.712 105.997 C 61.712 106.222 61.604 106.407 61.473 106.407 C 61.341 106.407 61.293 106.466 61.365 106.539 C 61.438 106.611 61.638 106.554 61.809 106.411 C 62.074 106.192 62.122 106.223 62.122 106.609 C 62.122 106.931 62.031 107.031 61.814 106.948 C 61.603 106.867 61.507 106.96 61.507 107.246 C 61.507 107.506 61.595 107.607 61.742 107.516 C 61.907 107.414 61.941 107.548 61.856 107.965 C 61.79 108.292 61.576 109.598 61.382 110.866 C 61.135 112.474 60.945 113.173 60.755 113.173 C 60.436 113.173 60.383 113.721 60.691 113.823 C 60.826 113.868 60.757 114.762 60.494 116.352 C 60.271 117.704 60.048 119.088 59.999 119.426 C 59.623 122.005 58.95 125.246 58.711 125.628 C 58.552 125.882 58.484 126.089 58.56 126.089 C 58.878 126.089 67.221 117.599 67.104 117.394 C 67.034 117.271 67.054 117.241 67.149 117.327 C 67.376 117.533 68.501 116.451 68.336 116.185 C 68.266 116.072 68.299 116.035 68.408 116.102 C 68.668 116.263 83.304 101.62 83.094 101.409 C 83.005 101.32 83.052 101.278 83.199 101.316 C 83.346 101.353 86.446 98.342 90.087 94.625 L 96.709 87.866 L 96.051 86.834 C 95.69 86.266 95.118 85.249 94.78 84.572 C 94.443 83.895 93.862 82.788 93.49 82.112 C 93.118 81.435 92.18 79.636 91.406 78.114 C 90.631 76.591 89.917 75.245 89.818 75.122 C 89.719 74.998 89.494 74.617 89.317 74.275 C 88.863 73.398 87.925 73.13 87.063 73.631 M 63.593 92.57 C 63.566 92.966 63.466 93.708 63.37 94.219 C 63.246 94.886 63.262 95.125 63.428 95.067 C 63.556 95.022 63.634 94.748 63.603 94.458 C 63.572 94.168 63.638 93.875 63.75 93.806 C 63.862 93.736 63.899 93.406 63.832 93.073 C 63.757 92.696 63.796 92.465 63.935 92.465 C 64.058 92.465 64.106 92.327 64.041 92.158 C 63.841 91.635 63.643 91.817 63.593 92.57 M 63.147 95.939 C 63.147 96.171 63.239 96.361 63.352 96.361 C 63.465 96.361 63.557 96.228 63.557 96.065 C 63.557 95.903 63.465 95.713 63.352 95.643 C 63.239 95.574 63.147 95.707 63.147 95.939 M 87.812 96.722 C 87.158 97.372 86.579 97.875 86.527 97.84 C 86.417 97.766 88.694 95.541 88.88 95.541 C 88.947 95.541 88.467 96.072 87.812 96.722 M 62.192 102.665 C 62.176 103.491 62.196 103.546 62.328 103.024 C 62.545 102.167 62.56 101.691 62.372 101.691 C 62.283 101.691 62.203 102.13 62.192 102.665 M 80.36 104.161 C 79.32 105.198 78.542 105.92 78.631 105.765 C 78.852 105.381 82.095 102.138 82.181 102.214 C 82.22 102.248 81.4 103.124 80.36 104.161 M 61.917 104.357 C 61.917 104.695 61.953 104.972 61.996 104.972 C 62.04 104.972 62.116 104.695 62.166 104.357 C 62.215 104.018 62.18 103.742 62.086 103.742 C 61.993 103.742 61.917 104.018 61.917 104.357 M 61.17 108.336 C 61.186 108.607 61.269 108.785 61.353 108.733 C 61.566 108.602 61.546 108.096 61.324 107.958 C 61.223 107.896 61.154 108.066 61.17 108.336 M 71.882 112.626 C 70.573 113.919 69.503 114.917 69.503 114.844 C 69.503 114.666 74.096 110.123 74.188 110.209 C 74.228 110.246 73.19 111.334 71.882 112.626 M 64.953 119.563 C 64.241 120.259 63.115 121.389 62.449 122.075 C 61.784 122.76 61.34 123.137 61.463 122.911 C 61.714 122.451 65.897 118.298 66.11 118.298 C 66.184 118.298 65.664 118.867 64.953 119.563 M 59.047 120.746 C 59.047 120.979 59.139 121.169 59.252 121.169 C 59.364 121.169 59.457 121.036 59.457 120.873 C 59.457 120.711 59.364 120.521 59.252 120.451 C 59.139 120.381 59.047 120.514 59.047 120.746 M 109.687 130.514 C 109.401 130.673 109.311 130.797 109.482 130.795 C 109.651 130.793 109.969 130.656 110.188 130.491 C 110.681 130.117 110.377 130.132 109.687 130.514 M 107.791 131.465 C 107.368 131.71 107.022 131.999 107.022 132.107 C 107.022 132.215 107.183 132.162 107.381 131.99 C 107.578 131.818 108.086 131.566 108.508 131.43 C 108.931 131.294 109.277 131.144 109.277 131.096 C 109.277 130.868 108.48 131.065 107.791 131.465 M 105.741 132.562 C 105.117 132.901 105.051 132.992 105.433 132.991 C 105.574 132.991 105.867 132.822 106.084 132.615 C 106.556 132.166 106.489 132.156 105.741 132.562 M 69.298 132.602 C 69.298 132.704 69.413 132.787 69.554 132.789 C 69.695 132.79 70.041 132.856 70.323 132.935 C 70.675 133.034 70.739 133.02 70.528 132.89 C 70.016 132.573 69.298 132.405 69.298 132.602 M 71.319 133.458 C 71.586 133.69 71.901 133.88 72.02 133.88 C 72.272 133.88 72.26 133.87 71.451 133.396 L 70.835 133.036 L 71.319 133.458 M 103.844 133.578 C 103.393 133.856 103.116 134.081 103.229 134.078 C 103.342 134.075 103.803 133.845 104.254 133.567 C 104.705 133.289 104.982 133.064 104.869 133.067 C 104.757 133.07 104.295 133.3 103.844 133.578 M 101.843 134.678 C 100.595 135.411 100.317 135.697 101.384 135.151 C 102.176 134.747 103.132 134.094 102.922 134.102 C 102.865 134.104 102.38 134.363 101.843 134.678 M 98.529 136.652 C 98.311 136.817 98.185 137.003 98.248 137.066 C 98.311 137.128 98.49 137.052 98.647 136.896 C 98.803 136.739 99.068 136.558 99.235 136.492 C 99.501 136.388 99.501 136.372 99.231 136.363 C 99.062 136.358 98.746 136.488 98.529 136.652 M 79.829 138.494 C 80.576 138.884 80.766 138.887 80.254 138.5 C 80.036 138.334 79.718 138.196 79.549 138.193 C 79.38 138.19 79.506 138.326 79.829 138.494 M 81.189 139.203 C 81.189 139.32 81.328 139.416 81.497 139.416 C 81.666 139.416 81.804 139.508 81.804 139.621 C 81.804 139.733 81.902 139.826 82.021 139.826 C 82.322 139.826 82.068 139.462 81.588 139.205 C 81.314 139.058 81.189 139.058 81.189 139.203 M 93.696 139.416 C 93.696 139.528 93.534 139.628 93.337 139.637 C 93.131 139.646 93.085 139.697 93.229 139.755 C 93.367 139.811 93.687 139.711 93.941 139.534 C 94.318 139.27 94.337 139.211 94.049 139.211 C 93.854 139.211 93.696 139.303 93.696 139.416 M 91.133 140.689 C 90.571 141.053 90.562 141.075 91.03 140.946 C 91.571 140.797 91.986 140.501 91.837 140.37 C 91.788 140.327 91.471 140.471 91.133 140.689 M 89.834 141.309 C 89.55 141.593 86.989 141.662 86.007 141.412 C 85.459 141.272 85.437 141.283 85.802 141.514 C 86.451 141.924 89.378 141.855 89.999 141.415 C 90.278 141.217 90.412 141.056 90.297 141.056 C 90.181 141.056 89.973 141.17 89.834 141.309" stroke-linecap="round" />
</g>
		<g transform="matrix(1 0 0 1 -111.93 -0.96)" id="path2"  >
<path style="stroke: none; stroke-width: 1; stroke-dasharray: none; stroke-linecap: butt; stroke-dashoffset: 0; stroke-linejoin: miter; stroke-miterlimit: 4; fill: rgb(228,116,6); fill-rule: evenodd; opacity: 1;"  transform=" translate(-88.07, -101.54)" d="M 69.708 61.178 C 69.708 61.222 70.077 61.294 70.528 61.337 C 70.979 61.38 71.348 61.344 71.348 61.256 C 71.348 61.169 70.979 61.097 70.528 61.097 C 70.077 61.097 69.708 61.133 69.708 61.178 M 68.043 64.537 C 67.976 64.945 68.006 65.136 68.12 65.022 C 68.223 64.919 68.273 64.616 68.231 64.35 C 68.167 63.939 68.138 63.968 68.043 64.537 M 75.186 68.016 C 75.401 68.592 76.062 69.626 76.063 69.388 C 76.063 69.269 75.928 68.992 75.763 68.773 C 75.597 68.554 75.459 68.214 75.455 68.016 C 75.451 67.819 75.359 67.658 75.25 67.658 C 75.141 67.658 75.112 67.819 75.186 68.016 M 76.738 71.011 C 76.987 71.503 77.229 71.872 77.276 71.832 C 77.397 71.728 76.605 70.123 76.43 70.12 C 76.35 70.119 76.489 70.52 76.738 71.011 M 85.958 73.539 C 85.606 74.297 85.748 74.334 86.183 73.597 C 86.381 73.262 86.469 72.989 86.378 72.99 C 86.287 72.991 86.098 73.238 85.958 73.539 M 78.524 74.495 C 78.524 74.534 78.708 74.778 78.934 75.038 C 79.388 75.562 79.49 75.351 79.059 74.782 C 78.815 74.462 78.524 74.305 78.524 74.495 M 84.059 77.072 C 84.059 77.175 83.998 77.421 83.922 77.618 C 83.836 77.843 83.865 77.927 84 77.843 C 84.283 77.668 84.484 76.884 84.245 76.884 C 84.143 76.884 84.059 76.968 84.059 77.072 M 92.503 79.242 C 92.632 79.525 92.777 79.716 92.825 79.668 C 92.97 79.523 92.658 78.729 92.456 78.729 C 92.353 78.729 92.374 78.96 92.503 79.242 M 94.48 82.958 C 94.934 83.785 95.39 84.234 95.04 83.509 C 94.866 83.149 94.621 82.792 94.497 82.715 C 94.334 82.615 94.329 82.684 94.48 82.958 M 87.594 96.658 C 86.955 97.273 86.474 97.805 86.527 97.84 C 86.579 97.875 87.158 97.372 87.812 96.722 C 88.467 96.072 88.947 95.541 88.88 95.541 C 88.812 95.541 88.234 96.044 87.594 96.658 M 62.578 98.499 C 62.6 98.773 62.692 98.952 62.781 98.897 C 63.014 98.752 62.979 98.001 62.739 98.001 C 62.628 98.001 62.555 98.225 62.578 98.499 M 62.327 99.641 C 62.327 99.867 62.419 100.051 62.532 100.051 C 62.645 100.051 62.737 99.867 62.737 99.641 C 62.737 99.416 62.645 99.231 62.532 99.231 C 62.419 99.231 62.327 99.416 62.327 99.641 M 62.265 100.747 C 62.181 100.96 62.161 101.183 62.22 101.242 C 62.407 101.429 62.571 101.123 62.493 100.734 C 62.421 100.377 62.41 100.377 62.265 100.747 M 80.452 103.819 C 79.539 104.735 78.72 105.611 78.631 105.765 C 78.542 105.92 79.32 105.198 80.36 104.161 C 81.4 103.124 82.22 102.248 82.181 102.214 C 82.143 102.18 81.365 102.903 80.452 103.819 M 61.917 103.229 C 61.917 103.511 61.996 103.742 62.094 103.742 C 62.191 103.742 62.226 103.511 62.172 103.229 C 62.118 102.947 62.039 102.717 61.996 102.717 C 61.952 102.717 61.917 102.947 61.917 103.229 M 60.906 109.472 C 60.895 110.011 60.949 110.122 61.131 109.94 C 61.308 109.763 61.312 109.579 61.145 109.233 C 60.933 108.793 60.919 108.808 60.906 109.472 M 71.809 112.426 C 70.541 113.683 69.503 114.771 69.503 114.844 C 69.503 114.917 70.573 113.919 71.882 112.626 C 73.19 111.334 74.228 110.246 74.188 110.209 C 74.148 110.172 73.078 111.17 71.809 112.426 M 60.083 115.223 C 59.877 115.694 59.872 116.525 60.076 116.323 C 60.206 116.195 60.27 115.872 60.22 115.605 C 60.169 115.339 60.107 115.167 60.083 115.223 M 63.83 120.4 C 62.651 121.556 61.586 122.686 61.463 122.911 C 61.34 123.137 61.784 122.76 62.449 122.075 C 63.115 121.389 64.241 120.259 64.953 119.563 C 65.664 118.867 66.184 118.298 66.11 118.298 C 66.035 118.298 65.009 119.244 63.83 120.4 M 59.003 121.989 C 58.953 122.327 58.989 122.604 59.082 122.604 C 59.175 122.604 59.252 122.327 59.252 121.989 C 59.252 121.65 59.216 121.374 59.172 121.374 C 59.129 121.374 59.053 121.65 59.003 121.989 M 116.504 126.635 C 116.221 126.749 116.152 127.114 116.414 127.114 C 116.505 127.114 116.759 126.979 116.978 126.813 C 117.382 126.507 117.092 126.398 116.504 126.635 M 59.252 126.898 C 59.252 127.017 59.393 127.114 59.566 127.114 C 59.738 127.114 59.933 127.253 59.998 127.422 C 60.063 127.591 60.198 127.729 60.299 127.729 C 60.673 127.729 60.463 127.397 59.867 127.044 C 59.527 126.844 59.252 126.778 59.252 126.898 M 68.683 132.201 C 68.683 132.311 68.829 132.457 69.007 132.526 C 69.207 132.602 69.301 132.556 69.251 132.407 C 69.149 132.1 68.683 131.931 68.683 132.201 M 106.296 132.452 C 105.962 132.672 105.828 132.85 105.997 132.847 C 106.352 132.841 107.141 132.291 106.999 132.148 C 106.946 132.096 106.63 132.232 106.296 132.452 M 70.91 133.418 C 71.036 133.654 71.417 133.908 71.755 133.982 C 72.094 134.056 72.44 134.225 72.526 134.357 C 72.847 134.856 74.213 135.394 73.909 134.902 C 73.838 134.787 73.711 134.736 73.628 134.788 C 73.544 134.839 73.213 134.656 72.892 134.381 C 72.572 134.105 72.198 133.88 72.061 133.88 C 71.925 133.88 71.558 133.68 71.247 133.435 C 70.686 132.994 70.683 132.993 70.91 133.418 M 104.24 133.577 C 103.277 134.169 103.542 134.247 104.63 133.693 C 105.053 133.477 105.32 133.251 105.223 133.191 C 105.126 133.131 104.684 133.305 104.24 133.577 M 102.312 134.608 C 101.921 134.884 101.703 135.11 101.828 135.11 C 102.116 135.11 103.301 134.499 103.024 134.493 C 102.911 134.491 102.957 134.399 103.127 134.29 C 103.296 134.181 103.342 134.094 103.229 134.098 C 103.116 134.102 102.704 134.331 102.312 134.608 M 100.433 135.715 C 99.96 136.105 99.959 136.111 100.396 136.002 C 100.642 135.94 100.893 135.761 100.953 135.603 C 101.1 135.22 101.008 135.24 100.433 135.715 M 74.833 135.687 C 74.833 135.771 75.133 135.969 75.5 136.126 C 75.866 136.283 76.258 136.454 76.371 136.506 C 76.484 136.558 76.345 136.42 76.064 136.198 C 75.467 135.729 74.833 135.466 74.833 135.687 M 82.624 140.118 C 82.624 140.166 82.901 140.344 83.239 140.513 C 83.906 140.845 84.11 140.592 83.458 140.243 C 83.052 140.026 82.624 139.962 82.624 140.118 M 91.967 140.353 C 91.52 140.8 91.563 140.85 92.156 140.575 C 92.437 140.445 92.668 140.269 92.669 140.185 C 92.672 139.926 92.307 140.013 91.967 140.353 M 84.782 141.253 C 84.352 141.949 88.863 142.294 90.02 141.654 C 90.294 141.503 90.587 141.398 90.671 141.422 C 90.756 141.446 90.825 141.374 90.825 141.261 C 90.825 140.962 90.573 141.009 89.999 141.415 C 89.618 141.685 89.084 141.773 87.843 141.773 C 86.618 141.773 86.053 141.681 85.647 141.415 C 85.013 140.999 84.946 140.987 84.782 141.253" stroke-linecap="round" />
</g>
		<g transform="matrix(1 0 0 1 -112.56 -8.41)" id="path3"  >
<path style="stroke: none; stroke-width: 1; stroke-dasharray: none; stroke-linecap: butt; stroke-dashoffset: 0; stroke-linejoin: miter; stroke-miterlimit: 4; fill: rgb(252,209,79); fill-rule: evenodd; opacity: 1;"  transform=" translate(-87.44, -94.09)" d="M 69.321 61.693 C 69.147 61.804 69.402 61.832 69.984 61.766 C 70.661 61.69 71.092 61.758 71.498 62.005 L 72.066 62.351 L 71.582 61.929 C 71.077 61.489 69.847 61.36 69.321 61.693 M 73.195 64.736 C 73.197 64.987 74.009 66.138 74.026 65.915 C 74.035 65.802 74.121 65.894 74.218 66.12 C 74.35 66.425 74.398 66.446 74.409 66.203 C 74.417 66.023 74.239 65.709 74.013 65.505 C 73.788 65.301 73.603 65.01 73.603 64.858 C 73.603 64.706 73.511 64.582 73.398 64.582 C 73.285 64.582 73.194 64.651 73.195 64.736 M 87.955 72.974 C 88.35 73.053 88.88 73.23 89.134 73.368 C 89.387 73.505 89.595 73.541 89.595 73.447 C 89.595 73.21 88.34 72.778 87.735 72.807 C 87.369 72.824 87.427 72.868 87.955 72.974 M 65.812 77.806 C 65.812 77.975 65.905 78.114 66.017 78.114 C 66.13 78.114 66.222 77.975 66.222 77.806 C 66.222 77.637 66.13 77.499 66.017 77.499 C 65.905 77.499 65.812 77.637 65.812 77.806 M 106.715 78.015 C 106.376 78.168 105.085 79.319 103.844 80.573 C 102.604 81.827 100.637 83.793 99.473 84.942 C 98.308 86.092 97.232 87.263 97.08 87.545 C 96.928 87.827 88.17 96.729 77.617 107.327 C 67.065 117.926 58.432 126.627 58.432 126.662 C 58.432 126.959 62.284 123.162 83.137 102.31 C 109.364 76.085 107.655 77.628 108.953 79.004 C 109.478 79.561 109.676 79.668 109.764 79.44 C 109.827 79.275 109.78 79.139 109.659 79.139 C 109.538 79.139 109.493 78.996 109.561 78.821 C 109.631 78.638 109.596 78.556 109.48 78.628 C 109.368 78.697 109.277 78.632 109.276 78.485 C 109.272 77.821 107.758 77.543 106.715 78.015 M 109.613 80.306 C 109.383 80.537 109.473 80.779 109.79 80.779 C 109.959 80.779 110.097 80.692 110.097 80.586 C 110.097 80.328 109.777 80.142 109.613 80.306 M 109.687 81.702 C 109.687 81.89 109.787 82.01 109.908 81.97 C 110.029 81.93 110.128 81.809 110.128 81.702 C 110.128 81.595 110.029 81.474 109.908 81.433 C 109.787 81.393 109.687 81.514 109.687 81.702 M 110.544 86.452 C 110.58 86.64 110.725 86.832 110.866 86.879 C 111.243 87.004 111.179 86.38 110.8 86.235 C 110.575 86.149 110.498 86.214 110.544 86.452 M 110.712 87.654 C 110.712 87.819 110.851 87.955 111.02 87.955 C 111.189 87.955 111.328 87.873 111.328 87.772 C 111.328 87.671 111.189 87.536 111.02 87.471 C 110.833 87.399 110.712 87.47 110.712 87.654 M 110.917 88.877 C 110.917 89.047 111.01 89.185 111.123 89.185 C 111.235 89.185 111.328 89.047 111.328 88.877 C 111.328 88.708 111.235 88.57 111.123 88.57 C 111.01 88.57 110.917 88.708 110.917 88.877 M 111.126 90.044 C 111.132 90.559 111.526 90.983 111.529 90.479 C 111.531 90.231 111.44 89.972 111.328 89.903 C 111.215 89.833 111.124 89.897 111.126 90.044 M 111.453 91.902 C 111.516 92.268 111.603 92.683 111.646 92.824 C 111.756 93.184 112.148 93.144 112.148 92.773 C 112.148 92.604 112.044 92.465 111.917 92.465 C 111.77 92.465 111.731 92.242 111.809 91.85 C 111.901 91.393 111.856 91.235 111.635 91.235 C 111.413 91.235 111.367 91.403 111.453 91.902 M 111.738 93.894 C 111.738 94.169 111.836 94.26 112.045 94.18 C 112.214 94.115 112.353 93.933 112.353 93.776 C 112.353 93.619 112.214 93.491 112.045 93.491 C 111.876 93.491 111.738 93.672 111.738 93.894 M 111.943 95.114 C 111.943 95.443 112.077 96.251 112.241 96.908 C 112.405 97.566 112.678 99.118 112.847 100.359 C 113.016 101.599 113.285 103.26 113.445 104.049 C 113.605 104.839 113.798 106.084 113.876 106.817 C 113.953 107.55 114.191 108.888 114.405 109.79 C 114.745 111.221 114.953 112.452 115.003 113.326 C 115.011 113.467 115.123 113.583 115.252 113.583 C 115.524 113.583 115.342 111.211 115.042 110.836 C 114.862 110.611 114.533 108.374 114.292 105.741 C 114.222 104.979 114.095 104.357 114.01 104.357 C 113.924 104.357 113.737 103.573 113.595 102.614 C 113.443 101.596 113.238 100.87 113.1 100.868 C 112.951 100.866 112.965 100.802 113.137 100.693 C 113.441 100.5 113.055 97.181 112.727 97.181 C 112.634 97.181 112.558 96.956 112.558 96.68 C 112.558 96.405 112.463 96.121 112.346 96.049 C 112.224 95.974 112.19 95.624 112.267 95.217 C 112.352 94.76 112.319 94.516 112.17 94.516 C 112.045 94.516 111.943 94.785 111.943 95.114 M 115.165 114.119 C 115.092 114.192 115.121 114.417 115.229 114.62 C 115.338 114.823 115.377 115.119 115.315 115.278 C 115.254 115.437 115.35 115.688 115.529 115.836 C 115.819 116.077 115.839 116.011 115.717 115.203 C 115.574 114.258 115.389 113.895 115.165 114.119 M 115.533 116.449 C 115.45 116.584 115.474 116.786 115.587 116.899 C 115.854 117.166 116.066 116.822 115.85 116.473 C 115.724 116.269 115.648 116.263 115.533 116.449 M 116.043 119.016 C 116.043 119.185 116.135 119.323 116.248 119.323 C 116.361 119.323 116.453 119.185 116.453 119.016 C 116.453 118.847 116.361 118.708 116.248 118.708 C 116.135 118.708 116.043 118.847 116.043 119.016" stroke-linecap="round" />
</g>
		<g transform="matrix(1 0 0 1 0.85 -8.07)" id="path4"  >
<path style="stroke: none; stroke-width: 1; stroke-dasharray: none; stroke-linecap: butt; stroke-dashoffset: 0; stroke-linejoin: miter; stroke-miterlimit: 4; fill: rgb(4,4,4); fill-rule: evenodd; opacity: 1;"  transform=" translate(-200.85, -94.43)" d="M 70.069 61.037 C 70.324 61.086 70.693 61.084 70.889 61.033 C 71.085 60.981 70.876 60.941 70.425 60.944 C 69.974 60.946 69.814 60.988 70.069 61.037 M 71.348 61.245 C 71.348 61.503 71.934 62.014 72.072 61.877 C 72.126 61.822 71.986 61.61 71.759 61.406 C 71.533 61.201 71.348 61.129 71.348 61.245 M 68.314 62.163 C 68.024 62.452 67.992 62.737 68.249 62.737 C 68.348 62.737 68.478 62.553 68.537 62.327 C 68.662 61.848 68.643 61.834 68.314 62.163 M 66.844 70.62 C 66.839 71.061 66.899 71.164 67.064 70.999 C 67.226 70.837 67.228 70.665 67.07 70.394 C 66.877 70.062 66.849 70.09 66.844 70.62 M 65.921 76.944 C 65.834 77.146 65.819 77.369 65.89 77.439 C 66.098 77.647 66.266 77.355 66.17 76.951 C 66.085 76.593 66.074 76.592 65.921 76.944 M 107.227 77.484 C 107.227 77.588 107.066 77.707 106.868 77.747 C 106.671 77.788 107.026 77.818 107.657 77.814 C 108.602 77.808 108.747 77.762 108.477 77.556 C 108.09 77.261 107.227 77.211 107.227 77.484 M 169.144 81.995 C 169.144 82.101 168.983 82.238 168.785 82.302 C 165.412 83.384 166.442 89.8 169.989 89.8 C 170.201 89.8 170.374 89.892 170.374 90.005 C 170.374 90.118 170.553 90.21 170.772 90.21 C 170.991 90.21 171.227 90.118 171.297 90.005 C 171.366 89.892 171.599 89.8 171.813 89.8 C 172.502 89.8 173.556 89.118 174.177 88.269 C 174.818 87.393 175.098 84.259 174.567 83.898 C 174.449 83.818 174.15 83.462 173.903 83.108 C 173.656 82.754 173.222 82.407 172.939 82.336 C 172.656 82.265 172.424 82.116 172.424 82.005 C 172.424 81.891 171.72 81.804 170.784 81.804 C 169.882 81.804 169.144 81.89 169.144 81.995 M 139.416 103.537 L 139.416 124.859 L 142.389 124.859 L 145.361 124.859 L 145.361 115.838 L 145.361 106.817 L 153.972 106.817 L 162.583 106.817 L 162.583 103.947 C 162.583 101.789 162.52 101.075 162.327 101.072 C 162.186 101.07 158.311 101.072 153.716 101.076 L 145.361 101.085 L 145.361 94.624 L 145.361 88.164 L 154.946 88.111 L 164.531 88.057 L 164.588 85.136 L 164.645 82.214 L 152.03 82.214 L 139.416 82.214 L 139.416 103.537 M 227.166 103.537 L 227.166 124.859 L 230.036 124.859 L 232.906 124.859 L 232.906 123.18 C 232.906 121.52 232.911 121.506 233.296 121.92 C 233.92 122.589 235.493 123.834 235.715 123.834 C 235.827 123.834 236.113 124.002 236.35 124.208 C 236.587 124.413 237.178 124.699 237.663 124.843 C 238.148 124.986 238.708 125.19 238.909 125.294 C 240.149 125.942 245.564 125.917 245.788 125.263 C 245.826 125.154 246.103 125.065 246.404 125.067 C 247.672 125.074 252.793 121.611 252.793 120.746 C 252.793 120.65 253.014 120.327 253.283 120.027 C 254.19 119.016 254.33 118.81 254.738 117.887 C 254.961 117.38 255.248 116.857 255.374 116.724 C 255.501 116.592 255.764 115.577 255.958 114.469 C 256.153 113.361 256.397 112.295 256.5 112.099 C 256.758 111.612 256.744 108.252 256.484 108.252 C 256.371 108.252 256.279 107.964 256.279 107.611 C 256.279 106.756 255.467 103.332 255.264 103.332 C 255.176 103.332 254.946 102.916 254.752 102.409 C 254.558 101.902 254.329 101.486 254.243 101.486 C 254.156 101.486 253.919 101.117 253.716 100.666 C 253.513 100.215 253.222 99.846 253.07 99.846 C 252.918 99.846 252.793 99.756 252.793 99.646 C 252.793 99.02 249.139 95.951 248.393 95.951 C 248.22 95.951 248.078 95.871 248.078 95.774 C 248.078 95.468 246.394 94.946 244.946 94.801 C 244.181 94.725 243.507 94.584 243.447 94.487 C 243.304 94.255 241.573 94.259 241.43 94.491 C 241.368 94.591 240.694 94.735 239.931 94.811 C 238.536 94.95 235.161 96.347 235.161 96.785 C 235.161 96.89 235.031 96.976 234.872 96.976 C 234.713 96.976 234.365 97.23 234.098 97.54 C 232.942 98.884 233.003 99.307 233.075 90.398 L 233.14 82.214 L 230.153 82.214 L 227.166 82.214 L 227.166 103.537 M 110.302 83.198 C 110.302 83.559 110.396 83.854 110.511 83.854 C 110.629 83.854 110.667 84.068 110.597 84.345 C 110.524 84.634 110.577 84.899 110.726 84.991 C 110.92 85.111 110.945 84.891 110.833 84.039 C 110.665 82.764 110.302 82.189 110.302 83.198 M 111.533 90.723 C 111.533 91.005 111.625 91.235 111.738 91.235 C 111.85 91.235 111.943 91.005 111.943 90.723 C 111.943 90.441 111.85 90.21 111.738 90.21 C 111.625 90.21 111.533 90.441 111.533 90.723 M 208.419 94.495 C 208.356 94.596 207.636 94.741 206.818 94.818 C 205.829 94.911 204.906 95.158 204.062 95.556 C 203.364 95.886 202.696 96.156 202.577 96.156 C 202.459 96.156 202.246 96.34 202.105 96.566 C 201.964 96.791 201.739 96.976 201.605 96.976 C 200.997 96.976 197.437 100.903 197.437 101.574 C 197.437 101.758 197.312 101.957 197.159 102.016 C 197.006 102.075 196.766 102.51 196.625 102.984 C 196.485 103.457 196.186 104.241 195.961 104.727 C 195.063 106.664 195.079 115.633 195.98 115.633 C 196.058 115.633 196.239 116.07 196.382 116.604 C 196.525 117.138 196.913 118.016 197.244 118.555 C 197.576 119.094 197.847 119.622 197.847 119.729 C 197.847 119.836 198.032 120.023 198.257 120.144 C 198.483 120.264 198.668 120.475 198.669 120.612 C 198.67 120.749 199.053 121.184 199.519 121.579 C 199.984 121.973 200.571 122.488 200.823 122.722 C 201.434 123.291 202.72 124.039 203.087 124.039 C 203.25 124.039 203.383 124.119 203.383 124.216 C 203.383 124.436 204.991 125.064 205.553 125.064 C 205.78 125.064 206.061 125.159 206.177 125.275 C 206.842 125.94 213.776 125.926 214.01 125.259 C 214.047 125.152 214.304 125.064 214.58 125.064 C 215.096 125.064 216.506 124.548 216.702 124.287 C 216.763 124.207 217.238 123.927 217.759 123.666 C 218.793 123.147 221.311 120.741 221.8 119.806 C 221.968 119.484 222.226 119.129 222.373 119.016 C 222.521 118.903 222.701 118.425 222.775 117.954 L 222.908 117.097 L 222.013 116.861 C 221.52 116.731 220.933 116.509 220.707 116.367 C 219.066 115.336 217.48 115.224 217.158 116.117 C 217.021 116.496 216.587 117.138 216.194 117.542 C 215.801 117.947 215.479 118.36 215.479 118.46 C 215.479 118.561 215.106 118.766 214.649 118.917 C 214.193 119.067 213.752 119.31 213.67 119.456 C 213.305 120.109 207.662 120.274 207.009 119.651 C 206.875 119.523 206.386 119.25 205.921 119.044 C 204.648 118.48 202.684 116.48 202.239 115.295 C 202.034 114.748 201.797 114.252 201.712 114.192 C 201.628 114.133 201.495 113.464 201.417 112.706 L 201.276 111.328 L 212.612 111.328 L 223.949 111.328 L 223.816 108.406 C 223.741 106.749 223.594 105.456 223.477 105.417 C 223.363 105.379 223.27 105.213 223.27 105.049 C 223.27 104.585 222.41 102.013 222.211 101.882 C 222.114 101.818 221.828 101.392 221.576 100.936 C 220.859 99.637 220.311 98.824 220.151 98.822 C 220.071 98.822 219.578 98.406 219.056 97.899 C 218.534 97.391 218.028 96.976 217.931 96.976 C 217.835 96.976 217.507 96.745 217.203 96.463 C 216.898 96.181 216.53 95.951 216.384 95.951 C 216.237 95.951 215.813 95.771 215.44 95.552 C 214.74 95.141 212.678 94.725 211.328 94.722 C 210.905 94.721 210.559 94.628 210.559 94.516 C 210.559 94.261 208.575 94.242 208.419 94.495 M 270.425 94.471 C 270.425 94.559 269.556 94.735 268.494 94.861 C 266.551 95.092 264.047 96.136 263.598 96.901 C 263.508 97.055 263.324 97.182 263.188 97.184 C 263.053 97.186 262.619 97.557 262.225 98.009 C 261.83 98.461 261.261 99.101 260.96 99.431 C 260.659 99.761 260.295 100.358 260.15 100.759 C 260.005 101.159 259.813 101.486 259.723 101.486 C 259.633 101.486 259.561 101.602 259.564 101.743 C 259.57 102.02 261.744 103.127 262.283 103.127 C 262.463 103.127 262.667 103.219 262.737 103.332 C 262.807 103.444 263.003 103.537 263.174 103.537 C 263.344 103.537 263.622 103.675 263.791 103.844 C 263.961 104.013 264.369 104.152 264.699 104.152 C 265.096 104.152 265.3 104.048 265.3 103.844 C 265.3 103.675 265.386 103.537 265.491 103.537 C 265.596 103.537 265.747 103.333 265.826 103.084 C 266.075 102.3 267.441 101.182 268.655 100.769 C 269.29 100.553 269.81 100.303 269.81 100.214 C 269.81 100.124 270.687 100.051 271.758 100.051 C 272.829 100.051 273.706 100.124 273.706 100.214 C 273.706 100.303 274.225 100.553 274.859 100.768 C 276.524 101.334 278.302 103.136 278.609 104.571 C 278.84 105.646 278.904 106.817 278.733 106.817 C 278.629 106.817 277.166 106.282 276.474 105.991 C 275.02 105.381 268.197 105.375 266.838 105.984 C 266.612 106.085 265.92 106.336 265.3 106.543 C 264.68 106.75 263.993 107.081 263.775 107.278 C 263.556 107.476 263.248 107.637 263.09 107.637 C 262.837 107.637 260.535 109.843 259.801 110.788 C 259.651 110.98 259.385 111.572 259.209 112.104 C 259.034 112.635 258.81 113.158 258.712 113.265 C 258.489 113.509 258.476 117.941 258.697 118.206 C 258.787 118.313 259.031 118.928 259.241 119.573 C 259.45 120.218 259.838 120.949 260.103 121.198 C 260.368 121.447 260.584 121.735 260.584 121.84 C 260.584 122.059 261.783 123.219 262.009 123.219 C 262.093 123.219 262.328 123.403 262.532 123.629 C 262.736 123.854 263.073 124.039 263.281 124.039 C 263.489 124.039 263.66 124.13 263.66 124.241 C 263.66 124.5 265 125.064 265.615 125.064 C 265.874 125.064 266.117 125.155 266.154 125.267 C 266.376 125.924 273.091 125.906 273.091 125.248 C 273.091 125.147 273.249 125.064 273.443 125.064 C 273.957 125.064 275.551 124.423 275.551 124.216 C 275.551 124.119 275.675 124.039 275.827 124.039 C 275.978 124.039 276.27 123.854 276.474 123.629 C 276.678 123.403 276.953 123.219 277.086 123.219 C 277.218 123.219 277.45 122.988 277.601 122.706 C 277.752 122.424 277.965 122.194 278.075 122.194 C 278.184 122.194 278.396 122.032 278.546 121.835 C 278.78 121.527 278.819 121.718 278.825 123.173 L 278.831 124.87 L 281.753 124.813 L 284.675 124.757 L 284.675 114.915 C 284.675 104.212 284.61 103.432 283.543 101.179 C 282.731 99.464 280.922 97.352 280.02 97.065 C 279.817 97.001 279.651 96.869 279.651 96.772 C 279.651 96.564 278.48 95.951 278.082 95.951 C 277.93 95.951 277.806 95.866 277.806 95.762 C 277.806 95.462 275.991 94.957 274.368 94.806 C 273.548 94.729 272.827 94.587 272.767 94.489 C 272.63 94.267 270.425 94.251 270.425 94.471 M 298.428 94.489 C 298.367 94.587 297.667 94.731 296.871 94.809 C 295.266 94.967 293.388 95.463 293.388 95.728 C 293.388 95.822 293.134 95.953 292.824 96.017 C 292.514 96.082 291.891 96.461 291.44 96.86 C 290.989 97.259 290.459 97.639 290.261 97.705 C 290.064 97.77 289.903 97.906 289.903 98.007 C 289.903 98.108 289.721 98.359 289.499 98.566 C 287.793 100.156 287.267 104.164 288.456 106.522 C 289.046 107.69 291.352 110.093 291.887 110.096 C 292.02 110.097 292.254 110.223 292.407 110.376 C 292.561 110.529 293.282 110.858 294.011 111.107 C 294.74 111.356 295.52 111.643 295.746 111.746 C 295.971 111.848 297.031 112.079 298.101 112.26 C 299.17 112.44 300.093 112.664 300.151 112.757 C 300.209 112.851 300.716 112.996 301.278 113.081 C 302.425 113.252 303.639 113.706 303.639 113.963 C 303.639 114.056 303.852 114.229 304.113 114.348 C 305.26 114.87 305.234 118.913 304.084 118.913 C 303.994 118.913 303.725 119.096 303.486 119.32 C 302.379 120.351 297.149 120.448 296.157 119.457 C 295.972 119.271 295.618 119.068 295.373 119.005 C 295.127 118.943 294.649 118.558 294.311 118.151 C 293.972 117.744 293.5 117.203 293.261 116.949 C 293.022 116.695 292.772 116.272 292.706 116.009 C 292.403 114.804 292.131 114.699 290.87 115.295 C 290.239 115.594 289.633 115.838 289.522 115.838 C 289.412 115.838 288.862 116.069 288.301 116.351 C 287.739 116.632 287.178 116.863 287.054 116.863 C 286.742 116.863 286.768 117.594 287.092 117.925 C 287.238 118.074 287.479 118.493 287.627 118.857 C 287.776 119.22 288.095 119.752 288.336 120.038 C 288.578 120.325 289.006 120.842 289.288 121.187 C 289.569 121.533 289.924 121.924 290.076 122.056 C 290.228 122.188 290.559 122.481 290.813 122.706 C 291.671 123.469 292.55 124.039 292.867 124.039 C 293.041 124.039 293.183 124.121 293.183 124.222 C 293.183 124.465 294.704 125.064 295.323 125.064 C 295.593 125.064 295.845 125.152 295.882 125.26 C 295.92 125.367 296.804 125.559 297.847 125.685 C 299.848 125.927 303.465 125.66 303.605 125.26 C 303.643 125.152 303.885 125.064 304.144 125.064 C 304.759 125.064 306.099 124.5 306.099 124.241 C 306.099 124.13 306.241 124.039 306.414 124.039 C 307.333 124.039 309.863 121.582 310.493 120.078 C 311.47 117.748 311.695 115.47 311.066 114.289 C 310.949 114.07 310.747 113.493 310.618 113.008 C 310.488 112.523 310.249 112.075 310.086 112.012 C 309.923 111.95 309.79 111.785 309.79 111.647 C 309.79 111.345 307.862 109.482 307.549 109.482 C 307.428 109.482 307.33 109.403 307.33 109.305 C 307.33 109.208 306.891 108.963 306.356 108.761 C 305.82 108.56 305.2 108.27 304.977 108.118 C 304.755 107.966 304.347 107.842 304.07 107.842 C 303.31 107.842 300.564 107.167 300.564 106.98 C 300.564 106.89 300.277 106.817 299.927 106.817 C 298.167 106.817 294.717 105.465 294.409 104.654 C 294.304 104.378 294.124 104.152 294.008 104.152 C 293.659 104.152 293.751 102.368 294.107 102.232 C 294.277 102.166 294.515 101.897 294.635 101.634 C 294.769 101.34 295.244 101.003 295.863 100.763 C 296.419 100.547 296.873 100.299 296.873 100.211 C 296.873 99.734 301.491 100.063 302.614 100.62 C 303.878 101.247 304.869 102.044 304.869 102.435 C 304.869 102.577 305.077 102.93 305.331 103.22 L 305.792 103.745 L 307.292 103.233 C 308.117 102.951 308.991 102.581 309.234 102.411 C 309.477 102.241 309.889 102.101 310.149 102.101 C 310.978 102.101 311.017 100.869 310.215 100.066 C 310.003 99.855 309.772 99.498 309.701 99.273 C 309.583 98.904 308.555 97.881 307.019 96.606 C 306.706 96.346 306.186 96.081 305.865 96.017 C 305.543 95.952 305.279 95.829 305.279 95.742 C 305.279 95.428 303.646 94.943 302.118 94.805 C 301.257 94.727 300.503 94.584 300.444 94.487 C 300.301 94.256 298.57 94.258 298.428 94.489 M 326.192 94.487 C 326.192 94.585 325.49 94.728 324.632 94.805 C 323.103 94.944 321.476 95.428 321.476 95.745 C 321.476 95.833 321.156 95.965 320.764 96.039 C 320.373 96.112 319.935 96.33 319.791 96.523 C 319.646 96.716 319.146 97.133 318.678 97.451 C 317.119 98.509 314.71 101.533 314.71 102.432 C 314.71 102.589 314.631 102.717 314.533 102.717 C 314.338 102.717 313.686 104.296 313.684 104.774 C 313.683 104.939 313.524 105.351 313.331 105.689 C 312.905 106.434 312.789 113.702 313.194 114.217 C 313.319 114.376 313.532 114.967 313.667 115.53 C 313.95 116.711 314.341 117.683 314.533 117.683 C 314.606 117.683 314.729 117.937 314.805 118.247 C 314.882 118.557 315.307 119.243 315.75 119.77 C 316.193 120.298 316.556 120.775 316.556 120.831 C 316.556 120.963 317.787 122.194 317.919 122.194 C 317.974 122.194 318.451 122.553 318.979 122.991 C 319.507 123.43 320.169 123.857 320.451 123.941 C 320.733 124.025 321.01 124.151 321.066 124.22 C 321.314 124.525 322.141 124.862 322.954 124.989 C 323.438 125.064 323.881 125.197 323.938 125.284 C 324.343 125.894 329.596 125.954 331.522 125.372 C 332.03 125.218 332.849 124.975 333.343 124.831 C 333.838 124.688 334.345 124.473 334.471 124.354 C 334.597 124.234 334.931 124.023 335.213 123.884 C 336.101 123.447 336.471 123.15 337.755 121.848 C 340.8 118.759 341.273 117.353 339.467 116.765 C 338.875 116.572 338.298 116.338 338.184 116.245 C 337.87 115.987 336.191 115.434 335.712 115.431 C 335.425 115.429 335.13 115.71 334.799 116.299 C 333.579 118.469 331.48 119.81 328.957 120.03 C 327.272 120.177 324.783 119.904 324.563 119.547 C 324.496 119.438 324.178 119.249 323.857 119.127 C 322.956 118.784 321.368 117.46 320.835 116.607 C 320.57 116.184 320.291 115.838 320.215 115.838 C 320.138 115.838 319.872 115.169 319.623 114.352 C 319.375 113.534 319.09 112.778 318.991 112.67 C 318.892 112.563 318.811 112.217 318.811 111.902 L 318.811 111.328 L 330.221 111.328 L 341.631 111.328 L 341.505 108.919 C 341.377 106.47 341.031 104.133 340.77 103.947 C 340.69 103.89 340.467 103.343 340.272 102.73 C 340.078 102.117 339.69 101.316 339.411 100.949 C 339.132 100.583 338.903 100.188 338.903 100.072 C 338.903 99.956 338.719 99.762 338.493 99.641 C 338.268 99.521 338.083 99.294 338.083 99.139 C 338.083 98.983 337.599 98.475 337.007 98.009 C 336.415 97.544 335.785 97.043 335.608 96.897 C 335.43 96.751 334.969 96.465 334.582 96.262 C 334.196 96.059 333.742 95.813 333.573 95.716 C 332.748 95.243 332.101 95.07 330.497 94.894 C 329.539 94.789 328.594 94.615 328.398 94.507 C 327.955 94.263 326.192 94.247 326.192 94.487 M 191.594 94.951 C 190.125 95.083 187.674 96.124 187.449 96.712 C 187.393 96.857 187.233 96.976 187.093 96.976 C 186.804 96.976 185.156 98.721 185.097 99.091 C 185.075 99.224 185.006 98.457 184.943 97.386 L 184.828 95.438 L 182.009 95.381 L 179.19 95.324 L 179.19 110.092 L 179.19 124.859 L 182.163 124.859 L 185.136 124.859 L 185.137 116.402 C 185.139 108.654 185.301 105.492 185.712 105.182 C 185.79 105.123 186.036 104.705 186.259 104.254 C 186.721 103.322 187.452 102.606 188.926 101.642 L 189.948 100.974 L 192.67 100.974 C 195.219 100.974 195.399 100.948 195.501 100.564 C 195.561 100.338 195.829 99.692 196.098 99.129 C 196.367 98.565 196.701 97.711 196.84 97.232 C 196.979 96.753 197.17 96.361 197.265 96.361 C 197.36 96.361 197.437 96.142 197.437 95.875 C 197.437 95.063 194.864 94.656 191.594 94.951 M 167.709 110.097 L 167.709 124.859 L 170.784 124.859 L 173.86 124.859 L 173.86 110.097 L 173.86 95.336 L 170.784 95.336 L 167.709 95.336 L 167.709 110.097 M 211.697 100.214 C 211.804 100.304 212.428 100.551 213.083 100.764 C 213.739 100.977 214.361 101.313 214.467 101.51 C 214.572 101.707 214.841 101.927 215.064 101.997 C 215.286 102.068 215.586 102.341 215.73 102.603 C 215.874 102.866 216.25 103.499 216.566 104.011 C 216.882 104.522 217.194 105.271 217.259 105.674 L 217.378 106.407 L 209.433 106.407 C 203.108 106.407 201.528 106.355 201.684 106.151 C 201.792 106.01 202.086 105.376 202.337 104.743 C 202.951 103.193 204.681 101.463 206.229 100.852 C 206.863 100.602 207.468 100.319 207.576 100.224 C 207.823 100.005 211.436 99.996 211.697 100.214 M 243.567 100.212 C 243.567 100.3 243.985 100.495 244.496 100.646 C 245.006 100.797 245.721 101.14 246.085 101.409 C 246.448 101.678 246.904 101.953 247.097 102.022 C 247.291 102.09 247.504 102.318 247.571 102.528 C 247.637 102.739 247.894 103.075 248.141 103.275 C 248.388 103.475 248.775 104.008 249.001 104.459 C 249.226 104.91 249.463 105.325 249.528 105.382 C 251.234 106.872 250.289 114.839 248.152 116.975 C 247.886 117.241 247.668 117.556 247.668 117.674 C 247.668 117.792 247.532 117.888 247.365 117.888 C 247.199 117.888 246.911 118.119 246.726 118.401 C 246.542 118.683 246.262 118.913 246.104 118.913 C 245.795 118.913 245.069 119.286 244.667 119.652 C 244.073 120.193 239.166 120.192 238.571 119.651 C 238.17 119.286 237.444 118.913 237.136 118.913 C 236.978 118.913 236.698 118.683 236.513 118.401 C 236.328 118.119 236.041 117.888 235.874 117.888 C 235.708 117.888 235.572 117.795 235.572 117.681 C 235.572 117.568 235.304 117.195 234.978 116.854 C 234.652 116.512 234.265 115.936 234.118 115.574 C 233.972 115.212 233.789 114.869 233.713 114.813 C 232.77 114.119 232.761 106.138 233.701 105.382 C 233.771 105.325 234.012 104.91 234.236 104.459 C 234.46 104.008 234.852 103.452 235.107 103.223 C 235.363 102.993 235.572 102.691 235.572 102.551 C 235.572 102.411 235.779 102.204 236.033 102.091 C 236.287 101.978 236.791 101.669 237.155 101.403 C 237.518 101.137 238.233 100.797 238.744 100.646 C 239.254 100.495 239.672 100.3 239.672 100.212 C 239.672 100.123 240.548 100.051 241.62 100.051 C 242.691 100.051 243.567 100.123 243.567 100.212 M 329.472 100.214 C 329.472 100.304 330 100.539 330.644 100.738 C 331.81 101.097 331.978 101.201 332.957 102.17 C 333.975 103.177 334.778 104.468 334.796 105.126 C 334.8 105.267 334.895 105.382 335.008 105.382 C 335.12 105.382 335.213 105.613 335.213 105.894 L 335.213 106.407 L 327.319 106.407 C 322.978 106.407 319.427 106.338 319.429 106.253 C 319.436 105.89 320.063 104.33 320.334 103.999 C 321.775 102.249 323.101 101.104 324.09 100.757 C 324.682 100.55 325.167 100.306 325.167 100.216 C 325.167 100.125 326.135 100.051 327.319 100.051 C 328.503 100.051 329.472 100.125 329.472 100.214 M 61.302 105.689 C 61.302 105.971 61.394 106.202 61.507 106.202 C 61.62 106.202 61.712 105.971 61.712 105.689 C 61.712 105.407 61.62 105.177 61.507 105.177 C 61.394 105.177 61.302 105.407 61.302 105.689 M 61.1 106.868 C 61.098 107.178 61.189 107.432 61.302 107.432 C 61.561 107.432 61.561 107.013 61.302 106.612 C 61.147 106.372 61.102 106.429 61.1 106.868 M 60.623 110.86 C 60.557 111.286 60.441 111.843 60.366 112.096 C 60.288 112.359 60.317 112.558 60.434 112.558 C 60.547 112.558 60.704 112.042 60.783 111.413 C 60.943 110.126 60.808 109.658 60.623 110.86 M 275.491 110.941 C 276.471 111.08 277.435 111.367 277.984 111.681 L 278.879 112.193 L 278.741 113.417 C 278.599 114.671 278.274 115.633 277.992 115.633 C 277.905 115.633 277.778 115.811 277.709 116.027 C 277.501 116.682 275.094 118.913 274.596 118.913 C 274.445 118.913 274.128 119.106 273.893 119.341 C 273.091 120.143 268.408 120.352 267.674 119.618 C 267.529 119.473 267.073 119.213 266.662 119.042 C 266.251 118.87 265.915 118.591 265.915 118.421 C 265.915 118.252 265.79 118.04 265.637 117.95 C 264.012 116.99 264.854 113.644 267.177 111.83 C 268.394 110.879 272.206 110.471 275.491 110.941 M 60.072 113.378 C 60.072 113.603 60.164 113.788 60.277 113.788 C 60.39 113.788 60.482 113.603 60.482 113.378 C 60.482 113.152 60.39 112.968 60.277 112.968 C 60.164 112.968 60.072 113.152 60.072 113.378 M 115.537 127.514 C 115.461 127.636 115.314 127.683 115.209 127.618 C 115.104 127.553 115.018 127.598 115.018 127.717 C 115.018 127.983 115.228 127.99 115.627 127.737 C 115.793 127.632 115.871 127.489 115.801 127.419 C 115.731 127.349 115.612 127.392 115.537 127.514" stroke-linecap="round" />
</g>
</g>
</g>
</svg>