<?xml version="1.0" encoding="UTF-8" standalone="no" ?>
<!DOCTYPE svg PUBLIC "-//W3C//DTD SVG 1.1//EN" "http://www.w3.org/Graphics/SVG/1.1/DTD/svg11.dtd">
<svg xmlns="http://www.w3.org/2000/svg" xmlns:xlink="http://www.w3.org/1999/xlink" version="1.1" width="205" height="100" viewBox="0 0 205 100" xml:space="preserve">
<desc>Created with Fabric.js 3.6.3</desc>
<defs>
</defs>
<g transform="matrix(0.51 0 0 0.51 103.14 52.09)"  >
<g style=""   >
		<g transform="matrix(1 0 0 1 -6.66 1.67)" id="path0"  >
<path style="stroke: none; stroke-width: 1; stroke-dasharray: none; stroke-linecap: butt; stroke-dashoffset: 0; stroke-linejoin: miter; stroke-miterlimit: 4; fill: rgb(125,191,97); fill-rule: evenodd; opacity: 1;"  transform=" translate(-193.34, -101.67)" d="M 62.806 35.738 C 62.45 35.988 62.37 35.999 62.482 35.785 C 62.563 35.628 62.507 35.649 62.357 35.831 C 62.143 36.09 61.589 36.184 59.792 36.268 C 56.813 36.407 56.056 36.505 55.71 36.791 C 55.554 36.921 54.903 37.069 54.263 37.121 C 52.345 37.274 52.298 37.287 52.328 37.654 C 52.352 37.958 52.141 38 50.578 38 C 49.082 38 48.738 38.062 48.41 38.39 C 48.123 38.677 47.686 38.796 46.76 38.84 C 45.8 38.886 45.5 38.971 45.5 39.2 C 45.5 39.428 45.17 39.524 44.134 39.6 C 43.161 39.671 42.696 39.798 42.518 40.041 C 42.376 40.236 41.948 40.404 41.524 40.433 C 40.878 40.476 40.047 40.965 40.526 41.02 C 40.621 41.031 40.478 41.102 40.207 41.177 C 39.911 41.26 39.667 41.511 39.595 41.807 C 39.476 42.297 39.474 42.297 39.245 41.876 C 39.118 41.643 39.055 41.411 39.106 41.361 C 39.156 41.311 38.936 41.308 38.617 41.355 C 38.248 41.409 37.998 41.586 37.932 41.84 C 37.874 42.06 37.741 42.187 37.636 42.123 C 37.304 41.917 36.166 42.422 36.281 42.724 C 36.362 42.933 36.172 43 35.494 43 C 35.002 43 34.611 43.068 34.624 43.15 C 34.703 43.654 34.536 43.8 33.881 43.8 C 33.331 43.8 33.138 43.894 33.058 44.2 C 32.976 44.512 32.785 44.6 32.19 44.6 C 31.603 44.6 31.398 44.692 31.3 45 C 31.23 45.22 31.015 45.4 30.821 45.4 C 30.628 45.4 30.261 45.622 30.006 45.894 C 29.751 46.165 29.478 46.349 29.401 46.301 C 29.324 46.253 29.067 46.436 28.831 46.707 C 28.596 46.978 28.312 47.2 28.201 47.2 C 28.091 47.2 28 47.38 28 47.6 C 28 47.862 27.867 48 27.613 48 C 27.401 48 27.17 48.18 27.1 48.4 C 27.03 48.62 26.799 48.8 26.587 48.8 C 26.328 48.8 26.2 48.938 26.2 49.219 C 26.2 49.449 26.043 49.679 25.85 49.729 C 25.626 49.788 25.484 50.044 25.456 50.438 C 25.431 50.792 25.24 51.175 25.006 51.338 C 24.733 51.529 24.6 51.846 24.6 52.304 C 24.6 52.781 24.48 53.05 24.2 53.2 C 23.922 53.349 23.8 53.619 23.8 54.086 C 23.8 54.517 23.685 54.801 23.479 54.88 C 23.29 54.953 23.207 55.13 23.277 55.312 C 23.345 55.489 23.311 55.569 23.198 55.499 C 23.075 55.423 23 55.862 23 56.65 C 23 57.511 22.898 58.049 22.685 58.312 C 22.512 58.525 22.435 58.565 22.515 58.4 C 22.623 58.175 22.599 58.155 22.419 58.32 C 22.273 58.455 22.165 59.252 22.141 60.37 C 22.106 62.051 22.027 62.299 21.55 62.224 C 21.468 62.211 21.386 62.402 21.368 62.65 C 21.351 62.897 21.318 63.37 21.296 63.7 C 21.274 64.03 21.243 65.193 21.228 66.283 C 21.213 67.374 21.141 68.207 21.068 68.135 C 20.3 67.366 20.071 89.884 20.838 90.732 C 21.111 91.033 21.185 91.585 21.224 93.603 C 21.272 96.091 21.407 97.145 21.664 97.05 C 22.046 96.909 22.104 97.173 22.149 99.249 C 22.192 101.212 22.248 101.535 22.59 101.798 C 22.912 102.046 22.989 102.374 23.02 103.644 C 23.041 104.493 23.116 105.152 23.187 105.108 C 23.257 105.065 23.435 105.3 23.582 105.631 C 23.772 106.06 23.953 106.207 24.211 106.139 C 24.748 105.999 25.093 107.396 24.597 107.702 C 24.485 107.771 24.455 107.927 24.53 108.048 C 24.62 108.194 24.541 108.22 24.294 108.125 C 23.943 107.991 23.941 108.003 24.261 108.357 C 24.478 108.596 24.6 109.068 24.6 109.666 C 24.6 110.333 24.714 110.714 25 111 C 25.265 111.265 25.4 111.667 25.4 112.188 C 25.4 112.622 25.491 113.033 25.603 113.102 C 25.715 113.171 25.746 113.325 25.672 113.445 C 25.595 113.569 25.631 113.605 25.755 113.528 C 26.049 113.346 26.168 113.584 26.297 114.609 C 26.357 115.085 26.543 115.627 26.711 115.813 C 26.88 115.998 27.072 116.489 27.139 116.902 C 27.22 117.399 27.386 117.686 27.631 117.75 C 27.843 117.806 28.001 118.028 28.003 118.273 C 28.007 119.015 28.237 119.6 28.523 119.6 C 28.685 119.6 28.8 119.808 28.8 120.102 C 28.8 120.378 28.98 120.758 29.2 120.946 C 29.469 121.177 29.6 121.536 29.6 122.044 C 29.6 122.667 29.671 122.8 30 122.8 C 30.318 122.8 30.4 122.933 30.4 123.453 C 30.4 123.915 30.546 124.214 30.9 124.481 C 31.175 124.687 31.4 124.978 31.4 125.128 C 31.4 125.278 31.568 125.4 31.774 125.4 C 31.997 125.4 32.147 125.541 32.147 125.75 C 32.142 126.807 32.212 127 32.6 127 C 32.98 127 33.092 127.332 33.054 128.35 C 33.049 128.488 33.214 128.6 33.422 128.6 C 33.692 128.6 33.8 128.743 33.8 129.1 C 33.8 129.467 33.907 129.6 34.2 129.6 C 34.493 129.6 34.6 129.733 34.6 130.1 C 34.6 130.375 34.78 130.78 35 131 C 35.22 131.22 35.4 131.535 35.4 131.7 C 35.4 131.865 35.566 132 35.768 132 C 35.97 132 36.241 132.23 36.369 132.511 C 36.518 132.838 36.691 132.969 36.851 132.873 C 36.995 132.787 36.973 132.883 36.8 133.1 C 36.635 133.307 36.609 133.411 36.742 133.331 C 36.903 133.235 37.042 133.407 37.155 133.843 C 37.249 134.204 37.455 134.5 37.613 134.5 C 37.771 134.5 37.929 134.703 37.964 134.95 C 38.005 135.239 38.166 135.4 38.414 135.4 C 38.686 135.4 38.8 135.539 38.8 135.871 C 38.8 136.13 39.025 136.584 39.3 136.881 C 39.575 137.178 39.8 137.506 39.8 137.61 C 39.8 137.715 39.921 137.8 40.068 137.8 C 40.215 137.8 40.438 138.025 40.564 138.3 C 40.689 138.575 40.938 138.8 41.117 138.8 C 41.319 138.8 41.401 138.91 41.332 139.09 C 41.264 139.265 41.374 139.428 41.61 139.503 C 41.825 139.571 42.093 139.801 42.207 140.014 C 42.321 140.226 42.546 140.4 42.707 140.4 C 42.868 140.4 43 140.58 43 140.8 C 43 141.067 43.133 141.2 43.4 141.2 C 43.667 141.2 43.8 141.333 43.8 141.6 C 43.8 141.867 43.933 142 44.2 142 C 44.453 142 44.6 142.133 44.6 142.364 C 44.6 142.82 45.797 144.4 46.143 144.4 C 46.284 144.4 46.4 144.532 46.4 144.694 C 46.4 144.855 46.62 145.103 46.889 145.244 C 47.158 145.385 47.397 145.59 47.42 145.7 C 47.495 146.067 48.495 147 48.813 147 C 48.986 147 49.324 147.225 49.563 147.5 C 49.802 147.775 50.088 148 50.199 148 C 50.309 148 50.4 148.138 50.4 148.306 C 50.4 148.475 50.55 148.67 50.733 148.741 C 50.917 148.811 51.389 149.197 51.783 149.598 C 52.178 150 52.656 150.386 52.847 150.457 C 53.057 150.534 53.147 150.706 53.075 150.892 C 52.992 151.109 53.082 151.2 53.379 151.2 C 53.755 151.2 53.894 151.403 53.824 151.85 C 53.811 151.932 53.868 151.989 53.95 151.976 C 54.33 151.916 54.798 152.014 54.776 152.15 C 54.719 152.515 54.818 152.735 55.05 152.755 C 55.726 152.813 56.036 152.962 56.316 153.362 C 56.485 153.603 56.753 153.8 56.911 153.8 C 57.07 153.8 57.2 153.937 57.2 154.105 C 57.2 154.273 57.426 154.496 57.701 154.601 C 57.977 154.705 58.18 154.906 58.151 155.046 C 58.122 155.194 58.253 155.274 58.466 155.238 C 58.697 155.198 58.87 155.325 58.938 155.583 C 59.008 155.853 59.272 156.033 59.722 156.117 C 60.334 156.232 60.495 156.4 60.424 156.85 C 60.411 156.933 60.577 157 60.793 157 C 61.009 157 61.277 157.17 61.388 157.377 C 61.498 157.584 61.897 157.811 62.273 157.882 C 62.733 157.968 62.991 158.145 63.065 158.425 C 63.125 158.655 63.269 158.781 63.388 158.707 C 63.506 158.634 63.663 158.738 63.737 158.937 C 63.935 159.474 64.202 159.594 65.215 159.597 C 66.105 159.6 66.134 159.62 66.315 160.35 C 66.483 161.033 66.567 161.106 67.25 161.162 C 67.838 161.211 68 161.308 68 161.612 C 68 161.931 68.142 162 68.8 162 C 69.467 162 69.6 162.067 69.6 162.4 C 69.6 162.62 69.735 162.811 69.9 162.825 C 70.621 162.885 70.699 162.928 70.674 163.247 C 70.659 163.433 70.704 163.576 70.774 163.565 C 71.258 163.493 72.18 163.902 72.265 164.227 C 72.32 164.439 72.441 164.598 72.533 164.582 C 73.222 164.461 73.848 164.642 73.939 164.989 C 74.01 165.261 74.246 165.397 74.725 165.439 C 75.101 165.473 75.4 165.586 75.389 165.692 C 75.365 165.939 75.949 166.168 76.65 166.186 C 77.141 166.198 77.298 166.38 77.224 166.85 C 77.211 166.933 77.55 167 77.977 167 C 78.598 167 78.775 167.084 78.863 167.421 C 78.925 167.657 79.089 167.801 79.237 167.75 C 79.382 167.699 79.725 167.741 80 167.843 C 80.847 168.157 82.8 167.835 82.8 167.38 C 82.8 167.068 82.947 167 83.619 167 C 84.269 167 84.459 166.918 84.542 166.6 C 84.624 166.287 84.815 166.2 85.423 166.2 C 86.067 166.2 86.2 166.131 86.2 165.8 C 86.2 165.467 86.333 165.4 87 165.4 C 87.667 165.4 87.8 165.333 87.8 165 C 87.8 164.704 87.943 164.592 88.35 164.57 C 88.653 164.553 89.035 164.528 89.2 164.515 C 89.367 164.501 89.474 164.338 89.441 164.145 C 89.4 163.902 89.518 163.799 89.841 163.797 C 90.696 163.792 91.2 163.562 91.2 163.177 C 91.2 162.97 91.267 162.811 91.35 162.824 C 92.056 162.935 92.649 162.755 92.742 162.4 C 92.8 162.18 93.01 162 93.21 162 C 93.41 162 93.63 161.82 93.7 161.6 C 93.793 161.306 94.003 161.2 94.49 161.2 C 94.968 161.2 95.18 161.096 95.251 160.828 C 95.304 160.624 95.607 160.391 95.924 160.312 C 96.241 160.233 96.667 159.989 96.87 159.77 C 97.074 159.552 97.367 159.421 97.52 159.48 C 97.698 159.548 97.8 159.452 97.8 159.216 C 97.8 158.95 97.998 158.807 98.498 158.714 C 98.886 158.641 99.288 158.41 99.405 158.191 C 99.52 157.976 99.791 157.8 100.007 157.8 C 100.223 157.8 100.389 157.733 100.376 157.65 C 100.306 157.208 100.442 157 100.8 157 C 101.067 157 101.2 156.867 101.2 156.6 C 101.2 156.238 101.696 156.067 102.438 156.172 C 102.514 156.183 102.632 156.014 102.701 155.796 C 102.77 155.578 103.001 155.4 103.213 155.4 C 103.427 155.4 103.6 155.263 103.6 155.095 C 103.6 154.927 103.825 154.705 104.1 154.6 C 104.375 154.495 104.6 154.273 104.6 154.105 C 104.6 153.933 104.775 153.8 105 153.8 C 105.242 153.8 105.406 153.661 105.416 153.45 C 105.426 153.228 105.469 153.194 105.535 153.358 C 105.608 153.539 105.783 153.461 106.12 153.097 C 106.385 152.811 106.694 152.634 106.806 152.704 C 106.918 152.773 106.997 152.756 106.981 152.665 C 106.907 152.238 107.028 152 107.319 152 C 107.494 152 107.685 151.82 107.742 151.6 C 107.8 151.38 108.01 151.2 108.21 151.2 C 108.41 151.2 108.63 151.02 108.7 150.8 C 108.77 150.58 109.001 150.4 109.213 150.4 C 109.458 150.4 109.6 150.262 109.6 150.025 C 109.6 149.768 109.79 149.612 110.202 149.53 C 110.575 149.455 110.889 149.223 111.027 148.92 C 111.158 148.632 111.363 148.475 111.525 148.537 C 111.676 148.595 111.8 148.553 111.8 148.443 C 111.8 148.109 112.938 147 113.28 147 C 113.456 147 113.6 146.863 113.6 146.695 C 113.6 146.527 113.83 146.302 114.112 146.195 C 114.394 146.088 114.572 145.917 114.509 145.814 C 114.389 145.621 114.75 145.308 115.1 145.303 C 115.21 145.301 115.311 145.188 115.325 145.05 C 115.383 144.468 115.407 144.401 115.55 144.424 C 115.964 144.489 116.153 144.367 116.128 144.05 C 116.11 143.825 116.267 143.677 116.569 143.634 C 116.92 143.584 117.013 143.471 116.938 143.184 C 116.881 142.965 116.939 142.8 117.075 142.8 C 117.205 142.8 117.444 142.602 117.606 142.361 C 117.768 142.119 118.283 141.502 118.75 140.99 C 119.218 140.478 119.6 139.955 119.6 139.829 C 119.6 139.703 119.78 139.6 120 139.6 C 120.258 139.6 120.4 139.467 120.4 139.223 C 120.4 139.015 120.579 138.8 120.8 138.742 C 121.039 138.679 121.2 138.469 121.2 138.219 C 121.2 137.933 121.327 137.8 121.6 137.8 C 121.867 137.8 122 137.667 122 137.4 C 122 137.142 122.133 137 122.374 137 C 122.657 137 122.78 136.803 122.877 136.2 C 122.961 135.674 123.109 135.4 123.309 135.4 C 123.476 135.4 123.665 135.264 123.729 135.097 C 123.886 134.687 125.025 133.49 125.207 133.542 C 125.287 133.565 125.349 133.475 125.345 133.342 C 125.311 132.323 125.421 132 125.8 132 C 126.067 132 126.2 131.867 126.2 131.6 C 126.2 131.242 126.408 131.106 126.85 131.176 C 126.933 131.189 127 130.975 127 130.7 C 127 130.425 127.088 130.2 127.195 130.2 C 127.385 130.2 128.012 129.155 128.004 128.852 C 128.002 128.768 128.067 128.699 128.15 128.697 C 128.448 128.691 128.804 128.369 128.7 128.2 C 128.641 128.105 128.768 127.905 128.983 127.755 C 129.197 127.605 129.438 127.216 129.519 126.891 C 129.6 126.566 129.803 126.199 129.97 126.076 C 130.136 125.953 130.307 125.598 130.349 125.286 C 130.39 124.975 130.599 124.598 130.812 124.449 C 131.025 124.3 131.2 124.008 131.2 123.8 C 131.2 123.593 131.291 123.367 131.403 123.298 C 131.515 123.229 131.553 123.086 131.488 122.981 C 131.423 122.876 131.489 122.815 131.635 122.845 C 131.793 122.878 131.925 122.679 131.963 122.35 C 131.998 122.047 132.115 121.8 132.223 121.8 C 132.332 121.8 132.56 121.463 132.73 121.05 C 132.9 120.638 133.173 120.15 133.335 119.968 C 133.652 119.611 133.76 119.22 133.785 118.35 C 133.795 117.966 133.905 117.8 134.15 117.8 C 134.41 117.799 134.513 117.611 134.552 117.07 C 134.582 116.657 134.755 116.23 134.952 116.087 C 135.335 115.806 135.339 115.792 135.375 114.488 C 135.389 113.969 135.482 113.627 135.59 113.694 C 135.834 113.845 136.2 113.164 136.2 112.558 C 136.2 112.3 136.389 111.927 136.621 111.729 C 137.008 111.397 137.038 111.189 136.994 109.134 C 136.935 106.34 136.927 106.4 137.365 106.4 C 138.119 106.4 138.644 105.513 138.752 104.06 C 138.807 103.312 138.917 102.655 138.996 102.6 C 139.362 102.346 139.55 101.581 139.585 100.203 C 139.613 99.118 139.717 98.602 139.962 98.332 C 140.234 98.031 140.314 97.449 140.37 95.336 C 140.428 93.186 140.5 92.671 140.77 92.473 C 141.058 92.264 141.109 91.608 141.166 87.386 C 141.218 83.638 141.294 82.477 141.505 82.267 C 142.138 81.633 142.158 77.076 141.531 76.119 C 141.264 75.712 141.208 74.904 141.192 71.232 C 141.177 67.634 141.122 66.813 140.89 66.724 C 140.734 66.664 140.656 66.486 140.717 66.328 C 140.778 66.17 140.731 65.981 140.614 65.908 C 140.485 65.829 140.4 64.974 140.4 63.76 C 140.4 62.083 140.341 61.696 140.05 61.457 C 139.858 61.299 139.813 61.227 139.95 61.297 C 140.287 61.468 140.266 61.205 139.912 60.813 C 139.74 60.623 139.606 59.996 139.579 59.25 C 139.548 58.376 139.428 57.89 139.175 57.619 C 138.872 57.294 138.72 56.658 138.559 55.041 C 138.545 54.899 138.409 54.831 138.256 54.889 C 138.104 54.948 138.034 54.906 138.101 54.798 C 138.169 54.689 138.148 54.6 138.055 54.6 C 137.963 54.6 137.869 54.173 137.848 53.65 C 137.82 52.972 137.693 52.605 137.404 52.368 C 137.153 52.161 137 51.795 137 51.399 C 137 50.931 136.894 50.735 136.6 50.658 C 136.37 50.598 136.2 50.385 136.2 50.158 C 136.2 49.935 136.031 49.718 135.811 49.661 C 135.55 49.592 135.402 49.353 135.361 48.931 C 135.317 48.475 135.149 48.231 134.75 48.04 C 134.447 47.896 134.2 47.699 134.2 47.603 C 134.2 47.414 133.41 47.091 133.133 47.166 C 133.041 47.191 132.918 47.028 132.859 46.804 C 132.8 46.579 132.544 46.343 132.289 46.279 C 132.002 46.207 131.867 46.059 131.933 45.887 C 132.008 45.691 131.805 45.574 131.237 45.483 C 130.686 45.395 130.404 45.236 130.336 44.977 C 130.282 44.77 130.063 44.6 129.85 44.6 C 129.636 44.6 129.299 44.42 129.1 44.2 C 128.885 43.963 128.484 43.8 128.113 43.8 C 127.718 43.8 127.382 43.653 127.2 43.4 C 126.999 43.121 126.682 43 126.156 43 C 125.612 43 125.4 42.915 125.4 42.695 C 125.4 42.374 124.486 41.923 124.197 42.102 C 124.104 42.16 123.894 42.016 123.731 41.784 C 123.554 41.53 123.139 41.321 122.698 41.261 C 122.292 41.207 121.788 41.013 121.577 40.831 C 121.366 40.649 120.787 40.455 120.292 40.4 C 119.796 40.345 119.4 40.22 119.412 40.122 C 119.456 39.768 118.874 39.606 117.55 39.603 C 116.334 39.6 116.2 39.56 116.2 39.2 C 116.2 38.843 116.067 38.8 114.948 38.8 C 113.913 38.8 113.653 38.731 113.446 38.4 C 113.309 38.18 113.085 38.001 112.948 38.003 C 112.785 38.005 112.803 38.073 113 38.2 C 113.18 38.316 113.205 38.395 113.062 38.397 C 112.931 38.399 112.768 38.31 112.7 38.2 C 112.632 38.09 111.856 38 110.976 38 C 110.017 38 109.423 37.924 109.494 37.81 C 109.691 37.49 108.852 37.184 107.549 37.1 C 106.769 37.05 106.23 36.912 106.095 36.727 C 105.968 36.553 105.616 36.453 105.229 36.479 C 104.87 36.504 104.542 36.468 104.5 36.4 C 104.457 36.331 103.324 36.255 101.982 36.231 C 99.455 36.186 99.101 36.122 99.328 35.755 C 99.405 35.631 99.369 35.595 99.245 35.672 C 99.125 35.746 98.973 35.718 98.906 35.609 C 98.666 35.221 63.364 35.347 62.806 35.738 M 90.601 45.282 C 91.976 45.437 94.293 45.625 95.75 45.7 C 97.208 45.775 98.873 45.962 99.45 46.116 C 100.028 46.269 100.86 46.396 101.3 46.398 C 102.027 46.4 106.178 47.116 108.4 47.623 C 111.469 48.323 114.537 49.154 115.3 49.492 C 115.63 49.638 116.215 49.823 116.6 49.902 C 116.985 49.981 117.39 50.114 117.5 50.197 C 117.61 50.28 118.06 50.461 118.5 50.6 C 118.94 50.738 119.525 50.969 119.8 51.112 C 120.582 51.52 122.562 52.4 122.697 52.4 C 122.926 52.4 126.099 54.27 126.8 54.819 C 128.247 55.95 129.057 58.395 130.528 66.074 C 130.694 66.939 130.911 68.964 131.011 70.574 C 131.111 72.183 131.284 74.265 131.395 75.2 C 131.654 77.38 131.654 81.224 131.394 83.4 C 131.283 84.335 131.108 86.495 131.005 88.2 C 130.903 89.905 130.68 91.958 130.51 92.763 C 130.339 93.568 130.2 94.552 130.2 94.95 C 130.2 95.348 130.067 96.175 129.905 96.787 C 129.743 97.399 129.425 98.8 129.199 99.9 C 128.374 103.909 128.194 104.667 128.016 104.881 C 127.917 105.002 127.77 105.451 127.69 105.881 C 127.61 106.311 127.278 107.391 126.954 108.281 C 126.63 109.171 126.237 110.305 126.081 110.8 C 125.926 111.295 125.669 111.97 125.512 112.3 C 125.354 112.63 125.03 113.35 124.792 113.9 C 123.17 117.648 118.894 124.968 117.257 126.8 C 117.109 126.965 116.461 127.82 115.816 128.7 C 115.171 129.58 114.431 130.53 114.172 130.811 C 113.912 131.092 113.038 132.111 112.229 133.074 C 110.421 135.228 105.497 140.208 103.193 142.214 C 100.98 144.141 100.318 144.678 96.852 147.354 C 96.605 147.544 96.21 147.856 95.974 148.048 C 95.162 148.705 88.817 152.861 87.616 153.523 C 87.239 153.73 86.519 154.13 86.016 154.411 C 81.008 157.208 80.993 157.211 78.459 155.868 C 75.452 154.276 74.941 153.99 73.5 153.091 C 72.73 152.611 71.785 152.031 71.4 151.803 C 70.25 151.122 66.337 148.491 65.734 147.993 C 65.605 147.886 64.69 147.175 63.7 146.412 C 58.774 142.613 52.35 136.536 49.411 132.893 C 48.704 132.017 47.985 131.158 47.813 130.984 C 47.505 130.673 47.351 130.475 45.655 128.222 C 45.191 127.605 44.675 126.92 44.508 126.7 C 44.341 126.48 43.982 125.963 43.709 125.551 C 43.436 125.139 43.043 124.554 42.836 124.251 C 41.799 122.736 40.6 120.857 40.6 120.745 C 40.6 120.676 40.341 120.233 40.025 119.76 C 39.353 118.754 37.687 115.461 36.909 113.6 C 36.61 112.885 36.245 112.03 36.098 111.7 C 35.951 111.37 35.767 110.83 35.688 110.5 C 35.61 110.17 35.43 109.675 35.289 109.4 C 34.833 108.514 33.92 105.498 33.198 102.5 C 32.382 99.111 32.208 98.283 32.204 97.774 C 32.202 97.485 32.077 96.945 31.926 96.574 C 31.775 96.203 31.591 95.18 31.517 94.3 C 31.442 93.42 31.256 91.935 31.102 91 C 30.22 85.629 30.223 73.018 31.108 67.8 C 31.267 66.865 31.48 65.392 31.582 64.526 C 31.684 63.661 31.864 62.856 31.984 62.736 C 32.103 62.617 32.2 62.226 32.2 61.866 C 32.2 61.507 32.425 60.523 32.7 59.681 C 32.975 58.838 33.2 58.062 33.2 57.957 C 33.2 56.459 35.277 54.281 37.809 53.124 C 38.189 52.95 38.635 52.72 38.8 52.612 C 38.965 52.504 39.64 52.181 40.3 51.895 C 40.96 51.609 41.671 51.282 41.879 51.168 C 42.278 50.949 43.151 50.637 46.1 49.659 C 49.68 48.472 51.236 48.059 54.6 47.402 C 55.645 47.198 57.205 46.889 58.068 46.716 C 58.93 46.542 60.01 46.399 60.468 46.398 C 60.925 46.396 61.777 46.268 62.36 46.113 C 62.942 45.958 64.652 45.767 66.16 45.689 C 67.667 45.611 69.845 45.433 71 45.295 C 74.062 44.928 87.386 44.919 90.601 45.282 M 80.075 54.93 C 79.888 55.378 78.479 56.943 76.43 58.98 C 74.404 60.993 72.482 63.127 71.546 64.4 C 70.698 65.555 69.89 66.631 69.752 66.791 C 69.613 66.951 69.387 67.311 69.248 67.591 C 69.11 67.871 68.779 68.46 68.512 68.9 C 68.246 69.34 67.895 69.982 67.734 70.326 C 67.573 70.67 67.349 71.008 67.236 71.078 C 67.123 71.148 66.973 71.467 66.903 71.788 C 66.832 72.11 66.644 72.48 66.485 72.612 C 66.326 72.744 66.139 73.208 66.07 73.643 C 66 74.078 65.824 74.48 65.677 74.536 C 65.531 74.593 65.35 74.967 65.276 75.369 C 65.203 75.771 64.975 76.315 64.771 76.577 C 64.334 77.138 64.237 78.886 64.65 78.752 C 64.788 78.707 65.022 78.421 65.17 78.116 C 65.57 77.295 65.895 77.773 65.924 79.225 C 65.946 80.356 65.999 80.484 66.774 81.273 C 67.269 81.778 67.6 82.303 67.6 82.586 C 67.6 82.844 67.742 83.16 67.916 83.287 C 68.144 83.454 68.261 83.988 68.335 85.209 C 68.409 86.422 68.546 87.053 68.819 87.442 C 69.034 87.747 69.2 88.32 69.2 88.753 C 69.2 89.363 69.339 89.656 69.874 90.175 C 70.416 90.7 70.573 91.036 70.673 91.886 C 70.741 92.468 71.023 93.544 71.298 94.277 C 71.614 95.115 71.8 96.022 71.8 96.721 C 71.8 97.703 71.885 97.936 72.525 98.717 C 73.04 99.345 73.278 99.859 73.35 100.492 C 73.407 101.005 73.609 101.528 73.825 101.723 C 74.06 101.935 74.2 102.332 74.2 102.786 C 74.2 103.185 74.342 103.714 74.516 103.962 C 74.69 104.21 74.917 105.013 75.021 105.746 C 75.125 106.479 75.331 107.219 75.479 107.39 C 75.628 107.56 75.795 108.134 75.852 108.664 C 75.918 109.29 76.102 109.765 76.377 110.021 C 76.681 110.305 76.8 110.658 76.8 111.277 C 76.8 111.884 76.918 112.245 77.2 112.5 C 77.42 112.699 77.6 113.096 77.6 113.383 C 77.6 113.687 77.766 114.008 78 114.154 C 78.31 114.347 78.4 114.62 78.4 115.371 C 78.4 116.084 78.505 116.433 78.8 116.7 C 79.103 116.975 79.2 117.316 79.2 118.114 C 79.2 118.693 79.281 119.197 79.381 119.233 C 79.846 119.404 80.21 127.193 79.922 130.8 C 79.742 133.051 79.509 134.549 79.285 134.9 C 79.02 135.315 79.029 135.353 79.908 137.6 C 80.059 137.985 80.188 138.66 80.194 139.1 C 80.201 139.54 80.337 140.44 80.496 141.1 C 80.665 141.8 80.789 143.322 80.793 144.753 L 80.8 147.206 L 81.45 147.602 C 82.184 148.05 82.989 148.125 83.022 147.75 C 83.035 147.613 83.057 145.34 83.072 142.7 C 83.098 138.317 83.134 137.839 83.496 137.2 C 84.347 135.693 84.417 135.417 84.041 135.041 C 82.894 133.894 82.178 132.11 81.667 129.126 C 81.495 128.122 81.196 126.985 81.001 126.6 C 80.314 125.237 80.353 120.838 81.083 117.553 C 81.938 113.699 81.996 56.907 81.146 54.95 C 80.737 54.008 80.462 54.003 80.075 54.93 M 63.707 79.342 C 63.52 80.089 63.931 80.408 64.193 79.72 C 64.452 79.036 64.455 79.064 64.118 78.935 C 63.936 78.865 63.791 79.008 63.707 79.342 M 311.6 81.293 C 311.6 81.344 311.778 81.481 311.995 81.598 C 312.318 81.77 312.369 81.753 312.274 81.505 C 312.171 81.235 311.6 81.056 311.6 81.293 M 322.8 81.4 C 322.965 81.507 323.235 81.594 323.4 81.594 C 323.667 81.594 323.667 81.572 323.4 81.4 C 323.235 81.293 322.965 81.206 322.8 81.206 C 322.533 81.206 322.533 81.228 322.8 81.4 M 325 81.4 C 324.733 81.572 324.733 81.594 325 81.594 C 325.165 81.594 325.435 81.507 325.6 81.4 C 325.867 81.228 325.867 81.206 325.6 81.206 C 325.435 81.206 325.165 81.293 325 81.4 M 326 81.354 C 326 81.483 325.707 81.673 325.35 81.776 L 324.7 81.964 L 325.438 81.982 C 326.226 82.001 326.587 81.707 326.223 81.343 C 326.059 81.179 326 81.182 326 81.354 M 349.387 81.485 C 349.671 81.827 350.101 81.925 349.901 81.602 C 349.831 81.489 349.911 81.455 350.088 81.523 C 350.259 81.589 350.348 81.722 350.287 81.821 C 350.226 81.919 350.278 82 350.403 82 C 350.995 82 350.45 81.296 349.811 81.235 C 349.206 81.177 349.156 81.206 349.387 81.485 M 322.2 81.636 C 322.2 81.883 322.69 82.044 323.202 81.966 C 323.546 81.913 323.488 81.855 322.917 81.68 C 322.523 81.559 322.2 81.539 322.2 81.636 M 337.41 91.418 C 337.522 91.628 337.723 91.793 337.857 91.784 C 338.04 91.772 338.038 91.744 337.85 91.668 C 337.713 91.612 337.6 91.479 337.6 91.372 C 337.6 91.264 337.713 91.241 337.85 91.32 C 337.988 91.399 338.03 91.387 337.944 91.293 C 337.606 90.922 337.195 91.018 337.41 91.418 M 359.55 91.341 C 359.798 91.389 360.203 91.389 360.45 91.341 C 360.697 91.293 360.495 91.254 360 91.254 C 359.505 91.254 359.303 91.293 359.55 91.341 M 278.055 96.33 C 278.027 96.996 278.086 97.371 278.205 97.297 C 278.433 97.156 278.471 95.467 278.25 95.333 C 278.168 95.283 278.08 95.732 278.055 96.33 M 358.8 95.6 C 358.8 95.84 359.542 95.84 360.1 95.6 C 360.41 95.467 360.308 95.425 359.65 95.414 C 359.183 95.406 358.8 95.49 358.8 95.6 M 360.89 95.788 C 360.786 95.891 360.25 96.01 359.7 96.052 C 358.811 96.119 358.85 96.132 360.05 96.164 C 361.133 96.193 361.4 96.141 361.4 95.9 C 361.4 95.56 361.171 95.51 360.89 95.788 M 220.85 101.7 C 220.853 102.14 220.894 102.296 220.941 102.048 C 220.989 101.799 220.987 101.439 220.937 101.248 C 220.887 101.056 220.848 101.26 220.85 101.7 M 351.41 103.937 C 351.398 104.47 351.77 105.497 351.92 105.347 C 351.979 105.287 351.891 104.847 351.724 104.369 C 351.532 103.822 351.416 103.662 351.41 103.937 M 332.44 106.64 C 332.097 106.983 332.143 107.179 332.56 107.148 C 332.759 107.133 332.933 106.959 332.948 106.76 C 332.979 106.343 332.783 106.297 332.44 106.64 M 365.703 107.395 C 365.545 107.65 365.873 107.802 366.176 107.615 C 366.377 107.49 366.366 107.43 366.123 107.337 C 365.952 107.271 365.763 107.297 365.703 107.395 M 314.133 107.533 C 313.918 107.749 313.98 107.933 314.267 107.933 C 314.413 107.933 314.533 107.813 314.533 107.667 C 314.533 107.38 314.349 107.318 314.133 107.533 M 311.957 108.383 C 312.059 108.657 312.029 108.663 311.737 108.426 C 311.552 108.275 311.4 108.242 311.4 108.354 C 311.4 108.736 311.991 108.79 312.186 108.426 C 312.327 108.163 312.306 108.067 312.108 108.067 C 311.945 108.067 311.885 108.192 311.957 108.383 M 244.289 110.217 C 244.215 110.337 244.255 110.535 244.377 110.657 C 244.541 110.821 244.6 110.763 244.6 110.44 C 244.6 109.957 244.496 109.883 244.289 110.217 M 332.517 111.529 C 332.313 112.058 332.576 112.113 333.05 111.639 L 333.489 111.2 L 333.066 111.2 C 332.833 111.2 332.586 111.348 332.517 111.529 M 314 112.21 C 314 112.849 316.752 113.053 317.226 112.45 C 317.467 112.142 317.462 112.129 317.189 112.342 C 316.961 112.52 316.535 112.536 315.589 112.401 L 314.3 112.219 L 315.55 112.29 C 316.237 112.33 316.841 112.295 316.892 112.214 C 316.942 112.132 316.312 112.058 315.492 112.05 C 314.671 112.042 314 112.114 314 112.21 M 352.5 112.4 C 352.722 112.645 353.116 112.8 353.519 112.8 C 354.488 112.8 354.498 112.509 353.531 112.442 C 353.074 112.411 352.67 112.298 352.633 112.192 C 352.597 112.087 352.47 112 352.352 112 C 352.234 112 352.301 112.18 352.5 112.4 M 352.8 112.077 C 352.8 112.12 353.065 112.194 353.389 112.241 C 353.714 112.289 353.933 112.254 353.878 112.164 C 353.779 112.003 352.8 111.925 352.8 112.077 M 269.4 121 C 269.4 121.11 269.62 121.2 269.888 121.2 C 270.157 121.2 270.432 121.11 270.5 121 C 270.572 120.883 270.369 120.8 270.012 120.8 C 269.675 120.8 269.4 120.89 269.4 121" stroke-linecap="round" />
</g>
		<g transform="matrix(1 0 0 1 -119.5 -1.66)" id="path1"  >
<path style="stroke: none; stroke-width: 1; stroke-dasharray: none; stroke-linecap: butt; stroke-dashoffset: 0; stroke-linejoin: miter; stroke-miterlimit: 4; fill: rgb(80,152,71); fill-rule: evenodd; opacity: 1;"  transform=" translate(-80.5, -98.34)" d="M 56.706 36.39 C 56.641 36.495 56.782 36.542 57.022 36.496 C 57.619 36.381 57.756 36.2 57.245 36.2 C 57.013 36.2 56.771 36.285 56.706 36.39 M 39.098 41.404 C 39.051 41.479 39.132 41.704 39.277 41.902 C 39.524 42.24 39.547 42.231 39.636 41.765 C 39.725 41.3 39.327 41.033 39.098 41.404 M 71 45.295 C 69.845 45.433 67.667 45.611 66.16 45.689 C 64.652 45.767 62.942 45.958 62.36 46.113 C 61.777 46.268 60.925 46.396 60.468 46.398 C 60.01 46.399 58.93 46.542 58.068 46.716 C 57.205 46.889 55.645 47.198 54.6 47.402 C 51.236 48.059 49.68 48.472 46.1 49.659 C 43.151 50.637 42.278 50.949 41.879 51.168 C 41.671 51.282 40.96 51.609 40.3 51.895 C 39.64 52.181 38.965 52.504 38.8 52.612 C 38.635 52.72 38.189 52.95 37.809 53.124 C 35.277 54.281 33.2 56.459 33.2 57.957 C 33.2 58.062 32.975 58.838 32.7 59.681 C 32.425 60.523 32.2 61.507 32.2 61.866 C 32.2 62.226 32.103 62.617 31.984 62.736 C 31.864 62.856 31.684 63.661 31.582 64.526 C 31.48 65.392 31.267 66.865 31.108 67.8 C 30.223 73.018 30.22 85.629 31.102 91 C 31.256 91.935 31.442 93.42 31.517 94.3 C 31.591 95.18 31.775 96.203 31.926 96.574 C 32.077 96.945 32.202 97.485 32.204 97.774 C 32.216 99.205 34.527 107.918 35.289 109.4 C 35.43 109.675 35.61 110.17 35.688 110.5 C 35.767 110.83 35.951 111.37 36.098 111.7 C 36.245 112.03 36.61 112.885 36.909 113.6 C 37.687 115.461 39.353 118.754 40.025 119.76 C 40.341 120.233 40.6 120.676 40.6 120.745 C 40.6 120.857 41.799 122.736 42.836 124.251 C 43.043 124.554 43.436 125.139 43.709 125.551 C 43.982 125.963 44.341 126.48 44.508 126.7 C 44.675 126.92 45.191 127.605 45.655 128.222 C 47.351 130.475 47.505 130.673 47.813 130.984 C 47.985 131.158 48.704 132.017 49.411 132.893 C 52.35 136.536 58.774 142.613 63.7 146.412 C 64.69 147.175 65.605 147.886 65.734 147.993 C 66.337 148.491 70.25 151.122 71.4 151.803 C 71.785 152.031 72.73 152.611 73.5 153.091 C 74.941 153.99 75.452 154.276 78.459 155.868 C 80.993 157.211 81.008 157.208 86.016 154.411 C 86.519 154.13 87.239 153.73 87.616 153.523 C 88.817 152.861 95.162 148.705 95.974 148.048 C 96.21 147.856 96.605 147.544 96.852 147.354 C 100.318 144.678 100.98 144.141 103.193 142.214 C 105.497 140.208 110.421 135.228 112.229 133.074 C 113.038 132.111 113.912 131.092 114.172 130.811 C 114.431 130.53 115.171 129.58 115.816 128.7 C 116.461 127.82 117.109 126.965 117.257 126.8 C 118.894 124.968 123.17 117.648 124.792 113.9 C 125.03 113.35 125.354 112.63 125.512 112.3 C 125.669 111.97 125.926 111.295 126.081 110.8 C 126.237 110.305 126.63 109.171 126.954 108.281 C 127.278 107.391 127.61 106.311 127.69 105.881 C 127.77 105.451 127.917 105.002 128.016 104.881 C 128.194 104.667 128.374 103.909 129.199 99.9 C 129.425 98.8 129.743 97.399 129.905 96.787 C 130.067 96.175 130.2 95.348 130.2 94.95 C 130.2 94.552 130.339 93.568 130.51 92.763 C 130.68 91.958 130.903 89.905 131.005 88.2 C 131.108 86.495 131.283 84.335 131.394 83.4 C 131.654 81.224 131.654 77.38 131.395 75.2 C 131.284 74.265 131.111 72.183 131.011 70.574 C 130.911 68.964 130.694 66.939 130.528 66.074 C 129.057 58.395 128.247 55.95 126.8 54.819 C 126.099 54.27 122.926 52.4 122.697 52.4 C 122.562 52.4 120.582 51.52 119.8 51.112 C 119.525 50.969 118.94 50.738 118.5 50.6 C 118.06 50.461 117.61 50.28 117.5 50.197 C 117.39 50.114 116.985 49.981 116.6 49.902 C 116.215 49.823 115.63 49.638 115.3 49.492 C 113.37 48.637 103.264 46.403 101.3 46.398 C 100.86 46.396 100.028 46.269 99.45 46.116 C 98.873 45.962 97.208 45.775 95.75 45.7 C 94.293 45.625 91.976 45.437 90.601 45.282 C 87.386 44.919 74.062 44.928 71 45.295 M 91.364 45.9 C 94.04 46.063 97.138 46.332 98.25 46.498 C 99.361 46.664 100.643 46.8 101.099 46.8 C 101.555 46.8 102.371 46.93 102.914 47.088 C 103.456 47.247 104.662 47.479 105.594 47.604 C 106.526 47.729 107.365 47.878 107.458 47.936 C 107.551 47.993 108.364 48.201 109.264 48.396 C 117.96 50.287 126.401 54.091 127.597 56.656 C 128.027 57.58 128.872 60.433 129.09 61.7 C 129.166 62.14 129.352 62.905 129.503 63.4 C 131.225 69.036 131.269 88.925 129.575 95.7 C 129.465 96.14 129.291 96.995 129.188 97.6 C 128.699 100.471 126.965 107.034 126.123 109.2 C 125.973 109.585 125.648 110.44 125.4 111.1 C 124.657 113.078 123.152 116.463 122.764 117.031 C 122.564 117.323 122.4 117.62 122.4 117.69 C 122.4 118.016 119.984 121.981 118.155 124.658 C 110.408 135.996 98.938 146.494 86.556 153.579 C 85.376 154.253 84.206 154.896 83.956 155.006 C 83.705 155.116 83.007 155.475 82.404 155.803 C 81.041 156.546 80.759 156.546 79.396 155.803 C 78.793 155.475 78.095 155.116 77.844 155.006 C 75.657 154.043 69.807 150.324 65.016 146.851 C 64.185 146.248 60.326 143.134 59.501 142.4 C 56.662 139.874 54.944 138.203 52.4 135.488 C 47.964 130.754 45.294 127.272 41.294 121 C 39.702 118.503 37.756 114.544 36.479 111.2 C 35.421 108.43 35.216 107.83 34.607 105.7 C 33.491 101.797 33.248 100.784 32.695 97.704 C 32.537 96.827 32.356 95.974 32.293 95.811 C 30.694 91.642 30.632 68.939 32.207 63.9 C 32.31 63.57 32.483 62.805 32.592 62.2 C 33.169 58.984 34.316 56.103 35.38 55.193 C 36.174 54.515 41.248 51.802 41.729 51.799 C 41.823 51.798 42.14 51.672 42.433 51.52 C 42.726 51.367 43.941 50.912 45.133 50.509 C 46.325 50.107 47.48 49.701 47.7 49.608 C 48.129 49.427 49.917 48.976 52.5 48.399 C 53.38 48.202 54.235 47.989 54.4 47.926 C 54.565 47.862 55.555 47.674 56.6 47.507 C 57.645 47.34 58.995 47.117 59.6 47.011 C 66.795 45.75 80.824 45.259 91.364 45.9 M 80.335 53.35 C 80.115 53.724 79.984 54.898 80.201 54.55 C 80.534 54.018 80.788 54.125 81.146 54.95 C 81.996 56.907 81.938 113.699 81.083 117.553 C 80.353 120.838 80.314 125.237 81.001 126.6 C 81.196 126.985 81.495 128.122 81.667 129.126 C 82.194 132.204 82.766 133.608 84.12 135.152 L 84.651 135.757 L 85.376 135.1 C 85.774 134.738 86.775 133.864 87.6 133.157 C 92.113 129.29 96.907 122.403 99.266 116.4 C 100.756 112.608 101.296 110.498 102.229 104.827 C 102.502 103.166 102.34 93.503 102.012 91.9 C 100.935 86.638 99.694 82.603 97.707 77.9 C 95.256 72.097 92.051 67.358 86.419 61.21 C 83.601 58.133 82.015 55.857 81.709 54.448 C 81.502 53.497 80.65 52.816 80.335 53.35 M 77.6 57.449 C 74.888 59.484 70.993 63.846 68.715 67.4 C 68.397 67.895 67.972 68.544 67.769 68.842 C 67.566 69.14 67.4 69.448 67.4 69.526 C 67.4 69.604 67.272 69.811 67.115 69.984 C 66.774 70.363 64.323 75.215 63.915 76.32 C 63.757 76.749 63.436 77.595 63.201 78.2 C 61.689 82.096 60.378 87.323 59.991 91 C 59.893 91.935 59.722 93.375 59.612 94.2 C 59.165 97.553 59.482 104.34 60.228 107.4 C 60.349 107.895 60.566 108.84 60.711 109.5 C 60.977 110.716 62.59 115.436 62.975 116.125 C 63.09 116.331 63.427 117.04 63.723 117.7 C 66.342 123.531 72.519 131.335 77.8 135.484 C 78.978 136.41 79.482 136.424 79.136 135.523 C 79.078 135.371 79.146 135.078 79.287 134.873 C 79.512 134.546 79.739 133.095 79.922 130.8 C 80.21 127.193 79.846 119.404 79.381 119.233 C 79.281 119.197 79.2 118.693 79.2 118.114 C 79.2 117.316 79.103 116.975 78.8 116.7 C 78.505 116.433 78.4 116.084 78.4 115.371 C 78.4 114.62 78.31 114.347 78 114.154 C 77.766 114.008 77.6 113.687 77.6 113.383 C 77.6 113.096 77.42 112.699 77.2 112.5 C 76.918 112.245 76.8 111.884 76.8 111.277 C 76.8 110.658 76.681 110.305 76.377 110.021 C 76.102 109.765 75.918 109.29 75.852 108.664 C 75.795 108.134 75.628 107.56 75.479 107.39 C 75.331 107.219 75.125 106.479 75.021 105.746 C 74.917 105.013 74.69 104.21 74.516 103.962 C 74.342 103.714 74.2 103.185 74.2 102.786 C 74.2 102.332 74.06 101.935 73.825 101.723 C 73.609 101.528 73.407 101.005 73.35 100.492 C 73.278 99.859 73.04 99.345 72.525 98.717 C 71.885 97.936 71.8 97.703 71.8 96.721 C 71.8 96.022 71.614 95.115 71.298 94.277 C 71.023 93.544 70.741 92.468 70.673 91.886 C 70.573 91.036 70.416 90.7 69.874 90.175 C 69.339 89.656 69.2 89.363 69.2 88.753 C 69.2 88.32 69.034 87.747 68.819 87.442 C 68.546 87.053 68.409 86.422 68.335 85.209 C 68.261 83.988 68.144 83.454 67.916 83.287 C 67.742 83.16 67.6 82.844 67.6 82.586 C 67.6 82.303 67.269 81.778 66.774 81.273 C 65.999 80.484 65.946 80.356 65.924 79.225 C 65.895 77.773 65.57 77.295 65.17 78.116 C 65.022 78.421 64.788 78.707 64.65 78.752 C 64.237 78.886 64.334 77.138 64.771 76.577 C 64.975 76.315 65.203 75.771 65.276 75.369 C 65.35 74.967 65.531 74.593 65.677 74.536 C 65.824 74.48 66 74.078 66.07 73.643 C 66.139 73.208 66.326 72.744 66.485 72.612 C 66.644 72.48 66.832 72.11 66.903 71.788 C 66.973 71.467 67.123 71.148 67.236 71.078 C 67.349 71.008 67.573 70.67 67.734 70.326 C 67.895 69.982 68.246 69.34 68.512 68.9 C 68.779 68.46 69.11 67.871 69.248 67.591 C 69.387 67.311 69.613 66.951 69.752 66.791 C 69.89 66.631 70.697 65.555 71.545 64.4 C 72.426 63.2 74.319 61.078 75.959 59.45 C 77.539 57.883 78.802 56.605 78.766 56.611 C 78.73 56.618 78.205 56.995 77.6 57.449 M 64.4 79.108 C 64.4 79.53 63.947 80.227 63.781 80.061 C 63.483 79.763 63.771 78.801 64.118 78.935 C 64.273 78.994 64.4 79.072 64.4 79.108 M 23.14 105.126 C 22.966 105.301 23.364 106 23.638 106 C 23.764 106 23.717 105.84 23.531 105.634 C 23.348 105.432 23.259 105.207 23.333 105.134 C 23.406 105.06 23.422 105 23.367 105 C 23.312 105 23.21 105.057 23.14 105.126 M 24.15 106.156 C 23.674 106.256 23.704 106.8 24.186 106.8 C 24.427 106.8 24.605 106.969 24.659 107.25 C 24.726 107.601 24.751 107.568 24.77 107.1 C 24.8 106.356 24.605 106.06 24.15 106.156 M 136.88 106.909 C 136.809 107.189 136.808 107.474 136.876 107.543 C 136.944 107.611 137 107.517 137 107.333 C 137 107.112 137.166 107 137.494 107 C 137.85 107 137.955 106.917 137.872 106.7 C 137.682 106.204 137.022 106.343 136.88 106.909 M 65.55 159.732 C 65.688 159.788 65.8 159.921 65.8 160.028 C 65.8 160.136 65.71 160.168 65.6 160.1 C 65.49 160.032 65.4 160.061 65.4 160.165 C 65.4 160.269 65.61 160.393 65.866 160.442 C 66.263 160.518 66.318 160.463 66.242 160.066 C 66.181 159.744 66.021 159.605 65.727 159.616 C 65.492 159.624 65.413 159.677 65.55 159.732" stroke-linecap="round" />
</g>
		<g transform="matrix(1 0 0 1 26.85 1.06)" id="path2"  >
<path style="stroke: none; stroke-width: 1; stroke-dasharray: none; stroke-linecap: butt; stroke-dashoffset: 0; stroke-linejoin: miter; stroke-miterlimit: 4; fill: rgb(140,116,76); fill-rule: evenodd; opacity: 1;"  transform=" translate(-226.85, -101.06)" d="M 79.825 54.395 C 79.685 54.862 79.113 55.711 78.443 56.445 C 77.393 57.595 77.365 57.649 78.1 57.102 C 79.283 56.222 79.882 55.429 80.046 54.528 C 80.239 53.467 80.124 53.398 79.825 54.395 M 311.36 77.161 C 310.853 77.204 310.583 77.338 310.503 77.59 C 310.439 77.792 310.21 78.003 309.993 78.06 C 309.646 78.151 309.6 78.339 309.6 79.681 L 309.6 81.2 L 310.887 81.2 C 311.997 81.2 312.19 81.255 312.3 81.6 C 312.406 81.935 312.603 82 313.516 82 L 314.605 82 L 314.597 94.965 L 314.589 107.929 L 313.644 107.973 C 313.125 107.998 312.52 108.052 312.3 108.094 C 312.08 108.135 311.827 108.176 311.738 108.185 C 311.649 108.193 311.638 108.3 311.713 108.421 C 311.809 108.576 311.907 108.561 312.04 108.371 C 312.194 108.152 312.215 108.157 312.149 108.399 C 312.104 108.564 311.94 108.707 311.784 108.719 C 311.101 108.768 311 108.817 311 109.1 C 311 109.265 310.905 109.4 310.788 109.4 C 310.672 109.4 310.641 109.296 310.719 109.169 C 310.8 109.039 310.775 108.992 310.661 109.062 C 310.551 109.13 310.443 109.819 310.42 110.593 L 310.379 112 L 312.278 112 C 313.322 112 314.224 112.077 314.283 112.172 C 314.639 112.749 327.7 112.971 327.7 112.4 C 327.7 112.154 328.119 112.09 330.05 112.044 C 331.488 112.009 332.4 111.908 332.4 111.782 C 332.4 111.669 332.489 111.631 332.598 111.699 C 332.711 111.769 332.745 111.688 332.676 111.51 C 332.578 111.253 332.746 111.2 333.662 111.2 C 334.951 111.2 335.4 111.065 335.4 110.679 C 335.4 110.505 335.617 110.4 335.976 110.4 C 336.552 110.4 337.112 109.979 336.865 109.732 C 336.793 109.659 336.973 109.6 337.267 109.6 C 337.656 109.6 337.8 109.498 337.8 109.222 C 337.8 108.949 337.993 108.808 338.494 108.714 C 338.876 108.643 339.304 108.424 339.444 108.229 C 339.585 108.033 339.863 107.813 340.063 107.738 C 340.262 107.664 340.37 107.513 340.301 107.402 C 340.233 107.292 340.4 107.1 340.672 106.976 C 340.944 106.853 341.21 106.582 341.265 106.375 C 341.329 106.128 341.473 106.041 341.681 106.121 C 341.932 106.217 342 106.106 342 105.6 C 342 105.101 342.07 104.984 342.31 105.076 C 342.488 105.145 342.569 105.111 342.499 104.998 C 342.431 104.889 342.472 104.8 342.588 104.8 C 342.705 104.8 342.8 104.63 342.8 104.423 C 342.8 104.216 343.025 103.899 343.3 103.718 C 343.669 103.477 343.8 103.215 343.8 102.719 C 343.8 102.215 343.9 102.02 344.2 101.942 C 344.527 101.857 344.6 101.669 344.6 100.919 C 344.6 100.29 344.679 100.016 344.85 100.05 C 344.988 100.077 345.077 99.988 345.05 99.85 C 345.022 99.713 345.092 99.6 345.205 99.6 C 345.642 99.6 345.434 88.834 344.989 88.389 C 344.775 88.175 344.6 87.782 344.6 87.516 C 344.6 86.841 344.403 86.4 344.101 86.4 C 343.96 86.4 343.786 86.086 343.714 85.702 C 343.641 85.314 343.41 84.912 343.191 84.795 C 342.976 84.68 342.8 84.409 342.8 84.193 C 342.8 83.933 342.664 83.8 342.4 83.8 C 342.163 83.8 342 83.667 342 83.473 C 342 83.294 341.833 83.001 341.629 82.823 C 341.424 82.646 341.191 82.291 341.111 82.036 C 341.017 81.738 340.859 81.611 340.672 81.683 C 340.511 81.745 340.431 81.711 340.495 81.608 C 340.559 81.505 340.406 81.312 340.156 81.181 C 339.905 81.049 339.628 80.82 339.54 80.671 C 339.452 80.522 339.26 80.4 339.113 80.4 C 338.967 80.4 338.8 80.22 338.742 80 C 338.659 79.682 338.469 79.6 337.819 79.6 C 337.133 79.6 337 79.535 337 79.2 C 337 78.869 336.867 78.8 336.223 78.8 C 335.615 78.8 335.424 78.713 335.342 78.4 C 335.252 78.055 335.069 78 334.019 78 C 332.927 78 332.8 77.958 332.8 77.594 C 332.8 77.271 332.667 77.185 332.15 77.177 C 329.038 77.126 311.935 77.114 311.36 77.161 M 348.75 77.142 C 348.169 77.206 348 77.312 348 77.612 C 348 77.863 347.863 78 347.612 78 C 347.188 78 346.888 79.227 347.074 80.2 C 347.127 80.475 347.177 80.813 347.185 80.95 C 347.196 81.128 347.665 81.2 348.819 81.2 C 350.274 81.2 350.448 81.241 350.543 81.603 C 350.603 81.834 350.787 81.984 350.974 81.953 C 351.181 81.919 351.323 82.065 351.364 82.35 C 351.399 82.598 351.558 82.8 351.717 82.8 C 351.966 82.8 352.005 84.241 351.996 93.108 C 351.99 99.13 351.912 103.369 351.807 103.304 C 351.468 103.095 351.44 103.502 351.734 104.369 C 352.044 105.285 351.945 105.8 351.617 104.979 C 351.436 104.526 351.425 104.536 351.413 105.162 C 351.405 105.555 351.481 105.773 351.6 105.7 C 351.882 105.526 351.849 105.871 351.556 106.164 C 351.421 106.299 351.302 106.564 351.29 106.754 C 351.207 108.092 351.316 108 349.811 108 C 348.699 108 348.371 108.072 348.161 108.363 C 348.018 108.563 347.75 108.782 347.566 108.851 C 347.337 108.936 347.189 109.317 347.096 110.061 C 346.856 111.984 346.723 111.892 349.852 111.956 C 351.364 111.986 352.6 112.089 352.6 112.184 C 352.6 112.508 354.101 112.639 358.85 112.73 C 363.535 112.819 363.6 112.815 363.6 112.41 C 363.6 111.997 364.191 111.936 368.045 111.946 C 368.235 111.947 368.443 111.779 368.508 111.574 C 368.614 111.242 369.353 111.056 370.067 111.182 C 370.159 111.198 370.282 111.029 370.341 110.806 C 370.416 110.516 370.612 110.4 371.023 110.4 C 371.438 110.4 371.601 110.302 371.603 110.05 C 371.606 109.751 371.634 109.744 371.8 110 C 371.966 110.256 371.994 110.249 371.997 109.95 C 372 109.634 372.105 109.569 372.54 109.615 C 372.617 109.623 372.749 109.443 372.834 109.215 C 372.918 108.987 373.127 108.8 373.299 108.8 C 373.47 108.8 373.695 108.575 373.8 108.3 C 373.905 108.025 374.127 107.8 374.295 107.8 C 374.467 107.8 374.6 107.625 374.6 107.4 C 374.6 107.138 374.733 107 374.986 107 C 375.234 107 375.395 106.839 375.436 106.55 C 375.471 106.303 375.635 106.1 375.8 106.1 C 376.059 106.1 376.1 105.422 376.1 101.2 C 376.1 96.656 376.075 96.302 375.75 96.328 C 375.525 96.346 375.4 96.214 375.4 95.959 C 375.4 95.731 375.23 95.518 375 95.458 C 374.779 95.4 374.6 95.185 374.6 94.977 C 374.6 94.733 374.458 94.6 374.2 94.6 C 373.933 94.6 373.8 94.467 373.8 94.2 C 373.8 93.907 373.667 93.8 373.3 93.8 C 372.933 93.8 372.8 93.693 372.8 93.4 C 372.8 93.068 372.667 93 372.021 93 C 371.256 93 370.97 92.755 371.146 92.25 C 371.194 92.113 371.406 92 371.617 92 C 371.867 92 372 91.861 372 91.6 C 372 91.333 372.133 91.2 372.4 91.2 C 372.664 91.2 372.8 91.067 372.8 90.807 C 372.8 90.591 372.976 90.32 373.191 90.205 C 373.414 90.085 373.641 89.683 373.719 89.27 C 373.794 88.871 374.022 88.378 374.227 88.173 C 374.644 87.756 374.813 83.445 374.402 83.699 C 374.289 83.769 374.255 83.689 374.323 83.512 C 374.393 83.33 374.31 83.153 374.121 83.08 C 373.934 83.009 373.8 82.728 373.8 82.41 C 373.8 82.108 373.622 81.701 373.405 81.505 C 373.188 81.308 372.957 80.979 372.892 80.774 C 372.826 80.568 372.599 80.4 372.387 80.4 C 372.133 80.4 372 80.262 372 80 C 372 79.733 371.867 79.6 371.6 79.6 C 371.333 79.6 371.2 79.467 371.2 79.2 C 371.2 78.869 371.067 78.8 370.423 78.8 C 369.815 78.8 369.624 78.713 369.542 78.4 C 369.46 78.087 369.269 78 368.667 78 C 368.123 78 367.826 77.887 367.656 77.615 C 367.425 77.245 367.076 77.229 358.865 77.208 C 354.162 77.196 350.132 77.158 349.907 77.123 C 349.683 77.089 349.163 77.097 348.75 77.142 M 323.4 81.4 C 323.667 81.572 323.667 81.594 323.4 81.594 C 323.235 81.594 322.965 81.507 322.8 81.4 C 322.533 81.228 322.533 81.206 322.8 81.206 C 322.965 81.206 323.235 81.293 323.4 81.4 M 325.6 81.4 C 325.435 81.507 325.165 81.594 325 81.594 C 324.733 81.594 324.733 81.572 325 81.4 C 325.165 81.293 325.435 81.206 325.6 81.206 C 325.867 81.206 325.867 81.228 325.6 81.4 M 326.32 81.72 C 326.233 81.948 326.569 82 328.128 82 C 329.776 82 330.026 82.043 329.924 82.31 C 329.855 82.488 329.889 82.569 330.002 82.499 C 330.111 82.431 330.2 82.463 330.2 82.569 C 330.2 82.676 330.647 82.824 331.194 82.899 C 331.762 82.977 332.169 83.132 332.144 83.261 C 332.12 83.384 332.303 83.577 332.55 83.69 C 332.798 83.803 333 84.009 333 84.147 C 333 84.286 333.081 84.4 333.18 84.4 C 333.414 84.4 334.8 85.786 334.8 86.02 C 334.8 86.119 334.925 86.2 335.077 86.2 C 335.229 86.2 335.4 86.38 335.458 86.6 C 335.515 86.82 335.698 87 335.864 87 C 336.059 87 336.212 87.281 336.3 87.8 C 336.375 88.243 336.549 88.6 336.69 88.6 C 336.85 88.6 337.01 89.065 337.122 89.85 C 337.224 90.567 337.399 91.1 337.533 91.1 C 337.662 91.1 337.842 91.182 337.933 91.282 C 338.03 91.388 337.995 91.404 337.85 91.32 C 337.713 91.241 337.6 91.272 337.6 91.388 C 337.6 91.505 337.69 91.6 337.8 91.6 C 338.174 91.6 338.057 98.014 337.678 98.291 C 337.495 98.425 337.32 98.91 337.273 99.413 C 337.06 101.697 336.973 102.045 336.584 102.146 C 336.244 102.235 336.06 102.913 336.176 103.65 C 336.189 103.732 336.132 103.789 336.05 103.776 C 335.614 103.707 335.4 103.839 335.4 104.177 C 335.4 104.385 335.221 104.6 335 104.658 C 334.78 104.715 334.6 104.895 334.6 105.058 C 334.6 105.22 334.42 105.4 334.2 105.458 C 333.98 105.515 333.8 105.706 333.8 105.881 C 333.8 106.067 333.633 106.2 333.4 106.2 C 333.056 106.2 332.921 106.446 332.96 107 C 332.963 107.055 332.47 107.114 331.863 107.13 C 331.256 107.147 330.656 107.273 330.53 107.41 C 330.352 107.603 330.368 107.621 330.6 107.491 C 330.859 107.346 330.862 107.37 330.626 107.662 C 330.174 108.218 324.599 108.164 324.246 107.6 C 324.101 107.368 323.78 107.2 323.48 107.2 C 323.131 107.2 322.929 107.07 322.858 106.8 C 322.8 106.579 322.585 106.4 322.377 106.4 C 322.012 106.4 322 106.015 322 94.2 C 322 86.464 322.071 82 322.194 82 C 322.3 82 322.339 81.873 322.279 81.718 C 322.188 81.48 322.304 81.483 323.034 81.734 C 323.993 82.065 325.448 81.948 325.854 81.508 C 326.152 81.186 326.469 81.331 326.32 81.72 M 364.6 82.4 C 364.6 82.62 364.715 82.8 364.855 82.8 C 365.134 82.8 366.08 83.8 366.27 84.293 C 366.334 84.462 366.525 84.6 366.694 84.6 C 367.029 84.6 367.074 84.956 367.09 87.73 C 367.096 88.627 367.033 89.319 366.95 89.268 C 366.868 89.218 366.8 89.272 366.8 89.388 C 366.8 89.505 366.665 89.6 366.5 89.6 C 366.333 89.6 366.2 89.778 366.2 90 C 366.2 90.267 366.067 90.4 365.8 90.4 C 365.533 90.4 365.4 90.533 365.4 90.8 C 365.4 91.153 365.264 91.201 364.25 91.208 C 363.618 91.213 362.29 91.253 361.3 91.298 C 358.545 91.423 358.8 91.904 358.8 86.587 L 358.8 82 L 361.7 82 C 364.467 82 364.6 82.018 364.6 82.4 M 236.772 88.393 C 236.512 88.61 236.399 88.79 236.519 88.793 C 236.639 88.797 236.901 88.62 237.1 88.4 C 237.563 87.888 237.383 87.885 236.772 88.393 M 266.641 88.409 C 266.486 88.657 266.473 88.8 266.605 88.8 C 266.719 88.8 266.866 88.661 266.931 88.491 C 267.111 88.022 266.917 87.967 266.641 88.409 M 248.65 88.45 C 248.696 88.588 248.883 88.729 249.066 88.765 C 249.298 88.81 249.362 88.734 249.278 88.515 C 249.136 88.145 248.527 88.082 248.65 88.45 M 229.3 90.8 C 229.101 91.02 229.039 91.2 229.162 91.2 C 229.285 91.2 229.482 91.02 229.6 90.8 C 229.718 90.58 229.78 90.4 229.738 90.4 C 229.696 90.4 229.499 90.58 229.3 90.8 M 214.309 92.386 C 214.161 92.626 214.537 92.863 214.803 92.698 C 215.027 92.56 214.88 92.2 214.6 92.2 C 214.503 92.2 214.372 92.284 214.309 92.386 M 293.509 92.386 C 293.372 92.607 293.687 92.846 293.872 92.661 C 294.062 92.471 294.027 92.2 293.812 92.2 C 293.708 92.2 293.572 92.284 293.509 92.386 M 217.4 93.185 C 217.4 93.378 218.229 93.838 218.353 93.714 C 218.415 93.651 218.362 93.6 218.233 93.6 C 218.105 93.6 218 93.48 218 93.333 C 218 93.187 217.865 93.067 217.7 93.067 C 217.535 93.067 217.4 93.12 217.4 93.185 M 277.8 96.633 C 277.8 98.125 277.902 98.096 278.089 96.55 C 278.183 95.778 278.158 95.4 278.014 95.4 C 277.885 95.4 277.8 95.889 277.8 96.633 M 360.1 95.6 C 359.542 95.84 358.8 95.84 358.8 95.6 C 358.8 95.49 359.183 95.406 359.65 95.414 C 360.308 95.425 360.41 95.467 360.1 95.6 M 169.669 96.148 C 169.649 96.48 169.695 96.569 169.799 96.402 C 169.919 96.207 169.984 96.237 170.057 96.521 C 170.143 96.858 170.156 96.853 170.177 96.474 C 170.19 96.24 170.088 95.956 169.95 95.842 C 169.762 95.686 169.692 95.761 169.669 96.148 M 183.95 95.8 C 184.088 95.954 184.199 96.49 184.197 96.99 C 184.195 97.661 184.142 97.821 183.995 97.6 C 183.861 97.398 183.803 98.906 183.817 102.241 C 183.833 106.027 183.898 107.232 184.097 107.398 C 184.309 107.573 184.362 106.546 184.388 101.839 C 184.416 96.496 184.392 96.044 184.059 95.792 C 183.752 95.559 183.736 95.56 183.95 95.8 M 283.314 95.914 C 282.903 96.325 282.918 96.384 283.4 96.258 C 283.62 96.2 283.8 96.029 283.8 95.877 C 283.8 95.52 283.701 95.528 283.314 95.914 M 361.4 95.9 C 361.4 96.147 361.756 96.2 363.406 96.2 C 365.305 96.2 365.422 96.224 365.579 96.65 C 365.671 96.898 365.803 97.078 365.873 97.05 C 366.426 96.832 367.2 97.037 367.2 97.4 C 367.2 97.667 367.333 97.8 367.6 97.8 C 367.862 97.8 368 97.933 368 98.187 C 368 98.399 368.175 98.629 368.389 98.696 C 368.664 98.784 368.795 99.036 368.839 99.56 C 368.885 100.121 368.984 100.293 369.25 100.272 C 369.821 100.227 369.773 103.708 369.2 103.858 C 368.842 103.952 368.645 104.778 368.774 105.643 C 368.786 105.721 368.662 105.735 368.499 105.672 C 368.328 105.606 368.148 105.702 368.073 105.899 C 367.84 106.504 366.995 107.2 366.493 107.2 C 366.22 107.2 365.893 107.377 365.754 107.6 C 365.526 107.965 365.287 108 363.038 108 C 360.697 108 359.7 107.767 360.143 107.324 C 360.211 107.256 360.123 107.2 359.947 107.2 C 359.771 107.2 359.57 107.02 359.5 106.8 C 359.43 106.58 359.244 106.4 359.087 106.4 C 358.845 106.4 358.8 105.58 358.8 101.2 L 358.8 96 L 359.788 96 C 360.332 96 360.832 95.91 360.9 95.8 C 361.087 95.498 361.4 95.56 361.4 95.9 M 227 96.777 C 227 96.985 227.179 97.2 227.4 97.258 C 227.62 97.315 227.8 97.326 227.8 97.281 C 227.8 97.237 227.62 97.02 227.4 96.8 C 227.017 96.417 227 96.416 227 96.777 M 306.2 96.746 C 306.2 96.985 306.365 97.197 306.6 97.258 C 306.82 97.315 307 97.34 307 97.312 C 307 97.284 306.82 97.054 306.6 96.8 C 306.215 96.356 306.2 96.354 306.2 96.746 M 197.889 97.066 C 197.95 97.268 198 98.423 198 99.633 C 198 101.168 198.068 101.811 198.224 101.759 C 198.612 101.629 198.517 97.691 198.113 97.149 C 197.854 96.803 197.803 96.784 197.889 97.066 M 289.462 98.9 C 289.463 99.56 289.5 99.806 289.545 99.446 C 289.589 99.087 289.589 98.547 289.543 98.246 C 289.497 97.946 289.461 98.24 289.462 98.9 M 220.667 100.039 C 220.691 100.445 220.776 100.843 220.855 100.922 C 221.092 101.158 221.02 102.36 220.764 102.445 C 220.487 102.538 220.689 103.2 220.994 103.2 C 221.31 103.2 221.236 100.39 220.905 99.8 C 220.626 99.304 220.624 99.306 220.667 100.039 M 299.892 101.553 C 299.899 103.246 299.944 103.547 300.15 103.265 C 300.439 102.87 300.495 100.2 300.215 100.2 C 300.113 100.2 299.996 100.043 299.956 99.85 C 299.916 99.658 299.887 100.424 299.892 101.553 M 266.2 100.906 C 266.2 101.068 266.335 101.2 266.5 101.2 C 266.665 101.2 266.8 101.12 266.8 101.021 C 266.8 100.923 266.665 100.791 266.5 100.728 C 266.317 100.658 266.2 100.727 266.2 100.906 M 247.279 103.8 C 247.279 105.395 247.311 106.047 247.349 105.25 C 247.386 104.453 247.386 103.147 247.349 102.35 C 247.311 101.553 247.279 102.205 247.279 103.8 M 227 103.124 C 227 103.39 227.054 103.404 227.3 103.2 C 227.465 103.063 227.6 102.917 227.6 102.876 C 227.6 102.834 227.465 102.8 227.3 102.8 C 227.135 102.8 227 102.946 227 103.124 M 170.05 104.7 C 170.053 105.14 170.094 105.296 170.141 105.048 C 170.189 104.799 170.187 104.439 170.137 104.248 C 170.087 104.056 170.048 104.26 170.05 104.7 M 262.539 104.728 C 262.379 104.888 262.56 105.2 262.812 105.2 C 262.915 105.2 263 105.065 263 104.9 C 263 104.591 262.764 104.503 262.539 104.728 M 253.843 106.057 C 253.837 106.742 253.925 107.205 254.071 107.261 C 254.379 107.379 254.38 105.85 254.073 105.322 C 253.894 105.014 253.851 105.15 253.843 106.057 M 226.23 105.59 C 226.316 105.848 226.59 105.894 226.615 105.655 C 226.623 105.575 226.522 105.474 226.39 105.43 C 226.258 105.386 226.186 105.458 226.23 105.59 M 305.43 105.59 C 305.516 105.848 305.79 105.894 305.815 105.655 C 305.823 105.575 305.722 105.474 305.59 105.43 C 305.458 105.386 305.386 105.458 305.43 105.59 M 274.4 107.564 C 274.4 107.895 274.814 108.07 275.019 107.824 C 275.12 107.703 275.143 107.647 275.07 107.7 C 274.997 107.753 274.816 107.696 274.668 107.574 C 274.485 107.422 274.4 107.418 274.4 107.564 M 200.338 108.528 C 200.399 108.687 200.535 108.788 200.64 108.753 C 200.966 108.645 200.916 108.341 200.564 108.289 C 200.343 108.256 200.266 108.339 200.338 108.528 M 173.268 109.922 C 173.312 110.153 173.258 110.513 173.148 110.722 C 172.965 111.069 172.976 111.074 173.281 110.786 C 173.546 110.536 173.57 110.373 173.401 109.986 C 173.228 109.589 173.203 109.577 173.268 109.922 M 316.845 112.228 C 316.765 112.303 316.16 112.291 315.5 112.201 L 314.3 112.037 L 315.645 112.064 C 316.384 112.078 316.924 112.152 316.845 112.228 M 353.878 112.164 C 353.933 112.254 353.714 112.289 353.389 112.241 C 353.065 112.194 352.8 112.12 352.8 112.077 C 352.8 111.925 353.779 112.003 353.878 112.164 M 270.403 112.915 C 270.408 113.241 270.747 113.651 270.948 113.574 C 271.055 113.533 270.975 113.327 270.771 113.115 C 270.567 112.903 270.401 112.813 270.403 112.915 M 268.8 120.779 C 268.8 120.877 268.935 121.009 269.1 121.072 C 269.283 121.142 269.4 121.073 269.4 120.894 C 269.4 120.732 269.265 120.6 269.1 120.6 C 268.935 120.6 268.8 120.68 268.8 120.779 M 270.528 120.9 C 270.464 121.065 270.461 121.2 270.521 121.2 C 270.58 121.2 270.764 121.065 270.929 120.9 C 271.189 120.64 271.19 120.6 270.936 120.6 C 270.775 120.6 270.591 120.735 270.528 120.9 M 83.7 136.834 L 83.1 138.066 L 83.074 142.783 C 83.06 145.377 83.037 147.613 83.024 147.75 C 82.988 148.125 82.184 148.05 81.45 147.602 L 80.8 147.206 L 80.8 144.752 C 80.8 143.402 80.709 141.983 80.598 141.599 C 80.487 141.214 80.311 140.162 80.208 139.26 C 80.055 137.925 79.674 136.672 79.288 136.23 C 78.911 135.799 78.911 136.668 79.289 137.952 C 79.828 139.782 80.205 142.802 80.202 145.273 L 80.2 147.046 L 80.939 147.723 C 81.723 148.441 83.005 148.669 83.335 148.15 C 83.423 148.013 83.496 145.74 83.497 143.1 L 83.5 138.3 L 84.141 137.074 C 84.713 135.979 84.784 135.599 84.417 135.6 C 84.353 135.601 84.03 136.156 83.7 136.834" stroke-linecap="round" />
</g>
		<g transform="matrix(1 0 0 1 -6.49 1)" id="path3"  >
<path style="stroke: none; stroke-width: 1; stroke-dasharray: none; stroke-linecap: butt; stroke-dashoffset: 0; stroke-linejoin: miter; stroke-miterlimit: 4; fill: rgb(68,44,36); fill-rule: evenodd; opacity: 1;"  transform=" translate(-193.51, -101)" d="M 70.082 45.902 C 66.265 46.139 62.008 46.589 59.6 47.011 C 58.995 47.117 57.645 47.34 56.6 47.507 C 55.555 47.674 54.565 47.862 54.4 47.926 C 54.235 47.989 53.38 48.202 52.5 48.399 C 49.917 48.976 48.129 49.427 47.7 49.608 C 47.48 49.701 46.325 50.107 45.133 50.509 C 43.941 50.912 42.726 51.367 42.433 51.52 C 42.14 51.672 41.823 51.798 41.729 51.799 C 41.248 51.802 36.174 54.515 35.38 55.193 C 34.316 56.103 33.169 58.984 32.592 62.2 C 32.483 62.805 32.31 63.57 32.207 63.9 C 30.632 68.939 30.694 91.642 32.293 95.811 C 32.356 95.974 32.537 96.827 32.695 97.704 C 33.248 100.784 33.491 101.797 34.607 105.7 C 35.216 107.83 35.421 108.43 36.479 111.2 C 37.756 114.544 39.702 118.503 41.294 121 C 45.294 127.272 47.964 130.754 52.4 135.488 C 54.944 138.203 56.662 139.874 59.501 142.4 C 60.326 143.134 64.185 146.248 65.016 146.851 C 69.807 150.324 75.657 154.043 77.844 155.006 C 78.095 155.116 78.793 155.475 79.396 155.803 C 80.759 156.546 81.041 156.546 82.404 155.803 C 83.007 155.475 83.705 155.116 83.956 155.006 C 85.8 154.194 92.001 150.294 95.7 147.62 C 103.446 142.019 111.883 133.585 117 126.326 C 119.353 122.988 122.4 118.115 122.4 117.69 C 122.4 117.62 122.564 117.323 122.764 117.031 C 123.152 116.463 124.657 113.078 125.4 111.1 C 125.648 110.44 125.973 109.585 126.123 109.2 C 126.965 107.034 128.699 100.471 129.188 97.6 C 129.291 96.995 129.465 96.14 129.575 95.7 C 131.269 88.925 131.225 69.036 129.503 63.4 C 129.352 62.905 129.166 62.14 129.09 61.7 C 128.872 60.433 128.027 57.58 127.597 56.656 C 126.401 54.091 117.96 50.287 109.264 48.396 C 108.364 48.201 107.551 47.993 107.458 47.936 C 107.365 47.878 106.526 47.729 105.594 47.604 C 104.662 47.479 103.456 47.247 102.914 47.088 C 102.371 46.93 101.555 46.8 101.099 46.8 C 100.643 46.8 99.361 46.664 98.25 46.498 C 92.723 45.672 78.622 45.373 70.082 45.902 M 81.269 53.498 C 81.433 53.662 81.631 54.089 81.709 54.448 C 82.015 55.857 83.601 58.133 86.419 61.21 C 93.534 68.977 96.842 74.503 99.883 83.7 C 100.671 86.084 101.381 88.818 102.012 91.9 C 102.34 93.503 102.502 103.166 102.229 104.827 C 101.296 110.498 100.756 112.608 99.266 116.4 C 96.728 122.859 92.005 129.487 86.9 133.751 C 85.378 135.023 84.976 135.49 84.3 136.777 L 83.5 138.3 L 83.497 143.1 C 83.496 145.74 83.423 148.013 83.335 148.15 C 83.005 148.669 81.723 148.441 80.939 147.723 L 80.2 147.046 L 80.202 145.273 C 80.208 140.121 79.317 136.666 77.646 135.352 C 72.485 131.297 66.318 123.477 63.723 117.7 C 63.427 117.04 63.09 116.331 62.975 116.125 C 62.59 115.436 60.977 110.716 60.711 109.5 C 60.566 108.84 60.349 107.895 60.228 107.4 C 59.482 104.34 59.165 97.553 59.612 94.2 C 59.722 93.375 59.893 91.935 59.991 91 C 60.378 87.323 61.689 82.096 63.201 78.2 C 63.436 77.595 63.757 76.749 63.915 76.32 C 64.323 75.215 66.774 70.363 67.115 69.984 C 67.272 69.811 67.4 69.604 67.4 69.526 C 67.4 69.448 67.566 69.14 67.769 68.842 C 67.972 68.544 68.397 67.895 68.715 67.4 C 70.715 64.28 72.026 62.74 76.209 58.6 C 79.143 55.696 79.584 55.174 79.887 54.25 C 80.253 53.137 80.677 52.906 81.269 53.498 M 315.561 77.149 C 316.915 77.184 319.075 77.184 320.361 77.149 C 321.648 77.114 320.54 77.086 317.9 77.086 C 315.26 77.086 314.208 77.115 315.561 77.149 M 330.053 77.144 C 330.357 77.189 330.807 77.188 331.053 77.141 C 331.299 77.093 331.05 77.056 330.5 77.057 C 329.95 77.059 329.749 77.098 330.053 77.144 M 354.063 77.15 C 356.353 77.182 360.043 77.182 362.263 77.15 C 364.484 77.118 362.61 77.091 358.1 77.091 C 353.59 77.091 351.774 77.118 354.063 77.15 M 167.248 88.439 C 167.17 88.736 166.943 88.8 165.958 88.8 C 164.931 88.8 164.748 88.856 164.658 89.2 C 164.558 89.584 163.251 89.766 161.735 89.608 C 161.515 89.585 161.328 89.734 161.262 89.985 C 161.201 90.22 160.99 90.4 160.777 90.4 C 160.235 90.4 160.21 92.742 160.75 92.943 C 160.942 93.015 161.218 93.237 161.361 93.437 C 161.537 93.681 161.878 93.8 162.405 93.8 C 163.032 93.8 163.164 93.862 163.068 94.112 C 162.988 94.32 163.089 94.461 163.374 94.535 C 163.798 94.646 163.8 94.679 163.8 101.323 L 163.8 108 L 162.6 108 C 161.626 108 161.4 108.061 161.4 108.324 C 161.4 108.605 161.448 108.612 161.75 108.374 C 162.067 108.126 162.074 108.133 161.826 108.45 C 161.675 108.642 161.292 108.8 160.976 108.8 L 160.4 108.8 L 160.4 110.4 L 160.4 112 L 166.606 112 C 172.335 112 172.822 111.973 172.941 111.65 C 173.012 111.458 173.189 111.228 173.335 111.14 C 173.481 111.052 173.6 110.884 173.6 110.766 C 173.6 110.636 173.463 110.66 173.253 110.826 C 172.925 111.086 172.925 111.072 173.253 110.557 C 173.957 109.454 173.642 108.8 172.407 108.8 C 172.015 108.8 171.815 108.68 171.742 108.4 C 171.666 108.109 171.469 108 171.019 108 L 170.4 108 L 170.4 102.116 C 170.4 96.255 170.354 95.6 169.939 95.6 C 169.792 95.6 169.799 95.679 169.96 95.84 C 170.092 95.972 170.19 96.265 170.177 96.49 C 170.155 96.867 170.146 96.869 170.057 96.521 C 169.979 96.219 169.924 96.199 169.788 96.419 C 169.675 96.602 169.639 96.492 169.681 96.098 C 169.719 95.738 169.875 95.474 170.072 95.435 C 170.252 95.4 170.4 95.197 170.4 94.985 C 170.4 94.733 170.538 94.6 170.8 94.6 C 171.059 94.6 171.2 94.467 171.2 94.223 C 171.2 93.896 171.39 93.834 172.622 93.765 C 173.728 93.702 174.105 93.6 174.322 93.304 C 174.582 92.948 174.6 92.947 174.6 93.283 C 174.6 93.526 174.701 93.604 174.91 93.524 C 175.11 93.447 175.171 93.485 175.081 93.631 C 174.984 93.787 175.11 93.826 175.485 93.754 C 175.924 93.67 176.064 93.742 176.209 94.125 C 176.309 94.386 176.527 94.6 176.695 94.6 C 176.863 94.6 177 94.735 177 94.9 C 177 95.065 177.09 95.2 177.2 95.2 C 177.31 95.2 177.4 95.338 177.4 95.506 C 177.4 95.675 177.535 95.864 177.7 95.928 C 177.957 96.026 178 96.892 178 102.021 L 178 108 L 176.813 108 C 175.803 108 175.608 108.059 175.5 108.4 C 175.43 108.62 175.199 108.8 174.987 108.8 C 174.637 108.8 174.6 108.952 174.6 110.403 L 174.6 112.005 L 181.15 111.953 L 187.7 111.9 L 187.737 110.35 L 187.773 108.8 L 186.987 108.8 C 186.333 108.8 186.2 108.732 186.2 108.4 C 186.2 108.067 186.067 108 185.4 108 C 184.707 108 184.598 107.94 184.588 107.55 C 184.582 107.303 184.587 104.627 184.6 101.605 C 184.612 98.583 184.577 96.156 184.521 96.212 C 184.465 96.268 184.405 98.856 184.388 101.963 C 184.361 106.561 184.307 107.572 184.096 107.397 C 183.898 107.233 183.833 106.021 183.817 102.241 C 183.803 98.906 183.861 97.398 183.995 97.6 C 184.143 97.823 184.195 97.687 184.197 97.066 C 184.199 96.608 184.255 96.09 184.321 95.916 C 184.389 95.739 184.34 95.6 184.21 95.6 C 184.081 95.6 184.04 95.712 184.118 95.85 C 184.224 96.038 184.198 96.044 184.014 95.875 C 183.73 95.613 184.601 94.6 185.109 94.6 C 185.269 94.6 185.4 94.42 185.4 94.2 C 185.4 93.658 189.526 93.574 189.732 94.111 C 189.798 94.283 189.975 94.376 190.126 94.318 C 190.277 94.26 190.4 94.3 190.4 94.406 C 190.4 94.513 190.58 94.6 190.8 94.6 C 191.143 94.6 191.2 94.734 191.203 95.55 C 191.206 96.591 191.432 97.127 191.778 96.914 C 191.939 96.814 192 98.322 192 102.388 L 192 108 L 191.25 108.023 C 190.838 108.036 190.336 108.029 190.135 108.008 C 189.915 107.985 189.728 108.134 189.662 108.385 C 189.601 108.62 189.39 108.8 189.177 108.8 C 188.839 108.8 188.8 108.966 188.8 110.403 L 188.8 112.005 L 195.35 111.953 L 201.9 111.9 L 201.931 110.336 C 201.955 109.109 201.904 108.794 201.696 108.874 C 201.55 108.93 201.286 108.756 201.11 108.488 C 200.84 108.075 200.629 107.999 199.745 107.994 C 198.013 107.983 198.006 107.958 197.948 101.91 C 197.902 97.05 197.981 96.224 198.394 97.25 C 198.493 97.498 198.58 97.595 198.587 97.466 C 198.609 97.059 198.366 96.6 198.127 96.6 C 197.977 96.6 197.922 96.284 197.97 95.689 C 198.091 94.161 197.84 93 197.388 93 C 197.067 93 197 92.858 197 92.181 C 197 91.531 196.918 91.341 196.6 91.258 C 196.379 91.2 196.2 90.985 196.2 90.777 C 196.2 90.533 196.058 90.4 195.8 90.4 C 195.533 90.4 195.4 90.267 195.4 90 C 195.4 89.733 195.267 89.6 195 89.6 C 194.737 89.6 194.6 89.467 194.6 89.211 C 194.6 88.889 194.437 88.811 193.65 88.761 C 192.905 88.713 192.711 88.63 192.753 88.376 C 192.799 88.092 192.501 88.05 190.383 88.038 C 188.081 88.026 187.965 88.045 188.061 88.413 C 188.151 88.757 188.053 88.8 187.181 88.8 C 186.333 88.8 186.2 88.854 186.2 89.2 C 186.2 89.533 186.067 89.6 185.4 89.6 C 184.733 89.6 184.6 89.667 184.6 90 C 184.6 90.323 184.467 90.4 183.912 90.4 C 183.533 90.4 183.168 90.49 183.1 90.6 C 183.032 90.71 183.132 90.8 183.322 90.8 C 183.709 90.8 183.541 91.056 183.112 91.119 C 182.96 91.141 182.791 90.988 182.737 90.78 C 182.682 90.571 182.494 90.4 182.319 90.4 C 182.133 90.4 182 90.233 182 90 C 182 89.742 181.867 89.6 181.623 89.6 C 181.415 89.6 181.2 89.421 181.142 89.2 C 181.062 88.895 180.869 88.8 180.332 88.8 C 179.815 88.8 179.595 88.699 179.507 88.421 C 179.364 87.971 175.93 87.81 175.17 88.216 C 174.871 88.376 174.791 88.377 174.888 88.22 C 174.962 88.099 174.918 88 174.788 88 C 174.652 88 174.597 88.168 174.658 88.4 C 174.752 88.759 174.664 88.8 173.798 88.8 C 172.645 88.8 172.2 88.945 172.2 89.321 C 172.2 89.485 171.994 89.6 171.7 89.6 C 171.333 89.6 171.2 89.707 171.2 90 C 171.2 90.267 171.067 90.4 170.8 90.4 C 170.42 90.4 170.272 89.922 170.385 89.052 C 170.516 88.036 167.507 87.448 167.248 88.439 M 213.062 88.417 C 213.161 88.794 212.307 88.951 210.935 88.808 C 210.715 88.785 210.528 88.934 210.462 89.185 C 210.378 89.505 210.194 89.6 209.658 89.6 C 209.131 89.6 208.937 89.697 208.858 90 C 208.8 90.221 208.585 90.4 208.377 90.4 C 208.133 90.4 208 90.542 208 90.8 C 208 91.073 207.867 91.2 207.581 91.2 C 207.338 91.2 207.121 91.359 207.063 91.582 C 207.008 91.791 206.791 92.008 206.582 92.063 C 206.359 92.121 206.2 92.338 206.2 92.581 C 206.2 92.867 206.073 93 205.8 93 C 205.542 93 205.4 93.133 205.4 93.377 C 205.4 93.585 205.221 93.8 205 93.858 C 204.682 93.941 204.6 94.131 204.6 94.781 C 204.6 95.361 204.516 95.6 204.312 95.6 C 203.99 95.6 203.697 95.964 203.875 96.142 C 203.938 96.205 204.109 96.177 204.255 96.079 C 204.4 95.98 204.357 96.049 204.159 96.232 C 203.575 96.772 203.613 105.188 204.2 105.342 C 204.513 105.424 204.6 105.615 204.6 106.223 C 204.6 106.867 204.669 107 205 107 C 205.332 107 205.4 107.133 205.4 107.787 C 205.4 108.397 205.489 108.601 205.8 108.7 C 206.02 108.77 206.2 108.964 206.2 109.132 C 206.2 109.3 206.377 109.484 206.593 109.54 C 206.81 109.597 207.041 109.813 207.107 110.022 C 207.173 110.23 207.401 110.4 207.613 110.4 C 207.86 110.4 208 110.538 208 110.78 C 208 111.08 208.145 111.16 208.687 111.16 C 209.533 111.16 209.818 111.321 209.667 111.715 C 209.603 111.881 209.629 112.002 209.725 111.984 C 210.831 111.783 212.354 112.032 212.258 112.4 C 212.176 112.715 212.254 112.801 212.627 112.807 C 212.887 112.812 213.676 112.866 214.38 112.927 C 216.331 113.097 217.8 112.864 217.8 112.386 C 217.8 112.041 217.951 112 219.202 112 C 220.356 112 220.664 111.929 220.946 111.6 C 221.135 111.38 221.449 111.2 221.644 111.2 C 221.867 111.2 222 111.05 222 110.8 C 222 110.468 222.133 110.4 222.787 110.4 C 223.382 110.4 223.602 110.308 223.693 110.022 C 223.759 109.813 223.99 109.597 224.207 109.54 C 224.423 109.484 224.6 109.3 224.6 109.132 C 224.6 108.964 224.78 108.77 225 108.7 C 225.311 108.601 225.4 108.397 225.4 107.787 C 225.4 107.133 225.468 107 225.8 107 C 226.048 107 226.2 106.867 226.2 106.648 C 226.2 106.455 226.38 106.184 226.6 106.046 C 226.915 105.85 227 105.58 227 104.78 C 227 103.975 227.091 103.69 227.44 103.408 C 228.307 102.706 228.197 97.2 227.316 97.2 C 227.121 97.2 227.023 96.8 226.965 95.778 C 226.906 94.734 226.794 94.29 226.542 94.106 C 226.354 93.969 226.2 93.663 226.2 93.428 C 226.2 93.133 226.075 93 225.8 93 C 225.51 93 225.4 92.867 225.4 92.516 C 225.4 91.882 225.207 91.4 224.954 91.4 C 224.842 91.4 224.875 91.558 225.026 91.75 C 225.274 92.067 225.267 92.074 224.95 91.826 C 224.757 91.675 224.6 91.433 224.6 91.29 C 224.6 90.877 224.015 90.4 223.509 90.4 C 223.215 90.4 223.009 90.254 222.942 90 C 222.879 89.761 222.669 89.6 222.419 89.6 C 222.129 89.6 222 89.473 222 89.187 C 222 88.914 221.882 88.787 221.65 88.81 C 220.407 88.937 219.643 88.786 219.54 88.394 C 219.439 88.005 219.293 87.988 216.198 88.01 C 213.114 88.033 212.967 88.052 213.062 88.417 M 236.517 88.15 C 236.453 88.214 236.4 88.36 236.4 88.473 C 236.4 88.597 236.496 88.584 236.64 88.44 C 236.987 88.093 237.295 88.144 237 88.5 C 236.82 88.717 236.343 88.8 235.276 88.8 C 233.933 88.8 233.8 88.836 233.8 89.2 C 233.8 89.567 233.667 89.6 232.181 89.6 C 230.731 89.6 230.552 89.642 230.458 90 C 230.4 90.22 230.229 90.4 230.077 90.4 C 229.096 90.4 228.8 90.707 228.8 91.726 C 228.8 92.469 228.874 92.657 229.2 92.742 C 229.42 92.8 229.6 92.968 229.6 93.116 C 229.6 93.512 230.263 93.8 231.173 93.8 C 231.797 93.8 232.001 93.888 232.1 94.2 C 232.17 94.42 232.401 94.6 232.613 94.6 C 232.988 94.6 233 94.811 233 101.3 L 233 108 L 231.781 108 C 230.731 108 230.548 108.055 230.458 108.4 C 230.4 108.621 230.185 108.8 229.977 108.8 C 229.639 108.8 229.6 108.966 229.6 110.403 L 229.6 112.005 L 236.25 111.953 L 242.9 111.9 L 242.964 110.8 C 243.071 108.949 242.85 107.969 242.336 108.01 C 242.096 108.029 241.382 108.034 240.75 108.022 L 239.6 108 L 239.6 101.7 C 239.6 96.069 239.634 95.4 239.919 95.4 C 240.094 95.4 240.285 95.22 240.342 95 C 240.4 94.779 240.615 94.6 240.823 94.6 C 241.067 94.6 241.2 94.458 241.2 94.2 C 241.2 93.826 241.333 93.8 243.277 93.8 C 245.185 93.8 245.362 93.832 245.458 94.2 C 245.515 94.42 245.7 94.6 245.868 94.6 C 246.036 94.6 246.23 94.78 246.3 95 C 246.37 95.22 246.548 95.4 246.696 95.4 C 247.077 95.4 247.267 97.957 247.285 103.333 C 247.302 108.405 247.432 107.966 245.892 108.041 L 244.7 108.1 L 244.643 110.05 L 244.586 112 L 251.17 112 L 257.754 112 L 257.888 110.928 C 258.059 109.56 257.877 108.8 257.378 108.8 C 257.133 108.8 257 108.659 257 108.4 C 257 108.045 256.867 108 255.825 108 C 254.551 108 254.266 107.647 254.517 106.38 L 254.611 105.9 L 254.398 106.387 C 254.281 106.655 254.229 106.988 254.283 107.127 C 254.341 107.278 254.27 107.338 254.106 107.275 C 253.919 107.203 253.836 106.82 253.843 106.054 C 253.852 105.016 253.872 104.972 254.119 105.419 C 254.382 105.893 254.386 105.894 254.393 105.46 C 254.397 105.218 254.267 104.946 254.105 104.855 C 253.856 104.715 253.807 103.787 253.794 98.923 C 253.779 93.387 253.762 93.153 253.389 93.055 C 253.12 92.985 253 92.78 253 92.393 C 253 91.572 252.806 91.2 252.379 91.2 C 252.133 91.2 252 91.059 252 90.8 C 252 90.533 251.867 90.4 251.6 90.4 C 251.333 90.4 251.2 90.267 251.2 90 C 251.2 89.733 251.067 89.6 250.8 89.6 C 250.533 89.6 250.4 89.467 250.4 89.2 C 250.4 88.936 250.267 88.8 250.007 88.8 C 249.791 88.8 249.516 88.617 249.397 88.394 C 249.071 87.786 243.213 87.808 243.053 88.418 C 242.958 88.782 242.568 88.896 241.722 88.806 C 241.447 88.776 241.378 88.855 241.47 89.093 C 241.543 89.285 241.513 89.37 241.398 89.299 C 241.289 89.231 241.2 89.272 241.2 89.388 C 241.2 89.505 241.02 89.6 240.8 89.6 C 240.542 89.6 240.4 89.733 240.4 89.977 C 240.4 91.134 239.617 90.53 239.559 89.329 L 239.5 88.1 L 238.067 88.067 C 237.278 88.048 236.581 88.086 236.517 88.15 M 266.943 88.396 C 266.848 88.76 265.728 88.978 264.75 88.824 C 264.668 88.811 264.611 88.868 264.624 88.95 C 264.705 89.467 264.536 89.6 263.8 89.6 C 263.133 89.6 263 89.667 263 90 C 263 90.332 262.867 90.4 262.213 90.4 C 261.609 90.4 261.398 90.49 261.303 90.79 C 261.235 91.004 261.004 91.235 260.79 91.303 C 260.575 91.371 260.4 91.59 260.4 91.79 C 260.4 91.99 260.22 92.2 260 92.258 C 259.694 92.338 259.6 92.531 259.6 93.081 C 259.6 93.667 259.526 93.8 259.2 93.8 C 258.511 93.8 258.59 100.953 259.288 101.706 C 259.556 101.995 259.726 102.36 259.666 102.516 C 259.599 102.69 259.684 102.8 259.884 102.8 C 260.063 102.8 260.295 103.025 260.4 103.3 C 260.505 103.575 260.717 103.8 260.872 103.8 C 261.027 103.8 261.2 103.98 261.258 104.2 C 261.315 104.42 261.519 104.6 261.709 104.6 C 261.9 104.6 262.165 104.749 262.297 104.93 C 262.489 105.192 262.572 105.206 262.7 104.999 C 262.816 104.813 262.782 104.784 262.581 104.898 C 262.355 105.027 262.349 105.006 262.547 104.793 C 262.846 104.47 263.095 104.664 262.931 105.091 C 262.866 105.261 262.63 105.4 262.406 105.4 C 262.183 105.4 262 105.487 262 105.594 C 262 105.7 261.865 105.736 261.7 105.672 C 261.51 105.599 261.4 105.675 261.4 105.879 C 261.4 106.067 261.234 106.2 261 106.2 C 260.704 106.2 260.6 106.333 260.6 106.713 C 260.6 107.129 260.516 107.213 260.15 107.163 C 259.511 107.074 259.382 109.38 260.016 109.546 C 260.227 109.601 260.4 109.816 260.4 110.023 C 260.4 110.267 260.542 110.4 260.8 110.4 C 261.049 110.4 261.199 110.532 261.197 110.75 C 261.194 111.044 261.164 111.053 261.008 110.806 C 260.905 110.644 260.752 110.581 260.667 110.667 C 260.444 110.89 261.007 111.193 261.65 111.197 C 262.354 111.201 262.385 111.724 261.7 112.036 C 261.425 112.162 261.2 112.43 261.2 112.632 C 261.2 112.867 261.055 113 260.8 113 C 260.533 113 260.4 113.133 260.4 113.4 C 260.4 113.667 260.267 113.8 260 113.8 C 259.733 113.8 259.6 113.933 259.6 114.2 C 259.6 114.467 259.467 114.6 259.2 114.6 C 258.933 114.6 258.8 114.733 258.8 115 C 258.8 115.267 258.667 115.4 258.4 115.4 C 258.02 115.4 258 115.533 258 118.098 C 258 120.58 258.032 120.817 258.4 121.046 C 258.62 121.184 258.8 121.455 258.8 121.648 C 258.8 121.867 258.952 122 259.2 122 C 259.473 122 259.6 122.133 259.6 122.419 C 259.6 122.669 259.761 122.879 260 122.942 C 260.22 123 260.4 123.173 260.4 123.328 C 260.4 123.483 260.613 123.691 260.873 123.79 C 261.133 123.888 261.4 124.111 261.466 124.285 C 261.678 124.836 274.397 124.754 274.542 124.2 C 274.621 123.897 274.815 123.8 275.342 123.8 C 275.869 123.8 276.063 123.703 276.142 123.4 C 276.2 123.18 276.378 123 276.539 123 C 276.699 123 277.078 122.753 277.381 122.45 C 277.685 122.145 278.093 121.931 278.294 121.97 C 278.566 122.023 278.632 121.945 278.558 121.661 C 278.486 121.386 278.57 121.272 278.861 121.25 C 279.361 121.213 279.593 120.865 279.597 120.15 C 279.599 119.734 279.698 119.6 280 119.6 C 280.23 119.6 280.4 119.467 280.4 119.286 C 280.4 118.894 280.902 118.37 281.095 118.56 C 281.174 118.637 281.219 118.565 281.195 118.4 C 281.076 117.563 281.221 117.041 281.6 116.942 C 281.82 116.885 282 116.694 282 116.519 C 282 116.14 281.772 116.108 281.44 116.44 C 281.269 116.611 281.2 116.615 281.2 116.453 C 281.2 116.329 281.381 116.17 281.601 116.1 C 282.2 115.909 282.182 112.2 281.581 112.2 C 281.263 112.2 281.2 112.052 281.2 111.3 C 281.2 110.533 281.141 110.4 280.8 110.4 C 280.442 110.4 280.306 110.192 280.376 109.75 C 280.389 109.668 280.332 109.611 280.25 109.624 C 279.808 109.694 279.6 109.558 279.6 109.2 C 279.6 108.861 279.467 108.8 278.723 108.8 C 278.015 108.8 277.827 108.723 277.742 108.4 C 277.654 108.063 277.469 108 276.567 108 C 275.738 108 275.444 107.916 275.263 107.626 C 274.994 107.195 274.282 107.127 269.856 107.111 C 267.032 107.1 267.013 107.097 267.05 106.65 C 267.084 106.239 267.188 106.2 268.262 106.2 C 269.269 106.2 269.452 106.143 269.542 105.8 C 269.632 105.457 269.815 105.4 270.823 105.4 C 271.867 105.4 272 105.355 272 105 C 272 104.667 272.133 104.6 272.8 104.6 C 273.467 104.6 273.6 104.533 273.6 104.2 C 273.6 103.883 273.734 103.799 274.25 103.797 C 275.073 103.793 275.493 103.531 275.335 103.12 C 275.243 102.88 275.336 102.8 275.706 102.8 C 276.067 102.8 276.2 102.692 276.2 102.4 C 276.2 102.137 276.333 102 276.589 102 C 276.903 102 276.989 101.837 277.039 101.15 C 277.088 100.469 277.17 100.312 277.45 100.359 C 277.864 100.428 277.886 100.285 277.894 97.455 C 277.9 95.426 278.172 94.702 278.424 96.042 L 278.547 96.7 L 278.574 95.974 C 278.6 95.254 278.213 94.668 277.9 94.952 C 277.81 95.033 277.801 94.988 277.88 94.85 C 277.969 94.694 278.471 94.6 279.212 94.6 C 280.267 94.6 280.4 94.555 280.4 94.2 C 280.4 93.933 280.533 93.8 280.8 93.8 C 281.062 93.8 281.2 93.667 281.2 93.413 C 281.2 93.201 281.38 92.97 281.6 92.9 C 281.965 92.784 282 92.597 282 90.787 L 282 88.8 L 280.8 88.8 C 279.733 88.8 279.6 88.844 279.6 89.2 C 279.6 89.574 279.467 89.6 277.523 89.6 C 275.615 89.6 275.438 89.568 275.342 89.2 C 275.252 88.855 275.069 88.8 274.019 88.8 C 272.95 88.8 272.8 88.753 272.8 88.416 C 272.8 87.804 267.103 87.785 266.943 88.396 M 292.245 88.367 C 292.291 88.644 292.085 88.71 291.029 88.76 C 289.965 88.81 289.741 88.884 289.655 89.21 C 289.579 89.502 289.379 89.6 288.858 89.6 C 288.331 89.6 288.137 89.697 288.058 90 C 288 90.22 287.79 90.4 287.59 90.4 C 287.39 90.4 287.173 90.57 287.107 90.778 C 287.041 90.987 286.81 91.203 286.593 91.26 C 286.377 91.316 286.2 91.495 286.2 91.658 C 286.2 91.82 286.02 92 285.8 92.058 C 285.561 92.121 285.4 92.331 285.4 92.581 C 285.4 92.867 285.273 93 285 93 C 284.733 93 284.6 93.133 284.6 93.4 C 284.6 93.667 284.467 93.8 284.2 93.8 C 283.867 93.8 283.8 93.933 283.8 94.593 C 283.8 95.172 283.696 95.442 283.413 95.593 C 282.795 95.924 282.777 105.179 283.394 105.341 C 283.714 105.424 283.8 105.611 283.8 106.223 C 283.8 106.867 283.869 107 284.2 107 C 284.589 107 284.702 107.335 284.613 108.233 C 284.595 108.417 284.765 108.625 284.99 108.697 C 285.216 108.768 285.4 108.964 285.4 109.132 C 285.4 109.3 285.572 109.482 285.782 109.537 C 285.991 109.592 286.206 109.801 286.258 110.002 C 286.311 110.202 286.567 110.396 286.827 110.433 C 287.148 110.479 287.281 110.612 287.241 110.85 C 287.193 111.135 287.332 111.2 287.991 111.2 C 288.736 111.2 288.905 111.332 288.824 111.85 C 288.811 111.932 288.868 111.989 288.95 111.976 C 289.76 111.848 291.188 112.056 291.52 112.35 C 292.499 113.217 297 113.245 297 112.384 C 297 112.045 297.151 112 298.284 112 C 299.746 112 300.2 111.877 300.2 111.479 C 300.2 111.315 300.406 111.2 300.7 111.2 C 301.067 111.2 301.2 111.093 301.2 110.8 C 301.2 110.465 301.333 110.4 302.023 110.4 C 302.748 110.4 302.834 110.352 302.742 110 C 302.659 109.684 302.736 109.6 303.105 109.6 C 303.397 109.6 303.621 109.45 303.7 109.2 C 303.77 108.98 304.001 108.707 304.214 108.593 C 304.481 108.449 304.6 108.173 304.6 107.693 C 304.6 107.133 304.677 107 305 107 C 305.393 107 305.512 106.653 305.432 105.737 C 305.407 105.459 305.495 105.403 305.8 105.5 C 306.162 105.615 306.2 105.536 306.2 104.662 C 306.2 103.921 306.291 103.639 306.59 103.453 C 306.95 103.228 306.98 102.966 306.978 100.048 C 306.977 97.07 306.834 96.085 306.461 96.483 C 306.372 96.578 306.413 96.695 306.55 96.744 C 306.899 96.869 306.863 97.2 306.5 97.2 C 306.264 97.2 306.2 96.922 306.2 95.9 C 306.2 94.733 306.159 94.6 305.8 94.6 C 305.467 94.6 305.4 94.467 305.4 93.8 C 305.4 93.133 305.333 93 305 93 C 304.707 93 304.6 92.867 304.6 92.5 C 304.6 92.225 304.513 92 304.406 92 C 304.3 92 304.264 91.865 304.328 91.7 C 304.401 91.509 304.324 91.4 304.115 91.4 C 303.935 91.4 303.729 91.243 303.658 91.05 C 303.482 90.572 303.199 90.407 302.55 90.403 C 302.134 90.401 302 90.302 302 90 C 302 89.742 301.867 89.6 301.623 89.6 C 301.415 89.6 301.2 89.421 301.142 89.2 C 301.053 88.861 300.869 88.8 299.932 88.8 C 298.997 88.8 298.807 88.738 298.698 88.394 C 298.517 87.823 292.151 87.796 292.245 88.367 M 249.278 88.515 C 249.362 88.734 249.298 88.81 249.066 88.765 C 248.883 88.729 248.696 88.588 248.65 88.45 C 248.527 88.082 249.136 88.145 249.278 88.515 M 268.851 92.373 C 268.913 92.611 269.206 92.794 269.663 92.88 C 270.12 92.966 270.422 93.154 270.501 93.403 C 270.569 93.617 270.726 93.771 270.85 93.746 C 270.975 93.721 271.108 93.88 271.146 94.1 C 271.333 95.175 271.431 95.4 271.711 95.4 C 271.966 95.4 272.005 95.738 271.957 97.55 C 271.911 99.302 271.844 99.7 271.6 99.701 C 271.435 99.701 271.291 99.881 271.28 100.101 C 271.224 101.19 271.217 101.2 270.481 101.2 C 269.931 101.2 269.738 101.294 269.658 101.6 C 269.576 101.912 269.385 102 268.79 102 C 268.203 102 267.998 101.908 267.9 101.6 C 267.83 101.38 267.649 101.2 267.497 101.2 C 267.102 101.2 266.2 100.315 266.2 99.927 C 266.2 99.733 266.037 99.6 265.8 99.6 C 265.448 99.6 265.4 99.467 265.4 98.481 C 265.4 97.531 265.34 97.347 265 97.258 C 264.679 97.174 264.6 96.985 264.6 96.3 C 264.6 95.615 264.679 95.426 265 95.342 C 265.326 95.257 265.4 95.069 265.4 94.325 C 265.4 93.651 265.469 93.439 265.664 93.514 C 265.815 93.572 266.028 93.399 266.158 93.112 C 266.32 92.756 266.487 92.646 266.726 92.738 C 266.996 92.841 267.042 92.78 266.951 92.434 C 266.846 92.033 266.911 92 267.795 92 C 268.562 92 268.773 92.075 268.851 92.373 M 214.85 92.575 C 214.822 92.701 215.053 92.8 215.375 92.8 C 216.368 92.8 217.2 93.039 217.2 93.325 C 217.2 93.476 217.357 93.593 217.55 93.584 C 217.759 93.575 217.799 93.528 217.65 93.468 C 217.304 93.328 217.336 93.067 217.7 93.067 C 217.865 93.067 218 93.181 218 93.32 C 218 93.459 218.18 93.63 218.4 93.7 C 218.7 93.795 218.8 94.003 218.8 94.532 C 218.8 95.069 218.895 95.262 219.2 95.342 C 219.421 95.4 219.6 95.615 219.6 95.823 C 219.6 96.067 219.742 96.2 220 96.2 C 220.417 96.2 220.529 97.05 220.411 99.328 C 220.387 99.784 220.469 100.219 220.592 100.295 C 220.747 100.391 220.779 100.258 220.697 99.867 L 220.577 99.3 L 220.882 99.8 C 221.398 100.649 221.321 103.265 220.785 103.095 C 220.397 102.972 220.371 103.035 220.402 104.032 C 220.461 105.972 220.425 106.165 219.982 106.306 C 219.693 106.397 219.594 106.557 219.663 106.819 C 219.741 107.116 219.656 107.2 219.281 107.2 C 218.933 107.2 218.8 107.311 218.8 107.6 C 218.8 107.934 218.667 108 217.991 108 C 217.332 108 217.193 108.065 217.241 108.35 C 217.286 108.616 217.139 108.715 216.632 108.764 C 216.036 108.821 215.978 108.783 216.096 108.414 C 216.219 108.024 216.151 108 214.913 108 C 213.727 108 213.6 107.961 213.6 107.594 C 213.6 107.37 213.468 107.137 213.308 107.075 C 213.147 107.014 212.96 106.789 212.892 106.576 C 212.824 106.359 212.623 106.214 212.435 106.245 C 212.178 106.287 212.085 106.119 212.037 105.528 C 211.99 104.965 211.869 104.728 211.587 104.654 C 211.222 104.559 211.105 104.177 211.19 103.35 C 211.213 103.118 211.086 103 210.813 103 C 210.188 103 210.163 95.509 210.787 95.346 C 211.069 95.272 211.19 95.035 211.237 94.472 C 211.286 93.866 211.375 93.713 211.65 93.759 C 211.882 93.798 212 93.688 212 93.434 C 212 93.05 213.17 92.68 214.054 92.785 C 214.249 92.808 214.396 92.753 214.381 92.663 C 214.32 92.309 214.411 92.171 214.65 92.258 C 214.788 92.309 214.878 92.451 214.85 92.575 M 293.928 92.5 C 293.843 92.721 293.956 92.801 294.356 92.802 C 295.392 92.806 296.4 93.053 296.4 93.303 C 296.4 93.441 296.58 93.6 296.8 93.658 C 297.02 93.716 297.155 93.69 297.1 93.6 C 297.045 93.511 297.22 93.541 297.491 93.669 C 297.851 93.839 297.997 94.086 298.041 94.6 C 298.08 95.063 298.202 95.3 298.4 95.3 C 298.565 95.3 298.729 95.502 298.764 95.75 C 298.805 96.039 298.966 96.2 299.214 96.2 C 299.545 96.2 299.6 96.346 299.6 97.213 C 299.6 97.77 299.69 98.395 299.801 98.601 C 299.935 98.851 299.935 99.017 299.801 99.1 C 299.69 99.168 299.601 99.601 299.603 100.062 C 299.605 100.609 299.666 100.806 299.779 100.628 C 299.873 100.478 299.93 100.208 299.904 100.028 C 299.878 99.848 299.896 99.813 299.943 99.95 C 299.991 100.088 300.113 100.2 300.215 100.2 C 300.541 100.2 300.434 102.881 300.09 103.312 C 299.787 103.691 299.782 103.69 299.898 103.267 C 299.963 103.029 299.914 102.77 299.788 102.693 C 299.626 102.593 299.573 102.863 299.605 103.626 C 299.693 105.731 299.629 106.146 299.2 106.258 C 298.961 106.321 298.8 106.531 298.8 106.781 C 298.8 107.067 298.673 107.2 298.4 107.2 C 298.133 107.2 298 107.333 298 107.6 C 298 107.983 297.511 108.13 296.634 108.011 C 296.488 107.992 296.32 108.161 296.261 108.388 C 296.119 108.932 295.4 108.942 295.4 108.4 C 295.4 108.045 295.267 108 294.223 108 C 293.201 108 293.032 107.946 292.938 107.585 C 292.879 107.357 292.643 107.121 292.415 107.062 C 292.174 106.999 292 106.79 292 106.563 C 292 106.264 291.907 106.203 291.6 106.3 C 291.291 106.398 291.2 106.336 291.2 106.025 C 291.2 105.804 291.11 105.568 291 105.5 C 290.89 105.432 290.801 105.269 290.803 105.138 C 290.805 104.995 290.884 105.02 291 105.2 C 291.164 105.453 291.194 105.443 291.197 105.131 C 291.199 104.928 291.02 104.715 290.8 104.658 C 290.411 104.556 290.313 104.287 290.392 103.535 C 290.414 103.322 290.269 103.128 290.044 103.07 C 289.279 102.869 289.251 95.538 290.015 95.338 C 290.265 95.273 290.392 95.012 290.437 94.472 C 290.486 93.866 290.575 93.713 290.85 93.759 C 291.083 93.798 291.2 93.688 291.2 93.431 C 291.2 93.022 292.239 92.669 293.153 92.767 C 293.402 92.794 293.593 92.745 293.579 92.658 C 293.527 92.345 293.604 92.2 293.821 92.2 C 293.943 92.2 293.991 92.335 293.928 92.5 M 283.8 95.9 C 283.8 96.065 283.665 96.2 283.5 96.2 C 282.98 96.2 283.148 95.806 283.75 95.616 C 283.778 95.607 283.8 95.735 283.8 95.9 M 227.238 96.613 C 227.286 96.757 227.443 96.914 227.588 96.963 C 227.738 97.013 227.813 96.938 227.763 96.788 C 227.714 96.643 227.557 96.486 227.413 96.438 C 227.263 96.388 227.188 96.463 227.238 96.613 M 198.47 99.6 C 198.47 100.535 198.504 100.918 198.546 100.45 C 198.589 99.983 198.589 99.218 198.546 98.75 C 198.504 98.283 198.47 98.665 198.47 99.6 M 266.8 101.021 C 266.8 101.12 266.665 101.2 266.5 101.2 C 266.335 101.2 266.2 101.068 266.2 100.906 C 266.2 100.727 266.317 100.658 266.5 100.728 C 266.665 100.791 266.8 100.923 266.8 101.021 M 220.654 101.6 C 220.654 102.095 220.693 102.298 220.741 102.05 C 220.789 101.803 220.789 101.398 220.741 101.15 C 220.693 100.903 220.654 101.105 220.654 101.6 M 299.85 101.7 C 299.853 102.14 299.894 102.296 299.941 102.048 C 299.989 101.799 299.987 101.439 299.937 101.248 C 299.887 101.056 299.848 101.26 299.85 101.7 M 227.6 102.876 C 227.6 102.917 227.465 103.063 227.3 103.2 C 227.054 103.404 227 103.39 227 103.124 C 227 102.946 227.135 102.8 227.3 102.8 C 227.465 102.8 227.6 102.834 227.6 102.876 M 170.141 105.048 C 170.094 105.296 170.053 105.14 170.05 104.7 C 170.048 104.26 170.087 104.056 170.137 104.248 C 170.187 104.439 170.189 104.799 170.141 105.048 M 226.615 105.655 C 226.59 105.894 226.316 105.848 226.23 105.59 C 226.186 105.458 226.258 105.386 226.39 105.43 C 226.522 105.474 226.623 105.575 226.615 105.655 M 23.837 107.371 C 23.871 107.812 23.962 107.92 24.24 107.847 C 24.765 107.71 24.727 106.8 24.197 106.8 C 23.877 106.8 23.803 106.917 23.837 107.371 M 137 107.383 C 137 107.594 137.113 107.819 137.25 107.883 C 137.45 107.977 137.45 108.023 137.25 108.117 C 136.873 108.292 136.95 108.802 137.35 108.784 C 137.549 108.775 137.595 108.726 137.456 108.67 C 137.284 108.6 137.329 108.445 137.606 108.148 C 138.171 107.541 138.121 107 137.5 107 C 137.141 107 137 107.108 137 107.383 M 275.07 107.7 C 275.143 107.647 275.12 107.703 275.019 107.824 C 274.814 108.07 274.4 107.895 274.4 107.564 C 274.4 107.418 274.485 107.422 274.668 107.574 C 274.816 107.696 274.997 107.753 275.07 107.7 M 200.865 108.514 C 200.804 108.82 200.454 108.829 200.338 108.528 C 200.266 108.339 200.343 108.256 200.564 108.289 C 200.749 108.316 200.884 108.417 200.865 108.514 M 270.862 113.234 C 271.038 113.409 271.125 113.608 271.057 113.676 C 270.989 113.744 271.568 113.8 272.343 113.8 C 273.585 113.8 273.766 113.848 273.858 114.2 C 273.938 114.506 274.131 114.6 274.681 114.6 C 275.373 114.6 275.4 114.627 275.4 115.319 C 275.4 115.869 275.494 116.062 275.8 116.142 C 276.052 116.208 276.2 116.415 276.2 116.7 C 276.2 116.985 276.052 117.192 275.8 117.258 C 275.494 117.338 275.4 117.531 275.4 118.081 C 275.4 118.672 275.327 118.8 274.991 118.8 C 274.713 118.8 274.601 118.912 274.641 119.15 C 274.68 119.384 274.55 119.521 274.25 119.564 C 273.961 119.605 273.8 119.766 273.8 120.014 C 273.8 120.405 273.343 120.481 271.3 120.426 C 270.97 120.418 270.812 120.46 270.948 120.521 C 271.39 120.718 270.688 121.2 269.964 121.197 C 269.078 121.193 268.574 120.882 269 120.603 C 269.211 120.465 268.838 120.405 267.75 120.403 C 266.334 120.4 266.2 120.365 266.2 120 C 266.2 119.733 266.067 119.6 265.8 119.6 C 265.567 119.6 265.4 119.467 265.4 119.281 C 265.4 119.106 265.22 118.915 265 118.858 C 264.779 118.8 264.6 118.585 264.6 118.377 C 264.6 118.133 264.458 118 264.2 118 C 263.841 118 263.8 117.867 263.8 116.7 C 263.8 115.533 263.841 115.4 264.2 115.4 C 264.467 115.4 264.6 115.267 264.6 115 C 264.6 114.733 264.733 114.6 265 114.6 C 265.267 114.6 265.4 114.467 265.4 114.2 C 265.4 113.874 265.533 113.8 266.119 113.8 C 266.664 113.8 266.862 113.706 266.94 113.408 C 267.029 113.069 267.248 113.008 268.571 112.958 C 270.594 112.881 270.498 112.87 270.862 113.234 M 359.155 112.947 C 359.626 112.989 360.346 112.988 360.755 112.945 C 361.165 112.902 360.78 112.868 359.9 112.869 C 359.02 112.869 358.685 112.904 359.155 112.947 M 258.733 120.739 C 258.733 120.889 258.641 120.98 258.529 120.943 C 258.21 120.837 258.157 120.467 258.461 120.467 C 258.611 120.467 258.733 120.589 258.733 120.739" stroke-linecap="round" />
</g>
</g>
</g>
</svg>